<svg version="1.1" id="svg2" xml:space="preserve" viewBox="485.3333394 245.3333364 1701.3333546000001 810.6666768" xmlns="http://www.w3.org/2000/svg" style="max-height: 500px" width="1701.3333546000001" height="810.6666768"><metadata id="metadata8">image/svg+xml</metadata><defs id="defs6"><clipPath clipPathUnits="userSpaceOnUse" id="clipPath18"><path d="M 0,0 H 2000 V 2000 H 0 Z" id="path16"/></clipPath></defs><g id="g10" transform="matrix(1.3333333,0,0,-1.3333333,0,2666.6667)"><g id="g12"><g id="g14" clip-path="url(#clipPath18)"><g id="g20" transform="translate(631.0591,1536.684)"><path d="m 0,0 c 2.599,7.148 -0.262,13.261 -8.581,18.332 -3.51,-1.822 -7.087,-3.578 -10.725,-5.266 -7.411,-3.642 -14.822,-7.477 -22.233,-11.506 -43.034,-22.494 -83.857,-47.652 -122.471,-75.472 -9.882,-7.28 -17.941,-14.754 -24.182,-22.427 v -0.195 h -0.195 c 3.9,-0.908 8.581,-1.103 14.041,-0.585 22.75,2.602 45.308,8.322 67.672,17.162 22.231,8.449 43.099,19.175 62.6,32.178 C -23.274,-34.518 -8.581,-18.594 0,0 m 137.488,213.155 c 1.819,-1.043 3.51,-2.603 5.07,-4.681 1.56,-2.081 2.404,-4.29 2.536,-6.631 0.389,-4.162 -0.034,-7.736 -1.268,-10.726 -1.237,-2.992 -2.7,-5.655 -4.388,-7.995 -0.521,-0.78 -0.975,-1.497 -1.365,-2.145 -3.901,-5.202 -8.063,-10.014 -12.482,-14.432 -8.842,-8.712 -18.072,-16.903 -27.692,-24.572 -1.042,-0.78 -2.145,-1.106 -3.315,-0.975 -1.17,0.128 -2.212,0.713 -3.121,1.755 -0.779,0.908 -1.106,1.981 -0.974,3.217 0.128,1.235 0.648,2.307 1.559,3.218 9.23,7.801 17.875,15.992 25.938,24.573 4.028,4.418 7.605,8.903 10.726,13.456 1.56,2.34 2.828,4.681 3.803,7.02 0.975,2.341 1.267,4.224 0.877,5.656 -0.131,1.56 -1.529,2.761 -4.192,3.608 -2.667,0.844 -5.949,1.365 -9.849,1.56 -3.9,0.195 -7.673,0.03 -11.311,-0.488 -11.573,-1.301 -23.143,-3.446 -34.713,-6.435 -46.545,-12.091 -91.009,-29.515 -133.392,-52.265 -21.714,-10.921 -40.759,-24.249 -57.141,-39.978 -3.9,-4.032 -7.02,-8.191 -9.36,-12.482 -2.341,-4.29 -2.926,-7.605 -1.756,-9.945 1.171,-2.862 4.029,-5.592 8.581,-8.191 4.55,-2.603 9.556,-4.748 15.017,-6.436 12.74,-4.031 26.065,-7.606 39.978,-10.726 9.879,-2.212 19.825,-4.68 29.838,-7.41 10.269,-2.731 20.477,-6.698 30.618,-11.897 2.989,1.298 5.914,2.731 8.776,4.291 3.9,1.95 7.864,3.833 11.895,5.655 4.419,1.819 8.777,3.639 13.067,5.461 17.289,8.581 36.791,14.885 58.505,18.917 1.951,0.259 3.638,-0.165 5.071,-1.268 1.429,-1.106 2.34,-2.633 2.73,-4.583 0.259,-1.95 -0.165,-3.641 -1.268,-5.07 C 93.38,60.779 91.917,59.87 90.098,59.48 L 87.953,59.09 C 68.579,54.669 48.492,47.194 27.693,36.663 c -1.56,-0.78 -3.121,-1.496 -4.681,-2.145 -2.212,-1.042 -4.421,-2.145 -6.631,-3.315 -1.822,-1.042 -3.641,-2.017 -5.46,-2.926 2.599,-2.602 4.808,-5.655 6.631,-9.165 2.078,-3.901 3.184,-8.094 3.315,-12.579 0.128,-4.486 -0.457,-8.55 -1.755,-12.189 -12.481,-26.004 -29.838,-45.439 -52.07,-58.31 -21.193,-13.91 -43.489,-25.221 -66.891,-33.933 -23.143,-9.23 -47.52,-15.211 -73.132,-17.941 -6.371,-0.781 -13.523,-0.259 -21.452,1.559 -0.39,0.132 -0.716,0.262 -0.975,0.391 -2.081,0.652 -4.29,1.788 -6.63,3.412 -2.34,1.628 -4.163,4.388 -5.461,8.289 -0.649,3.772 -0.487,6.956 0.488,9.556 0.975,2.602 1.981,4.616 3.022,6.045 9.099,11.311 18.655,20.41 28.668,27.303 40.302,28.731 82.231,54.083 125.787,76.056 4.159,2.209 8.386,4.291 12.676,6.241 3.12,1.429 6.173,2.925 9.166,4.486 -4.291,1.429 -8.517,2.794 -12.676,4.095 -9.233,2.599 -18.722,5.07 -28.473,7.411 -13.913,3.248 -28.019,7.215 -42.319,11.895 -0.262,0.128 -0.521,0.259 -0.78,0.391 -5.722,1.95 -11.506,4.68 -17.357,8.19 -2.992,1.688 -5.981,3.901 -8.97,6.631 -2.993,2.73 -5.397,6.304 -7.216,10.726 -1.692,4.808 -2.115,9.391 -1.268,13.749 0.844,4.354 2.176,8.093 3.998,11.213 3.638,6.369 7.865,11.829 12.676,16.382 19.112,17.551 39.784,31.72 62.016,42.513 43.943,22.623 89.967,39.784 138.073,51.485 11.96,2.859 24.31,4.744 37.053,5.656 6.368,0.518 12.935,0.259 19.697,-0.78 0.39,-0.132 0.78,-0.262 1.17,-0.391 3.12,-0.389 6.304,-1.559 9.556,-3.509" style="fill:#b11d25;fill-opacity:1;fill-rule:nonzero;stroke:none" id="path22"/></g><g id="g24" transform="translate(1139.6656,1577.8328)"><path d="m 0,0 h 0.975 c 3.77,0 6.759,1.755 8.971,5.265 0.908,1.429 2.371,3.282 4.388,5.558 2.014,2.274 3.735,4.126 5.168,5.559 1.951,2.077 2.858,4.485 2.73,7.215 -0.131,2.73 -1.17,5.071 -3.12,7.021 -2.213,1.95 -4.65,2.891 -7.313,2.827 C 9.133,33.378 6.759,32.306 4.681,30.227 1.429,26.845 -1.14,24.018 -3.022,21.744 -4.909,19.468 -6.274,17.68 -7.118,16.382 -7.965,15.08 -8.517,14.041 -8.776,13.261 -9.037,12.481 -9.166,11.765 -9.166,11.116 -9.428,8.255 -8.678,5.783 -6.923,3.705 -5.168,1.624 -2.861,0.39 0,0" style="fill:#4f4c4d;fill-opacity:1;fill-rule:nonzero;stroke:none" id="path26"/></g><g id="g28" transform="translate(828.0274,1331.135)"><path d="m 0,0 c -13.91,-17.679 -28.796,-34.061 -44.659,-49.144 -8.191,-7.929 -16.641,-13.52 -25.353,-16.772 -2.077,-0.518 -3.671,-0.649 -4.777,-0.39 -1.103,0.262 -2.112,1.106 -3.023,2.535 -0.908,1.433 -1.658,3.349 -2.243,5.754 -0.585,2.407 -0.942,4.713 -1.072,6.922 0.261,3.642 1.852,7.704 4.777,12.189 2.926,4.485 6.144,8.746 9.654,12.774 7.152,8.19 14.888,16.058 23.207,23.597 16.512,14.952 33.738,29.124 51.68,42.514 C 23.012,51.031 38.028,61.757 53.24,72.156 36.206,47.457 18.462,23.402 0,0 M 97.314,180.197 C 91.722,176.424 86.003,172.786 80.152,169.276 70.66,163.553 61.04,158.418 51.29,153.869 c -4.163,-1.95 -8.517,-3.608 -13.067,-4.973 -4.552,-1.365 -8.062,-2.115 -10.531,-2.243 v 0.781 c 0.259,1.039 0.454,2.014 0.585,2.925 0.909,4.159 2.731,8.059 5.461,11.701 5.588,7.279 13.13,12.74 22.622,16.382 9.361,3.768 19.045,5.524 29.058,5.265 5.07,0.128 9.815,-0.585 14.236,-2.145 -0.78,-0.39 -1.56,-0.848 -2.34,-1.365 m -166.546,28.472 c 7.412,3.638 14.95,6.564 22.623,8.776 3.769,1.039 7.343,1.688 10.726,1.95 -1.432,-1.691 -3.252,-3.577 -5.461,-5.655 -2.212,-2.082 -4.357,-3.901 -6.435,-5.461 -6.503,-4.811 -13.393,-8.907 -20.672,-12.286 -7.283,-3.51 -14.758,-6.371 -22.427,-8.581 -3.901,-1.042 -7.737,-1.886 -11.506,-2.535 h -0.78 c -0.263,0 -0.522,-0.067 -0.781,-0.195 10.269,9.62 21.842,17.615 34.713,23.987 m 209.84,1.95 c 0.128,0 0.195,-0.033 0.195,-0.097 0,-0.067 -0.067,-0.098 -0.195,-0.098 z m 608.065,-21.842 c -0.262,1.171 -0.878,2.048 -1.853,2.633 -0.975,0.585 -2.047,0.683 -3.217,0.293 -23.012,-5.982 -46.092,-11.573 -69.232,-16.772 -23.275,-5.201 -46.609,-9.751 -70.011,-13.651 -11.702,-1.95 -23.402,-3.642 -35.104,-5.071 -11.832,-1.56 -23.597,-2.602 -35.298,-3.12 -5.85,-0.262 -11.637,-0.326 -17.356,-0.195 -5.851,0.128 -11.506,0.649 -16.967,1.56 -2.73,0.39 -5.396,0.975 -7.996,1.755 -1.17,0.391 -2.34,0.844 -3.51,1.365 -1.17,0.391 -2.017,0.78 -2.535,1.17 -0.39,0.519 -0.652,0.909 -0.78,1.171 v 1.17 c 0.128,1.429 0.844,3.248 2.145,5.46 1.298,2.209 2.794,4.418 4.485,6.631 1.82,2.078 3.639,4.223 5.461,6.436 0.649,0.78 1.298,1.493 1.95,2.145 1.298,1.56 2.664,3.12 4.095,4.68 1.04,1.17 2.079,2.468 3.121,3.9 0.518,0.65 1.039,1.429 1.56,2.341 0.518,0.78 1.039,1.883 1.56,3.315 0.39,0.78 0.649,1.819 0.78,3.12 0,0.78 -0.067,1.624 -0.195,2.536 -0.262,1.038 -0.716,2.077 -1.365,3.12 -0.652,1.039 -1.365,1.819 -2.145,2.34 -0.391,0.259 -0.78,0.518 -1.17,0.78 -0.391,0.128 -0.717,0.259 -0.976,0.39 -0.39,0.128 -0.716,0.259 -0.975,0.39 h -0.389 l -0.196,0.195 -0.585,0.195 c -1.95,0.39 -3.836,0.649 -5.655,0.78 -3.641,0.259 -7.088,0.195 -10.336,-0.195 -6.631,-0.911 -12.939,-2.276 -18.917,-4.095 -5.981,-1.95 -11.832,-4.096 -17.552,-6.436 -5.591,-2.34 -11.182,-4.811 -16.771,-7.41 -10.921,-5.333 -21.647,-10.922 -32.178,-16.772 -3.642,-2.081 -7.283,-4.227 -10.921,-6.436 l 2.535,3.511 c 3.511,4.68 7.085,9.425 10.726,14.236 1.82,2.34 3.639,4.613 5.461,6.826 0.259,0.518 0.585,0.975 0.975,1.365 0.518,0.649 1.039,1.365 1.56,2.145 0.39,0.649 0.649,1.365 0.78,2.145 0.128,0.908 -0.067,1.95 -0.585,3.12 v 0.391 c -1.691,4.418 -5.007,7.084 -9.946,7.995 -1.432,0.128 -2.535,0 -3.315,-0.39 -0.912,-0.262 -1.627,-0.652 -2.145,-1.17 -0.652,-0.78 -1.301,-1.627 -1.951,-2.535 -0.261,-0.39 -0.52,-0.78 -0.779,-1.17 -1.823,-2.34 -3.641,-4.747 -5.461,-7.216 -2.642,-3.492 -5.238,-6.983 -7.811,-10.473 -18.802,-8.72 -37.715,-16.999 -56.739,-24.825 -20.414,-8.971 -41.085,-16.123 -62.016,-21.452 -3.12,-0.78 -6.469,-1.365 -10.044,-1.755 -3.577,-0.39 -6.727,-0.488 -9.458,-0.293 -2.73,0.196 -4.421,0.747 -5.071,1.658 -0.52,0 -0.554,1.136 -0.097,3.413 0.454,2.273 1.298,5.003 2.535,8.19 1.235,3.185 2.828,6.143 4.779,8.874 5.588,8.971 11.895,17.679 18.916,26.132 l 10.531,12.481 5.461,6.241 c 0.389,0.78 0.974,1.429 1.755,1.95 0.78,0.518 1.395,1.234 1.852,2.145 0.455,0.908 0.293,2.341 -0.487,4.291 -1.95,4.418 -5.333,7.41 -10.141,8.971 h -0.196 c -2.08,0.517 -3.543,0.517 -4.387,0 -0.847,-0.522 -1.463,-1.238 -1.853,-2.146 -0.39,-0.78 -0.975,-1.496 -1.755,-2.145 l -5.46,-6.435 -10.532,-13.457 c -5.158,-6.688 -9.998,-13.695 -14.525,-21.013 -2.472,0.158 -4.782,-0.114 -6.926,-0.829 -1.433,-0.39 -2.798,-0.652 -4.096,-0.78 -5.85,-1.432 -11.442,-3.187 -16.771,-5.265 -10.662,-4.291 -20.998,-9.038 -31.008,-14.237 -20.282,-10.14 -40.11,-21.061 -59.481,-32.763 -2.212,-1.429 -4.421,-2.794 -6.63,-4.095 -1.823,-1.298 -3.706,-2.468 -5.656,-3.51 0.78,1.17 1.56,2.34 2.341,3.51 8.318,12.219 16.445,24.572 24.377,37.054 l 17.746,28.862 c 2.99,4.808 5.851,9.946 8.581,15.406 l 1.17,2.34 c 0,0.259 0.031,0.455 0.098,0.586 0.063,0.128 0.097,0.259 0.097,0.39 0.128,0.128 0.259,0.292 0.39,0.487 0.128,0.195 0.226,0.518 0.293,0.975 0.064,0.454 0.097,1.104 0.097,1.95 0,0.845 -0.067,1.981 -0.195,3.413 0.128,1.17 -0.585,2.341 -2.145,3.511 -1.56,1.17 -3.285,2.014 -5.168,2.535 -1.886,0.518 -3.285,0.323 -4.193,-0.585 -0.262,-0.131 -0.457,-0.229 -0.585,-0.293 -0.131,-0.067 -0.228,-0.097 -0.292,-0.097 h -0.293 c 0,-0.131 -0.067,-0.195 -0.195,-0.195 l -1.95,-1.365 -1.17,-1.365 -1.56,-1.561 c -1.56,-1.691 -3.383,-3.446 -5.461,-5.265 -4.162,-3.382 -8.452,-6.697 -12.871,-9.946 -1.17,-0.911 -2.34,-1.755 -3.51,-2.535 -4.032,3.51 -8.615,5.817 -13.749,6.923 -5.138,1.103 -10.174,1.852 -15.114,2.243 -1.042,0 -2.081,0.064 -3.12,0.194 -12.743,0.129 -25.029,-2.211 -36.859,-7.02 -12.091,-4.68 -22.363,-12.481 -30.813,-23.402 -2.477,-3.52 -4.485,-7.262 -6.03,-11.224 l -11.911,-3.403 -24.572,-7.02 c -16.382,-4.553 -32.894,-8.127 -49.535,-10.726 -8.063,-1.301 -16.284,-2.017 -24.669,-2.145 -8.386,-0.131 -15.441,1.56 -21.16,5.07 -4.163,3.77 -4.681,9.556 -1.56,17.357 1.688,4.549 4.095,8.84 7.215,12.871 v -0.39 c -0.652,-1.95 -0.78,-3.968 -0.389,-6.046 0.259,-1.301 0.615,-2.212 1.072,-2.73 0.454,-0.521 0.942,-0.814 1.463,-0.877 0.518,-0.067 0.975,-0.098 1.365,-0.098 h 0.585 c 1.429,0.128 2.794,0.259 4.095,0.39 2.468,0.259 4.809,0.649 7.021,1.17 0.128,0 0.195,0.064 0.195,0.195 4.681,1.039 9.166,2.273 13.456,3.706 8.581,3.12 16.836,6.889 24.768,11.31 7.928,4.419 15.339,9.62 22.231,15.602 1.688,1.688 3.38,3.248 5.071,4.68 2.599,2.078 5.101,4.516 7.508,7.313 2.404,2.795 4.516,6.662 6.338,11.604 0.649,1.688 0.552,3.541 -0.292,5.558 -0.848,2.014 -1.984,3.769 -3.413,5.265 -1.432,1.494 -2.862,2.244 -4.291,2.244 -3.251,0.907 -5.981,1.233 -8.19,0.974 h -0.976 c -4.942,-0.652 -9.622,-1.627 -14.041,-2.925 -8.58,-2.73 -16.838,-6.112 -24.767,-10.141 -16.123,-7.932 -30.359,-18.594 -42.709,-31.983 -6.112,-6.892 -10.793,-14.888 -14.041,-23.987 -1.819,-4.29 -2.566,-9.297 -2.243,-15.016 0.326,-5.723 2.956,-10.598 7.898,-14.626 7.929,-4.422 15.632,-6.729 23.11,-6.924 7.475,-0.195 14.852,0.293 22.135,1.463 2.989,0.39 5.914,0.713 8.775,0.975 17.162,3.12 33.998,7.085 50.51,11.896 l 24.572,7.216 6.635,2.106 C 9.3,151.761 9.242,151.441 9.166,151.139 8.907,150.097 8.712,148.96 8.581,147.726 c -0.128,-1.237 -0.128,-2.764 0,-4.583 0,-2.73 1.072,-5.591 3.217,-8.581 2.146,-2.992 4.779,-4.875 7.899,-5.655 4.29,-1.039 7.928,-1.365 10.921,-0.975 2.989,0.39 5.719,0.975 8.19,1.755 1.04,0.259 2.146,0.518 3.316,0.78 5.85,1.95 11.439,4.224 16.771,6.826 10.531,4.939 20.736,10.4 30.618,16.381 10.269,6.368 20.282,12.999 30.033,19.892 l -4.68,-7.801 C 103.033,146.781 90.942,127.932 78.592,109.21 c -1.691,-2.468 -3.382,-4.939 -5.07,-7.411 -1.302,-1.95 -2.667,-3.9 -4.096,-5.85 C 46.283,80.999 23.597,65.398 1.365,49.145 -16.836,35.755 -34.451,21.452 -51.485,6.241 c -8.58,-7.539 -16.771,-15.666 -24.572,-24.377 -1.17,-1.561 -2.404,-3.121 -3.705,-4.681 -3.248,-3.639 -6.207,-7.669 -8.874,-12.091 -2.663,-4.418 -4.388,-9.879 -5.168,-16.382 0,-6.499 1.756,-12.999 5.266,-19.502 2.081,-3.769 5.363,-6.337 9.848,-7.703 4.486,-1.364 8.484,-1.395 11.994,-0.097 6.113,1.95 11.506,4.519 16.186,7.703 4.681,3.188 9.038,6.6 13.067,10.238 0.521,0.521 1.106,1.043 1.755,1.561 16.902,15.732 32.44,32.44 46.609,50.12 27.302,33.804 53.045,68.581 77.227,104.334 3.12,2.081 6.241,4.162 9.361,6.24 7.28,4.812 14.626,9.492 22.037,14.042 19.112,11.832 38.613,22.88 58.505,33.153 9.879,5.198 19.956,9.878 30.228,14.041 5.198,2.078 10.336,3.833 15.406,5.266 1.195,0.366 2.409,0.632 3.639,0.805 -2.708,-4.785 -5.027,-10.12 -6.954,-16.017 -0.908,-2.992 -1.396,-6.697 -1.463,-11.116 -0.063,-4.421 1.789,-8.843 5.559,-13.261 4.028,-3.121 7.898,-4.94 11.603,-5.461 3.706,-0.518 7.051,-0.649 10.043,-0.39 h 0.585 c 6.369,0.521 12.351,1.56 17.942,3.121 21.321,6.24 41.734,14.072 61.235,23.499 14.143,6.835 28.075,13.935 41.807,21.284 l -11.774,-16.506 -5.07,-7.215 -2.73,-3.511 c -0.129,-0.262 -0.323,-0.652 -0.586,-1.17 0,-0.131 -0.03,-0.262 -0.097,-0.39 -0.064,-0.131 -0.162,-0.262 -0.292,-0.39 -0.129,-0.131 -0.294,-0.424 -0.488,-0.877 -0.196,-0.458 -0.293,-1.171 -0.293,-2.146 0,-0.975 0.263,-2.437 0.781,-4.388 1.69,-2.212 3.153,-3.705 4.387,-4.485 1.237,-0.78 2.243,-1.17 3.023,-1.17 0.78,0 1.365,0.128 1.756,0.39 h 0.389 c 0.131,0 0.196,-0.067 0.196,-0.195 0.389,0.128 0.715,0.225 0.974,0.292 0.263,0.064 0.457,0.098 0.585,0.098 0.522,0.128 0.912,0.259 1.171,0.39 l 0.585,0.39 c 0.52,0.259 0.974,0.518 1.364,0.78 0.781,0.39 1.496,0.78 2.146,1.17 2.73,1.688 5.329,3.315 7.8,4.876 l 7.411,4.875 c 10.01,6.368 20.087,12.545 30.228,18.527 10.269,5.978 20.605,11.57 31.008,16.771 10.4,5.461 20.995,10.01 31.787,13.651 5.33,1.82 10.595,3.121 15.797,3.901 1.039,0.128 2.014,0.259 2.926,0.39 l -4.681,-5.851 c -1.951,-2.34 -3.836,-4.747 -5.655,-7.215 -1.951,-2.603 -3.706,-5.397 -5.266,-8.386 -0.911,-1.56 -1.692,-3.252 -2.34,-5.07 -0.652,-1.823 -1.042,-3.901 -1.17,-6.241 -0.263,-2.471 0.195,-5.006 1.365,-7.606 1.298,-2.471 2.925,-4.421 4.875,-5.85 1.951,-1.301 3.769,-2.212 5.461,-2.73 1.688,-0.653 3.315,-1.238 4.875,-1.756 3.248,-0.911 6.436,-1.56 9.556,-1.95 6.241,-0.911 12.481,-1.365 18.722,-1.365 6.109,0 12.219,0.195 18.331,0.585 12.091,0.649 24.052,1.819 35.884,3.51 11.959,1.688 23.855,3.639 35.688,5.851 23.53,4.418 46.932,9.425 70.206,15.016 11.571,2.858 23.14,5.784 34.713,8.776 11.57,2.989 23.141,6.173 34.714,9.556 1.039,0.259 1.819,0.878 2.34,1.852 0.517,0.976 0.649,1.981 0.39,3.023" style="fill:#4f4c4d;fill-opacity:1;fill-rule:nonzero;stroke:none" id="path30"/></g><g id="g32" transform="translate(972.3743,1343.0502)"><path d="m 0,0 h 14.509 c 4.178,0 7.407,0.97 9.691,2.913 2.281,1.941 3.423,5.051 3.423,9.331 v 1.58 c 0,4.345 -1.142,7.406 -3.423,9.184 -2.284,1.777 -5.513,2.666 -9.691,2.666 H 0 Z m 0,33.968 h 13.928 c 3.946,0 6.866,0.855 8.763,2.568 1.895,1.711 2.844,4.246 2.844,7.603 0,2.238 -0.485,4.049 -1.451,5.431 -0.969,1.383 -2.342,2.403 -4.12,3.061 -1.782,0.658 -3.871,0.988 -6.268,0.988 H 0 Z m -6.732,-43.25 c -1.625,0 -2.941,0.329 -3.946,0.987 -1.006,0.658 -1.508,1.447 -1.508,2.37 v 65.37 c 0,1.118 0.58,1.975 1.74,2.567 1.161,0.593 2.398,0.889 3.714,0.889 h 21.124 c 4.178,0 8.047,-0.462 11.607,-1.383 3.558,-0.922 6.421,-2.616 8.588,-5.085 2.166,-2.469 3.25,-6.008 3.25,-10.615 0,-4.147 -0.87,-7.571 -2.611,-10.27 -1.741,-2.7 -4.161,-4.608 -7.254,-5.727 2.397,-0.79 4.487,-1.826 6.267,-3.11 1.779,-1.284 3.172,-2.997 4.179,-5.135 1.004,-2.14 1.509,-4.888 1.509,-8.245 V 11.455 C 39.927,6.384 38.92,2.336 36.909,-0.692 34.896,-3.72 32.15,-5.91 28.668,-7.258 25.186,-8.608 21.24,-9.282 16.83,-9.282 Z" style="fill:#4f4c4d;fill-opacity:1;fill-rule:nonzero;stroke:none" id="path34"/></g><g id="g36" transform="translate(1030.5227,1333.7679)"><path d="m 0,0 c -1.549,0 -2.96,0.279 -4.236,0.839 -1.278,0.559 -1.916,1.432 -1.916,2.617 v 65.37 c 0,1.185 0.638,2.04 1.916,2.567 1.276,0.527 2.687,0.79 4.236,0.79 1.547,0 2.96,-0.263 4.236,-0.79 1.277,-0.527 1.915,-1.382 1.915,-2.567 V 3.456 C 6.151,2.271 5.513,1.398 4.236,0.839 2.96,0.279 1.547,0 0,0" style="fill:#4f4c4d;fill-opacity:1;fill-rule:nonzero;stroke:none" id="path38"/></g><g id="g40" transform="translate(1058.1448,1333.7679)"><path d="m 0,0 c -1.549,0 -2.96,0.296 -4.236,0.889 -1.278,0.592 -1.916,1.447 -1.916,2.567 v 65.37 c 0,1.185 0.638,2.04 1.916,2.567 1.276,0.527 2.687,0.79 4.236,0.79 1.547,0 2.96,-0.263 4.236,-0.79 1.277,-0.527 1.915,-1.382 1.915,-2.567 V 38.807 l 28.32,31.895 c 0.851,0.987 2.011,1.481 3.482,1.481 1.004,0 2.07,-0.263 3.192,-0.79 1.12,-0.527 2.049,-1.202 2.785,-2.024 0.735,-0.824 1.103,-1.696 1.103,-2.617 0,-0.264 -0.078,-0.592 -0.232,-0.987 -0.156,-0.395 -0.389,-0.758 -0.696,-1.087 L 21.82,40.979 48.283,6.714 C 48.747,6.122 48.979,5.496 48.979,4.838 48.979,3.982 48.631,3.16 47.934,2.37 47.238,1.58 46.328,0.938 45.207,0.444 c -1.123,-0.494 -2.263,-0.74 -3.424,-0.74 -0.852,0 -1.665,0.148 -2.437,0.444 -0.774,0.296 -1.433,0.806 -1.974,1.531 L 13.695,32.191 6.151,24.094 V 3.456 C 6.151,2.336 5.513,1.481 4.236,0.889 2.96,0.296 1.547,0 0,0" style="fill:#4f4c4d;fill-opacity:1;fill-rule:nonzero;stroke:none" id="path42"/></g><g id="g44" transform="translate(1120.3536,1333.7679)"><path d="m 0,0 c -1.316,0 -2.553,0.296 -3.714,0.889 -1.161,0.592 -1.741,1.447 -1.741,2.567 v 65.271 c 0,1.118 0.58,1.975 1.741,2.568 1.161,0.592 2.398,0.888 3.714,0.888 h 41.319 c 1.47,0 2.514,-0.494 3.135,-1.481 0.618,-0.987 0.928,-2.009 0.928,-3.061 0,-1.251 -0.348,-2.355 -1.045,-3.308 -0.696,-0.955 -1.703,-1.432 -3.018,-1.432 H 6.848 V 40.288 h 17.874 c 1.315,0 2.322,-0.429 3.018,-1.283 0.697,-0.857 1.045,-1.844 1.045,-2.963 0,-0.922 -0.311,-1.827 -0.929,-2.715 -0.621,-0.889 -1.665,-1.334 -3.134,-1.334 H 6.848 V 9.282 h 34.471 c 1.315,0 2.322,-0.461 3.018,-1.382 0.697,-0.923 1.045,-2.041 1.045,-3.358 0,-1.054 -0.31,-2.073 -0.928,-3.061 C 43.833,0.494 42.789,0 41.319,0 Z" style="fill:#4f4c4d;fill-opacity:1;fill-rule:nonzero;stroke:none" id="path46"/></g><g id="g48" transform="translate(1204.8481,1333.7679)"><path d="m 0,0 c -1.549,0 -2.96,0.279 -4.236,0.839 -1.278,0.559 -1.916,1.432 -1.916,2.617 v 65.271 c 0,1.118 0.58,1.975 1.741,2.568 1.161,0.592 2.398,0.888 3.714,0.888 h 40.739 c 1.393,0 2.398,-0.494 3.018,-1.481 0.618,-0.987 0.928,-2.009 0.928,-3.061 0,-1.251 -0.33,-2.355 -0.986,-3.308 -0.659,-0.955 -1.645,-1.432 -2.96,-1.432 H 6.151 V 40.288 h 17.991 c 1.314,0 2.301,-0.429 2.958,-1.283 0.657,-0.857 0.988,-1.844 0.988,-2.963 0,-0.922 -0.311,-1.827 -0.929,-2.715 -0.621,-0.889 -1.625,-1.334 -3.017,-1.334 H 6.151 V 3.456 C 6.151,2.271 5.513,1.398 4.236,0.839 2.96,0.279 1.547,0 0,0" style="fill:#4f4c4d;fill-opacity:1;fill-rule:nonzero;stroke:none" id="path50"/></g><g id="g52" transform="translate(1263.3442,1333.7679)"><path d="m 0,0 c -1.549,0 -2.96,0.279 -4.236,0.839 -1.278,0.559 -1.916,1.432 -1.916,2.617 v 65.37 c 0,1.185 0.638,2.04 1.916,2.567 1.276,0.527 2.687,0.79 4.236,0.79 1.546,0 2.96,-0.263 4.236,-0.79 1.277,-0.527 1.915,-1.382 1.915,-2.567 V 3.456 C 6.151,2.271 5.513,1.398 4.236,0.839 2.96,0.279 1.546,0 0,0" style="fill:#4f4c4d;fill-opacity:1;fill-rule:nonzero;stroke:none" id="path54"/></g><g id="g56" transform="translate(1306.5194,1333.7679)"><path d="m 0,0 c -1.548,0 -2.96,0.296 -4.236,0.889 -1.277,0.592 -1.915,1.447 -1.915,2.567 v 59.149 h -17.99 c -1.239,0 -2.205,0.493 -2.902,1.481 -0.697,0.987 -1.045,2.106 -1.045,3.357 0,1.185 0.309,2.272 0.929,3.259 0.619,0.987 1.625,1.481 3.018,1.481 h 48.167 c 1.468,0 2.513,-0.494 3.133,-1.481 0.619,-0.987 0.929,-2.041 0.929,-3.16 0,-1.318 -0.33,-2.469 -0.987,-3.456 -0.658,-0.988 -1.683,-1.481 -3.075,-1.481 H 6.152 V 3.456 C 6.152,2.336 5.513,1.481 4.236,0.889 2.96,0.296 1.547,0 0,0" style="fill:#4f4c4d;fill-opacity:1;fill-rule:nonzero;stroke:none" id="path58"/></g><g id="g60" transform="translate(1365.2478,1333.7679)"><path d="m 0,0 c -1.548,0 -2.96,0.296 -4.236,0.889 -1.277,0.592 -1.915,1.447 -1.915,2.567 v 59.149 h -17.991 c -1.238,0 -2.205,0.493 -2.901,1.481 -0.697,0.987 -1.045,2.106 -1.045,3.357 0,1.185 0.309,2.272 0.929,3.259 0.619,0.987 1.625,1.481 3.017,1.481 h 48.168 c 1.468,0 2.513,-0.494 3.133,-1.481 0.619,-0.987 0.929,-2.041 0.929,-3.16 0,-1.318 -0.33,-2.469 -0.987,-3.456 -0.658,-0.988 -1.683,-1.481 -3.075,-1.481 H 6.152 V 3.456 C 6.152,2.336 5.513,1.481 4.236,0.889 2.96,0.296 1.547,0 0,0" style="fill:#4f4c4d;fill-opacity:1;fill-rule:nonzero;stroke:none" id="path62"/></g><g id="g64" transform="translate(1408.424,1333.7679)"><path d="m 0,0 c -1.549,0 -2.96,0.279 -4.236,0.839 -1.278,0.559 -1.916,1.432 -1.916,2.617 v 65.37 c 0,1.185 0.638,2.04 1.916,2.567 1.276,0.527 2.687,0.79 4.236,0.79 1.547,0 2.96,-0.263 4.236,-0.79 1.277,-0.527 1.915,-1.382 1.915,-2.567 V 3.456 C 6.151,2.271 5.513,1.398 4.236,0.839 2.96,0.279 1.547,0 0,0" style="fill:#4f4c4d;fill-opacity:1;fill-rule:nonzero;stroke:none" id="path66"/></g><g id="g68" transform="translate(1436.046,1333.7679)"><path d="m 0,0 c -1.549,0 -2.96,0.296 -4.236,0.889 -1.278,0.592 -1.916,1.447 -1.916,2.567 v 65.271 c 0,1.25 0.638,2.139 1.916,2.666 1.276,0.527 2.687,0.79 4.236,0.79 1.468,0 2.727,-0.182 3.772,-0.543 1.045,-0.362 1.992,-0.972 2.844,-1.827 0.85,-0.856 1.74,-2.041 2.668,-3.555 L 35.052,23.501 v 45.325 c 0,1.185 0.638,2.04 1.914,2.567 1.277,0.527 2.688,0.79 4.237,0.79 1.547,0 2.959,-0.263 4.236,-0.79 1.276,-0.527 1.916,-1.382 1.916,-2.567 V 3.456 c 0,-1.12 -0.64,-1.975 -1.916,-2.567 C 44.162,0.296 42.75,0 41.203,0 39.654,0 38.261,0.329 37.024,0.988 35.786,1.645 34.741,2.6 33.891,3.851 L 6.151,48.78 V 3.456 C 6.151,2.336 5.513,1.481 4.236,0.889 2.96,0.296 1.547,0 0,0" style="fill:#4f4c4d;fill-opacity:1;fill-rule:nonzero;stroke:none" id="path70"/></g><g id="g72" transform="translate(1523.9053,1333.1757)"><path d="m 0,0 c -4.953,0 -9.384,0.724 -13.289,2.172 -3.909,1.448 -7.005,3.785 -9.286,7.011 -2.283,3.225 -3.423,7.505 -3.423,12.837 v 28.735 c 0,5.333 1.14,9.611 3.423,12.837 2.281,3.225 5.377,5.562 9.286,7.011 3.905,1.447 8.22,2.172 12.941,2.172 5.26,0 9.865,-0.757 13.811,-2.271 3.946,-1.515 7.04,-3.621 9.285,-6.319 2.244,-2.701 3.366,-5.925 3.366,-9.677 0,-1.975 -0.522,-3.308 -1.567,-4 -1.044,-0.691 -2.573,-1.037 -4.584,-1.037 -1.625,0 -3.038,0.247 -4.236,0.741 -1.201,0.494 -1.84,1.398 -1.916,2.716 -0.231,1.908 -0.774,3.668 -1.624,5.282 -0.853,1.613 -2.246,2.896 -4.179,3.852 -1.935,0.953 -4.605,1.431 -8.008,1.431 -4.335,0 -7.719,-1.037 -10.156,-3.11 -2.437,-2.074 -3.656,-5.283 -3.656,-9.628 V 22.02 c 0,-4.345 1.219,-7.554 3.656,-9.627 C -7.719,10.319 -4.335,9.282 0,9.282 c 4.255,0 7.62,1.037 10.097,3.111 2.476,2.073 3.714,5.282 3.714,9.627 v 8.097 H 2.089 c -1.239,0 -2.206,0.428 -2.902,1.284 -0.696,0.855 -1.044,1.842 -1.044,2.962 0,0.988 0.348,1.926 1.044,2.814 0.696,0.889 1.663,1.334 2.902,1.334 h 19.963 c 1.314,0 2.321,-0.346 3.018,-1.037 0.696,-0.691 1.044,-1.531 1.044,-2.518 V 22.02 c 0,-5.332 -1.161,-9.612 -3.481,-12.837 C 20.311,5.957 17.178,3.62 13.232,2.172 9.285,0.724 4.875,0 0,0" style="fill:#4f4c4d;fill-opacity:1;fill-rule:nonzero;stroke:none" id="path74"/></g><path d="M 2000,0 H 1000 v 1000 h 1000 z" style="fill:#231f20;fill-opacity:1;fill-rule:nonzero;stroke:none" id="path76"/><g id="g78" transform="translate(1283.8937,519.4319)"><path d="M 0,0 C 1.508,4.147 -0.152,7.692 -4.977,10.634 -7.014,9.577 -9.089,8.559 -11.199,7.579 -15.498,5.467 -19.797,3.242 -24.096,0.905 c -24.963,-13.048 -48.644,-27.642 -71.043,-43.78 -5.732,-4.223 -10.407,-8.558 -14.027,-13.009 v -0.113 h -0.114 c 2.263,-0.527 4.978,-0.64 8.146,-0.34 13.196,1.51 26.282,4.827 39.254,9.955 12.897,4.902 25.001,11.124 36.314,18.666 C -13.501,-20.023 -4.977,-10.786 0,0 m 79.754,123.647 c 1.055,-0.605 2.036,-1.51 2.941,-2.716 0.905,-1.207 1.395,-2.488 1.471,-3.846 0.226,-2.414 -0.02,-4.488 -0.736,-6.222 -0.717,-1.735 -1.566,-3.28 -2.545,-4.638 -0.302,-0.452 -0.566,-0.868 -0.792,-1.244 -2.262,-3.017 -4.677,-5.809 -7.24,-8.371 C 67.724,91.556 62.37,86.805 56.789,82.356 56.185,81.903 55.545,81.714 54.866,81.79 c -0.678,0.074 -1.283,0.414 -1.81,1.018 -0.452,0.527 -0.642,1.149 -0.565,1.867 0.074,0.716 0.376,1.338 0.904,1.866 5.355,4.525 10.369,9.277 15.046,14.254 2.337,2.563 4.412,5.165 6.222,7.806 0.905,1.357 1.641,2.715 2.206,4.072 0.566,1.358 0.735,2.45 0.509,3.281 -0.076,0.905 -0.887,1.601 -2.432,2.093 -1.547,0.489 -3.45,0.792 -5.713,0.905 -2.262,0.113 -4.451,0.017 -6.561,-0.283 -6.713,-0.755 -13.425,-1.999 -20.136,-3.733 -27,-7.014 -52.793,-17.121 -77.379,-30.318 -12.595,-6.335 -23.643,-14.066 -33.146,-23.191 -2.262,-2.338 -4.072,-4.751 -5.43,-7.24 -1.357,-2.489 -1.696,-4.412 -1.018,-5.769 0.679,-1.66 2.337,-3.244 4.978,-4.751 2.639,-1.51 5.543,-2.754 8.711,-3.734 7.39,-2.338 15.12,-4.412 23.19,-6.221 5.731,-1.284 11.5,-2.715 17.309,-4.299 5.956,-1.584 11.878,-3.886 17.76,-6.901 1.734,0.753 3.431,1.584 5.091,2.489 2.263,1.131 4.562,2.223 6.901,3.28 2.563,1.056 5.091,2.111 7.579,3.168 10.03,4.978 21.342,8.635 33.938,10.973 1.131,0.151 2.11,-0.095 2.941,-0.735 0.829,-0.642 1.358,-1.527 1.584,-2.659 0.15,-1.131 -0.095,-2.112 -0.735,-2.941 -0.642,-0.831 -1.49,-1.357 -2.546,-1.584 L 51.02,34.277 C 39.782,31.712 28.13,27.377 16.064,21.268 15.159,20.815 14.254,20.4 13.349,20.023 12.066,19.419 10.784,18.779 9.503,18.1 8.446,17.496 7.39,16.93 6.335,16.403 7.843,14.894 9.124,13.123 10.182,11.086 11.387,8.824 12.028,6.392 12.105,3.79 12.179,1.188 11.839,-1.17 11.086,-3.281 3.847,-18.365 -6.222,-29.639 -19.118,-37.105 c -12.294,-8.07 -25.227,-14.631 -38.802,-19.684 -13.425,-5.354 -27.566,-8.824 -42.423,-10.408 -3.695,-0.452 -7.844,-0.15 -12.443,0.905 -0.227,0.076 -0.416,0.152 -0.566,0.227 -1.207,0.378 -2.489,1.037 -3.846,1.979 -1.358,0.944 -2.415,2.545 -3.168,4.808 -0.376,2.188 -0.283,4.035 0.283,5.543 0.566,1.51 1.149,2.678 1.753,3.507 5.278,6.561 10.822,11.839 16.63,15.838 23.378,16.666 47.7,31.373 72.966,44.119 2.413,1.281 4.865,2.489 7.353,3.62 1.81,0.829 3.581,1.697 5.317,2.602 -2.489,0.829 -4.94,1.621 -7.353,2.375 -5.356,1.508 -10.86,2.942 -16.516,4.299 -8.071,1.884 -16.253,4.186 -24.549,6.901 -0.152,0.074 -0.302,0.15 -0.452,0.226 -3.32,1.131 -6.675,2.715 -10.068,4.751 -1.736,0.98 -3.47,2.263 -5.204,3.847 -1.736,1.583 -3.131,3.657 -4.186,6.222 -0.981,2.789 -1.227,5.447 -0.735,7.975 0.49,2.526 1.262,4.695 2.319,6.505 2.11,3.694 4.562,6.861 7.353,9.502 11.086,10.182 23.078,18.401 35.974,24.662 25.491,13.122 52.188,23.077 80.093,29.865 6.938,1.658 14.102,2.752 21.494,3.281 3.695,0.3 7.504,0.15 11.426,-0.453 0.226,-0.076 0.452,-0.152 0.679,-0.226 1.81,-0.226 3.657,-0.905 5.543,-2.036" style="fill:#ffffff;fill-opacity:1;fill-rule:nonzero;stroke:none" id="path80"/></g><g id="g82" transform="translate(1578.9261,543.3016)"><path d="m 0,0 h 0.566 c 2.187,0 3.921,1.018 5.203,3.054 0.527,0.829 1.376,1.904 2.546,3.224 1.168,1.319 2.167,2.394 2.998,3.225 1.131,1.205 1.658,2.601 1.583,4.185 -0.076,1.584 -0.678,2.942 -1.81,4.073 -1.283,1.131 -2.697,1.677 -4.242,1.64 C 5.298,19.362 3.921,18.74 2.715,17.534 0.829,15.572 -0.661,13.932 -1.753,12.613 -2.847,11.293 -3.64,10.256 -4.129,9.503 -4.62,8.748 -4.94,8.145 -5.091,7.692 -5.242,7.24 -5.317,6.825 -5.317,6.448 -5.469,4.788 -5.034,3.355 -4.016,2.149 -2.998,0.942 -1.659,0.226 0,0" style="fill:#ffffff;fill-opacity:1;fill-rule:nonzero;stroke:none" id="path84"/></g><g id="g86" transform="translate(1398.1511,400.1972)"><path d="m 0,0 c -8.069,-10.255 -16.704,-19.758 -25.906,-28.508 -4.751,-4.599 -9.653,-7.842 -14.706,-9.729 -1.206,-0.3 -2.13,-0.376 -2.772,-0.226 -0.64,0.152 -1.225,0.642 -1.753,1.471 -0.527,0.831 -0.962,1.943 -1.301,3.337 -0.34,1.396 -0.546,2.735 -0.622,4.016 0.151,2.112 1.074,4.469 2.771,7.071 1.697,2.601 3.564,5.073 5.6,7.409 4.148,4.751 8.636,9.315 13.462,13.688 9.578,8.674 19.571,16.895 29.978,24.662 8.598,6.411 17.308,12.633 26.132,18.666 C 21.002,27.529 10.71,13.575 0,0 M 56.45,104.528 C 53.206,102.34 49.888,100.23 46.495,98.193 40.989,94.874 35.408,91.895 29.752,89.256 27.338,88.125 24.812,87.163 22.173,86.372 19.532,85.58 17.496,85.145 16.064,85.071 v 0.452 c 0.15,0.603 0.263,1.168 0.339,1.697 0.527,2.413 1.584,4.675 3.168,6.788 3.241,4.222 7.616,7.39 13.122,9.502 5.43,2.187 11.048,3.205 16.856,3.055 2.941,0.074 5.694,-0.34 8.258,-1.245 -0.452,-0.226 -0.905,-0.491 -1.357,-0.792 m -96.61,16.517 c 4.299,2.11 8.672,3.807 13.123,5.09 2.186,0.603 4.26,0.98 6.222,1.132 -0.831,-0.981 -1.886,-2.075 -3.168,-3.281 -1.283,-1.207 -2.527,-2.262 -3.733,-3.167 -3.772,-2.792 -7.768,-5.167 -11.991,-7.127 -4.225,-2.037 -8.561,-3.696 -13.01,-4.978 -2.262,-0.604 -4.488,-1.094 -6.674,-1.471 h -0.453 c -0.152,0 -0.302,-0.039 -0.452,-0.113 5.957,5.581 12.67,10.219 20.136,13.915 m 121.724,1.131 c 0.074,0 0.113,-0.02 0.113,-0.057 0,-0.038 -0.039,-0.056 -0.113,-0.056 z m 352.726,-12.67 c -0.152,0.679 -0.509,1.188 -1.074,1.527 -0.566,0.339 -1.188,0.396 -1.867,0.17 -13.349,-3.47 -26.737,-6.714 -40.16,-9.729 -13.501,-3.017 -27.037,-5.656 -40.612,-7.919 -6.788,-1.131 -13.575,-2.112 -20.363,-2.941 -6.864,-0.905 -13.688,-1.51 -20.475,-1.81 -3.394,-0.152 -6.751,-0.189 -10.069,-0.113 -3.394,0.074 -6.674,0.376 -9.842,0.905 -1.583,0.226 -3.13,0.565 -4.638,1.018 -0.679,0.226 -1.357,0.489 -2.036,0.792 -0.679,0.226 -1.17,0.452 -1.471,0.678 -0.226,0.301 -0.378,0.527 -0.452,0.679 v 0.679 c 0.074,0.829 0.489,1.884 1.244,3.168 0.753,1.281 1.621,2.562 2.602,3.846 1.055,1.205 2.111,2.45 3.168,3.733 0.376,0.453 0.752,0.866 1.131,1.244 0.753,0.905 1.545,1.81 2.375,2.715 0.603,0.679 1.206,1.432 1.811,2.263 0.3,0.376 0.602,0.829 0.905,1.357 0.3,0.453 0.602,1.093 0.904,1.924 0.227,0.452 0.377,1.055 0.453,1.809 0,0.453 -0.039,0.943 -0.113,1.471 -0.152,0.603 -0.415,1.206 -0.792,1.81 -0.378,0.603 -0.792,1.056 -1.244,1.358 -0.227,0.15 -0.453,0.3 -0.679,0.452 -0.227,0.074 -0.416,0.15 -0.566,0.227 -0.226,0.074 -0.415,0.15 -0.566,0.226 h -0.226 l -0.113,0.113 -0.339,0.113 c -1.131,0.226 -2.226,0.376 -3.281,0.453 -2.112,0.15 -4.111,0.113 -5.996,-0.114 -3.846,-0.528 -7.505,-1.32 -10.973,-2.375 -3.47,-1.131 -6.863,-2.376 -10.181,-3.734 -3.243,-1.357 -6.487,-2.79 -9.729,-4.298 -6.335,-3.093 -12.557,-6.335 -18.666,-9.729 -2.112,-1.207 -4.225,-2.452 -6.334,-3.733 l 1.47,2.036 c 2.036,2.715 4.11,5.467 6.222,8.258 1.055,1.358 2.11,2.676 3.167,3.96 0.151,0.3 0.34,0.565 0.566,0.791 0.301,0.377 0.603,0.792 0.905,1.245 0.226,0.376 0.376,0.792 0.452,1.244 0.075,0.527 -0.038,1.132 -0.339,1.81 v 0.227 c -0.981,2.563 -2.904,4.109 -5.769,4.638 -0.831,0.074 -1.471,0 -1.923,-0.226 -0.529,-0.152 -0.944,-0.379 -1.245,-0.679 -0.378,-0.453 -0.755,-0.944 -1.131,-1.471 -0.152,-0.226 -0.302,-0.452 -0.452,-0.679 -1.058,-1.357 -2.113,-2.753 -3.168,-4.185 -1.533,-2.026 -3.038,-4.051 -4.531,-6.076 -10.907,-5.058 -21.878,-9.86 -32.913,-14.4 -11.842,-5.204 -23.833,-9.352 -35.975,-12.444 -1.809,-0.452 -3.752,-0.792 -5.826,-1.018 -2.074,-0.226 -3.902,-0.283 -5.486,-0.17 -1.584,0.113 -2.565,0.433 -2.942,0.962 -0.302,0 -0.321,0.659 -0.056,1.979 0.264,1.319 0.753,2.903 1.471,4.752 0.716,1.847 1.64,3.563 2.771,5.147 3.242,5.204 6.901,10.256 10.973,15.159 l 6.109,7.24 3.168,3.62 c 0.226,0.452 0.565,0.829 1.018,1.131 0.452,0.301 0.809,0.716 1.074,1.245 0.264,0.526 0.17,1.357 -0.282,2.488 -1.131,2.563 -3.093,4.299 -5.883,5.204 h -0.113 c -1.207,0.301 -2.056,0.301 -2.545,0 -0.491,-0.302 -0.849,-0.717 -1.075,-1.244 -0.226,-0.453 -0.566,-0.868 -1.018,-1.245 l -3.167,-3.733 -6.11,-7.806 c -2.992,-3.879 -5.799,-7.943 -8.425,-12.189 -1.434,0.092 -2.774,-0.066 -4.018,-0.481 -0.831,-0.226 -1.623,-0.378 -2.376,-0.452 -3.394,-0.831 -6.637,-1.849 -9.729,-3.055 -6.184,-2.488 -12.18,-5.242 -17.987,-8.258 C 89.143,85.184 77.641,78.849 66.405,72.061 65.121,71.232 63.84,70.44 62.559,69.686 c -1.058,-0.753 -2.15,-1.432 -3.281,-2.037 0.452,0.679 0.905,1.358 1.357,2.037 4.826,7.088 9.54,14.253 14.141,21.494 l 10.295,16.742 c 1.734,2.789 3.393,5.77 4.977,8.937 l 0.679,1.357 c 0,0.151 0.018,0.264 0.056,0.34 0.037,0.074 0.057,0.15 0.057,0.226 0.074,0.075 0.15,0.17 0.226,0.283 0.075,0.113 0.131,0.301 0.17,0.566 0.037,0.263 0.056,0.64 0.056,1.131 0,0.49 -0.038,1.149 -0.113,1.98 0.075,0.678 -0.339,1.357 -1.244,2.036 -0.905,0.679 -1.905,1.168 -2.998,1.47 -1.094,0.301 -1.905,0.188 -2.432,-0.339 -0.152,-0.076 -0.265,-0.133 -0.339,-0.17 -0.076,-0.038 -0.133,-0.056 -0.17,-0.056 h -0.17 c 0,-0.076 -0.039,-0.113 -0.113,-0.113 l -1.131,-0.792 -0.679,-0.792 -0.905,-0.905 c -0.905,-0.981 -1.962,-1.999 -3.168,-3.054 -2.414,-1.962 -4.903,-3.885 -7.466,-5.77 -0.678,-0.528 -1.357,-1.018 -2.036,-1.471 -2.338,2.037 -4.997,3.375 -7.975,4.016 -2.981,0.64 -5.902,1.075 -8.768,1.302 -0.604,0 -1.207,0.037 -1.81,0.112 -7.392,0.075 -14.519,-1.283 -21.381,-4.072 -7.013,-2.715 -12.972,-7.24 -17.873,-13.575 C 9.083,98.527 7.918,96.356 7.022,94.058 L 0.113,92.084 -14.141,88.012 c -9.502,-2.641 -19.081,-4.714 -28.734,-6.222 -4.677,-0.755 -9.446,-1.17 -14.31,-1.244 -4.865,-0.076 -8.957,0.905 -12.274,2.941 -2.415,2.186 -2.715,5.543 -0.905,10.068 0.979,2.639 2.375,5.128 4.185,7.466 v -0.226 c -0.378,-1.131 -0.452,-2.301 -0.226,-3.507 0.15,-0.754 0.357,-1.283 0.622,-1.584 0.263,-0.302 0.546,-0.472 0.849,-0.509 0.3,-0.038 0.565,-0.056 0.792,-0.056 h 0.339 c 0.829,0.074 1.621,0.15 2.376,0.226 1.431,0.15 2.789,0.377 4.072,0.679 0.074,0 0.113,0.037 0.113,0.113 2.715,0.603 5.317,1.319 7.806,2.149 4.977,1.81 9.766,3.997 14.367,6.562 4.599,2.563 8.898,5.58 12.896,9.05 0.979,0.979 1.96,1.884 2.942,2.715 1.507,1.205 2.958,2.619 4.355,4.242 1.395,1.621 2.62,3.864 3.676,6.731 0.377,0.979 0.32,2.054 -0.169,3.224 -0.492,1.169 -1.151,2.187 -1.98,3.054 -0.831,0.867 -1.66,1.302 -2.489,1.302 -1.886,0.526 -3.469,0.715 -4.751,0.565 h -0.566 c -2.867,-0.378 -5.582,-0.944 -8.145,-1.697 -4.977,-1.584 -9.767,-3.546 -14.367,-5.882 -9.352,-4.602 -17.61,-10.786 -24.774,-18.553 -3.546,-3.998 -6.261,-8.636 -8.145,-13.915 -1.055,-2.488 -1.489,-5.393 -1.301,-8.71 0.189,-3.32 1.714,-6.148 4.581,-8.485 4.599,-2.564 9.068,-3.902 13.406,-4.016 4.336,-0.113 8.615,0.17 12.84,0.849 1.734,0.226 3.43,0.414 5.09,0.565 9.955,1.811 19.721,4.11 29.3,6.901 l 14.254,4.186 3.848,1.222 C 5.395,88.034 5.361,87.848 5.317,87.673 c -0.15,-0.605 -0.264,-1.264 -0.34,-1.98 -0.074,-0.718 -0.074,-1.603 0,-2.659 0,-1.583 0.623,-3.243 1.867,-4.977 1.244,-1.736 2.772,-2.828 4.582,-3.281 2.488,-0.603 4.599,-0.792 6.335,-0.565 1.734,0.226 3.317,0.565 4.751,1.018 0.603,0.15 1.244,0.3 1.923,0.452 3.394,1.132 6.636,2.45 9.729,3.96 6.109,2.865 12.029,6.032 17.761,9.502 5.957,3.694 11.765,7.541 17.421,11.539 L 66.631,96.157 C 59.767,85.145 52.754,74.211 45.59,63.35 44.609,61.919 43.628,60.485 42.648,59.052 41.893,57.921 41.102,56.789 40.273,55.658 26.848,46.986 13.688,37.936 0.792,28.508 -9.766,20.741 -19.985,12.444 -29.865,3.62 c -4.978,-4.373 -9.729,-9.087 -14.254,-14.141 -0.679,-0.905 -1.395,-1.81 -2.15,-2.715 -1.884,-2.11 -3.6,-4.449 -5.147,-7.014 -1.545,-2.562 -2.545,-5.73 -2.998,-9.502 0,-3.77 1.018,-7.541 3.055,-11.313 1.207,-2.186 3.111,-3.676 5.713,-4.468 2.601,-0.792 4.921,-0.809 6.957,-0.057 3.546,1.132 6.674,2.622 9.389,4.469 2.715,1.849 5.243,3.828 7.58,5.939 0.302,0.302 0.642,0.605 1.018,0.905 9.805,9.126 18.818,18.818 27.037,29.073 15.838,19.61 30.77,39.783 44.798,60.522 1.81,1.208 3.62,2.415 5.43,3.621 4.223,2.791 8.484,5.506 12.783,8.145 11.086,6.863 22.399,13.272 33.938,19.231 5.731,3.016 11.576,5.731 17.534,8.145 3.016,1.206 5.996,2.224 8.937,3.055 0.693,0.212 1.398,0.366 2.111,0.467 -1.571,-2.776 -2.916,-5.871 -4.034,-9.291 -0.527,-1.736 -0.81,-3.885 -0.848,-6.449 -0.037,-2.564 1.037,-5.129 3.224,-7.692 2.337,-1.81 4.581,-2.865 6.731,-3.167 2.149,-0.301 4.09,-0.377 5.826,-0.227 h 0.339 c 3.694,0.302 7.165,0.905 10.408,1.81 12.368,3.62 24.209,8.163 35.521,13.632 8.204,3.965 16.285,8.083 24.251,12.346 l -6.829,-9.575 -2.942,-4.185 -1.583,-2.036 c -0.075,-0.153 -0.188,-0.379 -0.34,-0.679 0,-0.076 -0.018,-0.152 -0.057,-0.227 -0.036,-0.075 -0.093,-0.151 -0.169,-0.226 -0.075,-0.076 -0.17,-0.246 -0.283,-0.509 -0.113,-0.265 -0.17,-0.679 -0.17,-1.244 0,-0.566 0.152,-1.414 0.453,-2.545 0.981,-1.284 1.829,-2.15 2.545,-2.602 0.718,-0.453 1.301,-0.679 1.753,-0.679 0.453,0 0.793,0.074 1.019,0.226 h 0.226 c 0.076,0 0.113,-0.039 0.113,-0.113 0.226,0.074 0.415,0.131 0.566,0.17 0.152,0.037 0.265,0.056 0.339,0.056 0.303,0.074 0.529,0.15 0.679,0.227 l 0.339,0.226 c 0.302,0.15 0.566,0.3 0.792,0.452 0.453,0.226 0.868,0.453 1.244,0.679 1.584,0.979 3.092,1.923 4.525,2.828 l 4.299,2.828 c 5.807,3.694 11.652,7.277 17.535,10.747 5.957,3.468 11.952,6.712 17.987,9.729 6.033,3.168 12.179,5.807 18.439,7.919 3.092,1.055 6.146,1.81 9.163,2.262 0.604,0.075 1.169,0.151 1.698,0.227 l -2.716,-3.394 c -1.131,-1.358 -2.225,-2.754 -3.28,-4.186 -1.132,-1.509 -2.15,-3.13 -3.055,-4.864 -0.528,-0.905 -0.981,-1.886 -1.357,-2.941 -0.378,-1.058 -0.605,-2.263 -0.679,-3.62 -0.152,-1.434 0.113,-2.905 0.792,-4.412 0.753,-1.434 1.697,-2.565 2.828,-3.394 1.132,-0.755 2.186,-1.283 3.168,-1.584 0.979,-0.378 1.923,-0.718 2.828,-1.018 1.884,-0.529 3.733,-0.905 5.543,-1.131 3.62,-0.529 7.24,-0.792 10.86,-0.792 3.544,0 7.088,0.113 10.634,0.339 7.013,0.377 13.952,1.055 20.815,2.036 6.938,0.98 13.838,2.111 20.702,3.394 13.65,2.563 27.224,5.467 40.726,8.711 6.711,1.658 13.422,3.355 20.136,5.091 6.711,1.734 13.423,3.581 20.136,5.543 0.603,0.15 1.056,0.509 1.358,1.074 0.3,0.566 0.376,1.149 0.226,1.754" style="fill:#ffffff;fill-opacity:1;fill-rule:nonzero;stroke:none" id="path88"/></g><g id="g90" transform="translate(1481.8838,407.1089)"><path d="m 0,0 h 8.416 c 2.424,0 4.297,0.563 5.622,1.69 1.323,1.126 1.986,2.93 1.986,5.413 v 0.916 c 0,2.52 -0.663,4.296 -1.986,5.327 -1.325,1.031 -3.198,1.547 -5.622,1.547 H 0 Z m 0,19.704 h 8.079 c 2.29,0 3.983,0.496 5.084,1.49 1.099,0.992 1.649,2.463 1.649,4.41 0,1.298 -0.281,2.349 -0.842,3.151 -0.561,0.802 -1.358,1.393 -2.39,1.775 -1.033,0.382 -2.245,0.573 -3.635,0.573 L 0,31.103 Z M -3.905,-5.384 c -0.942,0 -1.706,0.19 -2.289,0.573 -0.584,0.381 -0.875,0.839 -0.875,1.374 v 37.92 c 0,0.649 0.337,1.145 1.01,1.489 0.673,0.344 1.391,0.516 2.154,0.516 H 8.349 c 2.423,0 4.667,-0.268 6.732,-0.802 2.064,-0.536 3.725,-1.518 4.982,-2.95 1.257,-1.432 1.886,-3.485 1.886,-6.158 0,-2.406 -0.505,-4.392 -1.515,-5.957 -1.01,-1.566 -2.414,-2.674 -4.208,-3.322 1.391,-0.459 2.603,-1.06 3.635,-1.805 1.032,-0.744 1.841,-1.738 2.424,-2.978 0.583,-1.242 0.876,-2.836 0.876,-4.783 V 6.645 c 0,-2.942 -0.584,-5.29 -1.751,-7.046 -1.168,-1.757 -2.76,-3.027 -4.78,-3.809 -2.02,-0.783 -4.309,-1.174 -6.867,-1.174 z" style="fill:#ffffff;fill-opacity:1;fill-rule:nonzero;stroke:none" id="path92"/></g><g id="g94" transform="translate(1515.6145,401.7245)"><path d="m 0,0 c -0.899,0 -1.717,0.162 -2.457,0.487 -0.741,0.324 -1.112,0.83 -1.112,1.518 v 37.919 c 0,0.688 0.371,1.184 1.112,1.49 0.74,0.305 1.558,0.458 2.457,0.458 0.897,0 1.717,-0.153 2.457,-0.458 0.741,-0.306 1.111,-0.802 1.111,-1.49 V 2.005 C 3.568,1.317 3.198,0.811 2.457,0.487 1.717,0.162 0.897,0 0,0" style="fill:#ffffff;fill-opacity:1;fill-rule:nonzero;stroke:none" id="path96"/></g><g id="g98" transform="translate(1531.6376,401.7245)"><path d="m 0,0 c -0.899,0 -1.717,0.172 -2.457,0.515 -0.741,0.344 -1.112,0.84 -1.112,1.49 v 37.919 c 0,0.688 0.371,1.184 1.112,1.49 0.74,0.305 1.558,0.458 2.457,0.458 0.897,0 1.717,-0.153 2.457,-0.458 0.741,-0.306 1.111,-0.802 1.111,-1.49 V 22.511 l 16.428,18.502 c 0.493,0.573 1.167,0.859 2.02,0.859 0.582,0 1.2,-0.153 1.851,-0.458 0.65,-0.306 1.189,-0.697 1.616,-1.175 0.426,-0.477 0.64,-0.983 0.64,-1.518 0,-0.152 -0.046,-0.343 -0.135,-0.572 -0.091,-0.229 -0.225,-0.44 -0.404,-0.63 L 12.657,23.771 28.008,3.895 C 28.277,3.551 28.412,3.188 28.412,2.807 28.412,2.31 28.21,1.833 27.806,1.375 27.402,0.917 26.874,0.544 26.223,0.258 c -0.651,-0.287 -1.312,-0.43 -1.986,-0.43 -0.494,0 -0.965,0.086 -1.413,0.258 -0.449,0.172 -0.831,0.467 -1.145,0.888 L 7.944,18.674 3.568,13.976 V 2.005 C 3.568,1.355 3.198,0.859 2.457,0.515 1.717,0.172 0.897,0 0,0" style="fill:#ffffff;fill-opacity:1;fill-rule:nonzero;stroke:none" id="path100"/></g><g id="g102" transform="translate(1567.7236,401.7245)"><path d="m 0,0 c -0.763,0 -1.481,0.172 -2.154,0.515 -0.674,0.344 -1.01,0.84 -1.01,1.49 v 37.862 c 0,0.649 0.336,1.146 1.01,1.49 0.673,0.343 1.391,0.515 2.154,0.515 h 23.969 c 0.852,0 1.458,-0.286 1.818,-0.859 0.358,-0.573 0.538,-1.166 0.538,-1.776 0,-0.726 -0.202,-1.366 -0.606,-1.919 -0.404,-0.554 -0.988,-0.83 -1.75,-0.83 H 3.973 V 23.37 h 10.368 c 0.763,0 1.347,-0.248 1.75,-0.744 0.405,-0.497 0.607,-1.07 0.607,-1.719 0,-0.535 -0.181,-1.059 -0.539,-1.575 -0.36,-0.515 -0.966,-0.773 -1.818,-0.773 H 3.973 V 5.384 h 19.996 c 0.762,0 1.346,-0.267 1.75,-0.802 0.404,-0.535 0.606,-1.184 0.606,-1.947 0,-0.611 -0.18,-1.203 -0.538,-1.776 C 25.427,0.286 24.821,0 23.969,0 Z" style="fill:#ffffff;fill-opacity:1;fill-rule:nonzero;stroke:none" id="path104"/></g><g id="g106" transform="translate(1616.7372,401.7245)"><path d="m 0,0 c -0.899,0 -1.717,0.162 -2.457,0.487 -0.741,0.324 -1.112,0.83 -1.112,1.518 v 37.862 c 0,0.649 0.337,1.146 1.01,1.49 0.674,0.343 1.391,0.515 2.155,0.515 h 23.632 c 0.808,0 1.39,-0.286 1.75,-0.859 0.359,-0.573 0.539,-1.166 0.539,-1.776 0,-0.726 -0.192,-1.366 -0.573,-1.919 -0.382,-0.554 -0.954,-0.83 -1.716,-0.83 H 3.568 V 23.37 h 10.436 c 0.762,0 1.335,-0.248 1.716,-0.744 0.381,-0.497 0.573,-1.07 0.573,-1.719 0,-0.535 -0.18,-1.059 -0.538,-1.575 -0.361,-0.515 -0.943,-0.773 -1.751,-0.773 H 3.568 V 2.005 C 3.568,1.317 3.198,0.811 2.458,0.487 1.717,0.162 0.897,0 0,0" style="fill:#ffffff;fill-opacity:1;fill-rule:nonzero;stroke:none" id="path108"/></g><g id="g110" transform="translate(1650.6696,401.7245)"><path d="m 0,0 c -0.899,0 -1.717,0.162 -2.457,0.487 -0.741,0.324 -1.112,0.83 -1.112,1.518 v 37.919 c 0,0.688 0.371,1.184 1.112,1.49 0.74,0.305 1.558,0.458 2.457,0.458 0.897,0 1.717,-0.153 2.458,-0.458 0.74,-0.306 1.11,-0.802 1.11,-1.49 V 2.005 C 3.568,1.317 3.198,0.811 2.458,0.487 1.717,0.162 0.897,0 0,0" style="fill:#ffffff;fill-opacity:1;fill-rule:nonzero;stroke:none" id="path112"/></g><g id="g114" transform="translate(1675.7147,401.7245)"><path d="m 0,0 c -0.898,0 -1.717,0.172 -2.457,0.515 -0.741,0.344 -1.111,0.84 -1.111,1.49 v 34.311 h -10.436 c -0.718,0 -1.279,0.286 -1.683,0.859 -0.404,0.573 -0.606,1.222 -0.606,1.948 0,0.687 0.179,1.317 0.538,1.89 0.359,0.573 0.943,0.859 1.751,0.859 h 27.941 c 0.852,0 1.458,-0.286 1.818,-0.859 0.359,-0.573 0.538,-1.184 0.538,-1.833 0,-0.765 -0.191,-1.432 -0.572,-2.005 -0.382,-0.573 -0.976,-0.859 -1.784,-0.859 H 3.569 V 2.005 C 3.569,1.355 3.198,0.859 2.457,0.515 1.717,0.172 0.898,0 0,0" style="fill:#ffffff;fill-opacity:1;fill-rule:nonzero;stroke:none" id="path116"/></g><g id="g118" transform="translate(1709.7819,401.7245)"><path d="m 0,0 c -0.898,0 -1.717,0.172 -2.457,0.515 -0.741,0.344 -1.111,0.84 -1.111,1.49 v 34.311 h -10.436 c -0.718,0 -1.279,0.286 -1.683,0.859 -0.404,0.573 -0.606,1.222 -0.606,1.948 0,0.687 0.179,1.317 0.538,1.89 0.359,0.573 0.943,0.859 1.751,0.859 h 27.941 c 0.852,0 1.458,-0.286 1.818,-0.859 0.359,-0.573 0.538,-1.184 0.538,-1.833 0,-0.765 -0.191,-1.432 -0.572,-2.005 -0.382,-0.573 -0.976,-0.859 -1.784,-0.859 H 3.569 V 2.005 C 3.569,1.355 3.198,0.859 2.457,0.515 1.717,0.172 0.898,0 0,0" style="fill:#ffffff;fill-opacity:1;fill-rule:nonzero;stroke:none" id="path120"/></g><g id="g122" transform="translate(1734.8274,401.7245)"><path d="m 0,0 c -0.899,0 -1.717,0.162 -2.457,0.487 -0.741,0.324 -1.112,0.83 -1.112,1.518 v 37.919 c 0,0.688 0.371,1.184 1.112,1.49 0.74,0.305 1.558,0.458 2.457,0.458 0.897,0 1.717,-0.153 2.458,-0.458 0.74,-0.306 1.11,-0.802 1.11,-1.49 V 2.005 C 3.568,1.317 3.198,0.811 2.458,0.487 1.717,0.162 0.897,0 0,0" style="fill:#ffffff;fill-opacity:1;fill-rule:nonzero;stroke:none" id="path124"/></g><g id="g126" transform="translate(1750.8505,401.7245)"><path d="m 0,0 c -0.899,0 -1.717,0.172 -2.457,0.515 -0.741,0.344 -1.112,0.84 -1.112,1.49 v 37.862 c 0,0.725 0.371,1.241 1.112,1.547 0.74,0.305 1.558,0.458 2.457,0.458 0.852,0 1.582,-0.106 2.188,-0.315 0.606,-0.21 1.155,-0.564 1.65,-1.06 0.493,-0.496 1.009,-1.184 1.548,-2.062 L 20.333,13.633 v 26.291 c 0,0.688 0.37,1.184 1.11,1.49 0.741,0.305 1.56,0.458 2.458,0.458 0.897,0 1.717,-0.153 2.457,-0.458 0.741,-0.306 1.111,-0.802 1.111,-1.49 V 2.005 c 0,-0.65 -0.37,-1.146 -1.111,-1.49 C 25.618,0.172 24.798,0 23.901,0 23.003,0 22.194,0.191 21.477,0.573 20.759,0.954 20.153,1.508 19.659,2.234 L 3.568,28.297 V 2.005 C 3.568,1.355 3.198,0.859 2.457,0.515 1.717,0.172 0.897,0 0,0" style="fill:#ffffff;fill-opacity:1;fill-rule:nonzero;stroke:none" id="path128"/></g><g id="g130" transform="translate(1801.8159,401.3809)"><path d="m 0,0 c -2.873,0 -5.443,0.42 -7.709,1.26 -2.267,0.84 -4.063,2.195 -5.386,4.067 -1.325,1.871 -1.986,4.353 -1.986,7.446 v 16.669 c 0,3.093 0.661,5.575 1.986,7.446 1.323,1.871 3.119,3.227 5.386,4.067 2.266,0.84 4.768,1.261 7.507,1.261 3.051,0 5.723,-0.44 8.012,-1.318 2.289,-0.879 4.083,-2.1 5.386,-3.666 1.301,-1.566 1.952,-3.437 1.952,-5.613 0,-1.146 -0.303,-1.919 -0.909,-2.32 -0.605,-0.401 -1.492,-0.602 -2.659,-0.602 -0.943,0 -1.762,0.144 -2.457,0.43 -0.697,0.286 -1.067,0.811 -1.112,1.575 -0.134,1.107 -0.449,2.128 -0.942,3.065 -0.494,0.935 -1.302,1.68 -2.424,2.234 -1.122,0.553 -2.671,0.83 -4.645,0.83 -2.514,0 -4.478,-0.601 -5.891,-1.804 -1.414,-1.203 -2.121,-3.065 -2.121,-5.585 V 12.773 c 0,-2.52 0.707,-4.381 2.121,-5.584 C -4.478,5.986 -2.514,5.384 0,5.384 c 2.468,0 4.42,0.602 5.857,1.805 1.436,1.203 2.154,3.064 2.154,5.584 V 17.47 H 1.212 c -0.719,0 -1.28,0.248 -1.684,0.745 -0.403,0.496 -0.605,1.069 -0.605,1.718 0,0.573 0.202,1.118 0.605,1.633 0.404,0.516 0.965,0.773 1.684,0.773 h 11.58 c 0.762,0 1.346,-0.2 1.751,-0.601 0.403,-0.401 0.605,-0.888 0.605,-1.461 V 12.773 C 15.148,9.68 14.475,7.198 13.129,5.327 11.782,3.455 9.964,2.1 7.675,1.26 5.386,0.42 2.828,0 0,0" style="fill:#ffffff;fill-opacity:1;fill-rule:nonzero;stroke:none" id="path132"/></g><g id="g134" transform="translate(285.9848,519.4319)"><path d="M 0,0 C 1.508,4.147 -0.152,7.692 -4.977,10.634 -7.014,9.577 -9.089,8.559 -11.199,7.579 -15.498,5.467 -19.797,3.242 -24.096,0.905 c -24.963,-13.048 -48.644,-27.642 -71.043,-43.78 -5.732,-4.223 -10.407,-8.558 -14.027,-13.009 v -0.113 h -0.114 c 2.263,-0.527 4.978,-0.64 8.146,-0.34 13.196,1.51 26.282,4.827 39.254,9.955 12.897,4.902 25.001,11.124 36.314,18.666 C -13.501,-20.023 -4.977,-10.786 0,0 m 79.754,123.647 c 1.055,-0.605 2.036,-1.51 2.941,-2.716 0.905,-1.207 1.395,-2.488 1.471,-3.846 0.226,-2.414 -0.02,-4.488 -0.736,-6.222 -0.717,-1.735 -1.566,-3.28 -2.545,-4.638 -0.302,-0.452 -0.566,-0.868 -0.792,-1.244 -2.262,-3.017 -4.677,-5.809 -7.24,-8.371 C 67.724,91.556 62.37,86.805 56.789,82.356 56.185,81.903 55.545,81.714 54.866,81.79 c -0.678,0.074 -1.283,0.414 -1.81,1.018 -0.452,0.527 -0.642,1.149 -0.565,1.867 0.074,0.716 0.376,1.338 0.904,1.866 5.354,4.525 10.369,9.277 15.046,14.254 2.337,2.563 4.412,5.165 6.222,7.806 0.905,1.357 1.64,2.715 2.206,4.072 0.566,1.358 0.735,2.45 0.509,3.281 -0.076,0.905 -0.887,1.601 -2.432,2.093 -1.547,0.489 -3.45,0.792 -5.713,0.905 -2.262,0.113 -4.451,0.017 -6.561,-0.283 -6.713,-0.755 -13.425,-1.999 -20.137,-3.733 -26.999,-7.014 -52.792,-17.121 -77.378,-30.318 -12.596,-6.335 -23.643,-14.066 -33.146,-23.191 -2.262,-2.338 -4.072,-4.751 -5.43,-7.24 -1.357,-2.489 -1.697,-4.412 -1.018,-5.769 0.679,-1.66 2.337,-3.244 4.978,-4.751 2.639,-1.51 5.543,-2.754 8.711,-3.734 7.39,-2.338 15.12,-4.412 23.19,-6.221 5.731,-1.284 11.5,-2.715 17.309,-4.299 5.956,-1.584 11.878,-3.886 17.76,-6.901 1.734,0.753 3.431,1.584 5.091,2.489 2.262,1.131 4.562,2.223 6.901,3.28 2.563,1.056 5.09,2.111 7.579,3.168 10.029,4.978 21.342,8.635 33.938,10.973 1.131,0.151 2.11,-0.095 2.941,-0.735 0.829,-0.642 1.358,-1.527 1.584,-2.659 0.15,-1.131 -0.095,-2.112 -0.736,-2.941 -0.641,-0.831 -1.49,-1.357 -2.545,-1.584 L 51.02,34.277 C 39.782,31.712 28.129,27.377 16.064,21.268 15.159,20.815 14.254,20.4 13.349,20.023 12.066,19.419 10.784,18.779 9.503,18.1 8.446,17.496 7.39,16.93 6.335,16.403 c 1.508,-1.509 2.789,-3.28 3.847,-5.317 1.205,-2.262 1.846,-4.694 1.923,-7.296 0.074,-2.602 -0.266,-4.96 -1.019,-7.071 -7.24,-15.084 -17.308,-26.358 -30.204,-33.824 -12.294,-8.07 -25.227,-14.631 -38.802,-19.684 -13.425,-5.354 -27.566,-8.824 -42.423,-10.408 -3.696,-0.452 -7.844,-0.15 -12.443,0.905 -0.227,0.076 -0.416,0.152 -0.566,0.227 -1.207,0.378 -2.489,1.037 -3.846,1.979 -1.358,0.944 -2.415,2.545 -3.168,4.808 -0.376,2.188 -0.283,4.035 0.283,5.543 0.566,1.51 1.149,2.678 1.753,3.507 5.278,6.561 10.822,11.839 16.63,15.838 23.378,16.666 47.7,31.373 72.966,44.119 2.413,1.281 4.865,2.489 7.353,3.62 1.81,0.829 3.581,1.697 5.317,2.602 -2.489,0.829 -4.94,1.621 -7.353,2.375 -5.356,1.508 -10.86,2.942 -16.516,4.299 -8.071,1.884 -16.253,4.186 -24.549,6.901 -0.152,0.074 -0.302,0.15 -0.452,0.226 -3.32,1.131 -6.675,2.715 -10.068,4.751 -1.736,0.98 -3.47,2.263 -5.204,3.847 -1.736,1.583 -3.131,3.657 -4.186,6.221 -0.981,2.79 -1.227,5.448 -0.735,7.976 0.489,2.526 1.262,4.695 2.319,6.505 2.11,3.694 4.562,6.861 7.353,9.502 11.086,10.182 23.078,18.401 35.974,24.662 25.491,13.122 52.188,23.077 80.093,29.865 6.938,1.658 14.102,2.752 21.494,3.281 3.694,0.3 7.504,0.15 11.426,-0.453 0.226,-0.076 0.452,-0.152 0.679,-0.226 1.81,-0.226 3.657,-0.905 5.543,-2.036" style="fill:#231f20;fill-opacity:1;fill-rule:nonzero;stroke:none" id="path136"/></g><g id="g138" transform="translate(581.0172,543.3016)"><path d="m 0,0 h 0.566 c 2.187,0 3.921,1.018 5.203,3.054 0.527,0.829 1.376,1.904 2.546,3.224 1.168,1.319 2.167,2.394 2.998,3.225 1.131,1.205 1.658,2.601 1.583,4.185 -0.076,1.584 -0.678,2.942 -1.81,4.073 -1.283,1.131 -2.697,1.677 -4.242,1.64 C 5.298,19.362 3.921,18.74 2.715,17.534 0.829,15.572 -0.661,13.932 -1.753,12.613 -2.847,11.293 -3.64,10.256 -4.129,9.503 -4.62,8.748 -4.94,8.145 -5.091,7.692 -5.242,7.24 -5.317,6.825 -5.317,6.448 -5.469,4.788 -5.034,3.355 -4.016,2.149 -2.998,0.942 -1.659,0.226 0,0" style="fill:#231f20;fill-opacity:1;fill-rule:nonzero;stroke:none" id="path140"/></g><g id="g142" transform="translate(400.2421,400.1972)"><path d="m 0,0 c -8.069,-10.255 -16.704,-19.758 -25.906,-28.508 -4.751,-4.599 -9.653,-7.842 -14.706,-9.729 -1.206,-0.3 -2.13,-0.376 -2.772,-0.226 -0.64,0.152 -1.225,0.642 -1.753,1.471 -0.527,0.831 -0.962,1.943 -1.301,3.337 -0.339,1.396 -0.546,2.735 -0.622,4.016 0.151,2.112 1.074,4.469 2.771,7.071 1.697,2.601 3.564,5.073 5.6,7.409 4.149,4.751 8.636,9.315 13.462,13.688 9.579,8.674 19.571,16.895 29.978,24.662 8.598,6.411 17.308,12.633 26.132,18.666 C 21.003,27.529 10.71,13.575 0,0 M 56.45,104.528 C 53.206,102.34 49.889,100.23 46.495,98.193 40.989,94.874 35.408,91.895 29.752,89.256 27.338,88.125 24.812,87.163 22.173,86.372 19.532,85.58 17.496,85.145 16.064,85.071 v 0.452 c 0.15,0.603 0.263,1.168 0.339,1.697 0.527,2.413 1.584,4.675 3.168,6.788 3.241,4.222 7.616,7.39 13.122,9.502 5.431,2.187 11.048,3.205 16.856,3.055 2.941,0.074 5.694,-0.34 8.258,-1.245 -0.452,-0.226 -0.905,-0.491 -1.357,-0.792 m -96.61,16.517 c 4.299,2.11 8.672,3.807 13.123,5.09 2.186,0.603 4.26,0.98 6.222,1.132 -0.831,-0.981 -1.886,-2.075 -3.168,-3.281 -1.283,-1.207 -2.527,-2.262 -3.733,-3.167 -3.772,-2.792 -7.768,-5.167 -11.991,-7.127 -4.225,-2.037 -8.561,-3.696 -13.01,-4.978 -2.262,-0.604 -4.488,-1.094 -6.674,-1.471 h -0.453 c -0.152,0 -0.302,-0.039 -0.452,-0.113 5.957,5.581 12.67,10.219 20.136,13.915 m 121.724,1.131 c 0.074,0 0.113,-0.02 0.113,-0.057 0,-0.038 -0.039,-0.056 -0.113,-0.056 z m 352.726,-12.67 c -0.152,0.679 -0.509,1.188 -1.074,1.527 -0.566,0.339 -1.188,0.396 -1.867,0.17 -13.349,-3.47 -26.737,-6.714 -40.16,-9.729 -13.501,-3.017 -27.037,-5.656 -40.612,-7.919 -6.788,-1.131 -13.575,-2.112 -20.363,-2.941 -6.863,-0.905 -13.688,-1.51 -20.475,-1.81 -3.394,-0.152 -6.751,-0.189 -10.069,-0.113 -3.394,0.074 -6.674,0.376 -9.842,0.905 -1.583,0.226 -3.13,0.565 -4.638,1.018 -0.679,0.226 -1.357,0.489 -2.036,0.792 -0.679,0.226 -1.17,0.452 -1.471,0.678 -0.226,0.301 -0.378,0.527 -0.452,0.679 v 0.679 c 0.074,0.829 0.489,1.884 1.244,3.168 0.753,1.281 1.621,2.562 2.602,3.846 1.055,1.205 2.111,2.45 3.168,3.733 0.376,0.453 0.752,0.866 1.131,1.244 0.753,0.905 1.545,1.81 2.375,2.715 0.603,0.679 1.206,1.432 1.811,2.263 0.3,0.376 0.602,0.829 0.905,1.357 0.3,0.453 0.602,1.093 0.904,1.924 0.227,0.452 0.377,1.055 0.453,1.809 0,0.453 -0.039,0.943 -0.113,1.471 -0.152,0.603 -0.415,1.206 -0.792,1.81 -0.378,0.603 -0.792,1.056 -1.244,1.358 -0.227,0.15 -0.453,0.3 -0.679,0.452 -0.227,0.074 -0.416,0.15 -0.566,0.227 -0.226,0.074 -0.415,0.15 -0.566,0.226 h -0.226 l -0.113,0.113 -0.339,0.113 c -1.131,0.226 -2.225,0.376 -3.281,0.453 -2.112,0.15 -4.111,0.113 -5.996,-0.114 -3.846,-0.528 -7.505,-1.32 -10.973,-2.375 -3.469,-1.131 -6.863,-2.376 -10.181,-3.734 -3.243,-1.357 -6.487,-2.79 -9.729,-4.298 -6.335,-3.093 -12.557,-6.335 -18.665,-9.729 -2.113,-1.207 -4.225,-2.452 -6.335,-3.733 l 1.47,2.036 c 2.036,2.715 4.11,5.467 6.222,8.258 1.055,1.358 2.111,2.676 3.167,3.96 0.151,0.3 0.34,0.565 0.566,0.791 0.301,0.377 0.603,0.792 0.905,1.245 0.226,0.376 0.376,0.792 0.453,1.244 0.074,0.527 -0.039,1.132 -0.34,1.81 v 0.227 c -0.981,2.563 -2.904,4.109 -5.769,4.638 -0.831,0.074 -1.471,0 -1.923,-0.226 -0.529,-0.152 -0.944,-0.379 -1.245,-0.679 -0.378,-0.453 -0.754,-0.944 -1.131,-1.471 -0.152,-0.226 -0.302,-0.452 -0.452,-0.679 -1.058,-1.357 -2.113,-2.753 -3.168,-4.185 -1.533,-2.026 -3.038,-4.051 -4.531,-6.076 -10.907,-5.058 -21.878,-9.86 -32.913,-14.4 -11.842,-5.204 -23.833,-9.352 -35.975,-12.444 -1.809,-0.452 -3.752,-0.792 -5.826,-1.018 -2.074,-0.226 -3.902,-0.283 -5.486,-0.17 -1.584,0.113 -2.565,0.433 -2.942,0.962 -0.302,0 -0.321,0.659 -0.056,1.979 0.264,1.319 0.753,2.903 1.471,4.752 0.716,1.847 1.64,3.563 2.771,5.147 3.242,5.204 6.901,10.256 10.973,15.159 l 6.11,7.24 3.167,3.62 c 0.226,0.452 0.565,0.829 1.018,1.131 0.452,0.301 0.809,0.716 1.075,1.245 0.263,0.526 0.17,1.357 -0.283,2.488 -1.131,2.563 -3.093,4.299 -5.883,5.204 h -0.113 c -1.207,0.301 -2.056,0.301 -2.545,0 -0.491,-0.302 -0.848,-0.717 -1.075,-1.244 -0.226,-0.453 -0.566,-0.868 -1.018,-1.245 l -3.167,-3.733 -6.11,-7.806 c -2.992,-3.879 -5.799,-7.943 -8.425,-12.189 -1.434,0.092 -2.774,-0.066 -4.018,-0.481 -0.831,-0.226 -1.623,-0.378 -2.376,-0.452 -3.394,-0.831 -6.637,-1.849 -9.729,-3.055 -6.184,-2.488 -12.18,-5.242 -17.987,-8.258 C 89.143,85.184 77.641,78.849 66.405,72.061 65.122,71.232 63.84,70.44 62.559,69.686 c -1.058,-0.753 -2.15,-1.432 -3.281,-2.037 0.452,0.679 0.905,1.358 1.358,2.037 4.825,7.088 9.539,14.253 14.14,21.494 l 10.295,16.742 c 1.734,2.789 3.393,5.77 4.977,8.937 l 0.679,1.357 c 0,0.151 0.018,0.264 0.057,0.34 0.036,0.074 0.056,0.15 0.056,0.226 0.074,0.075 0.15,0.17 0.226,0.283 0.075,0.113 0.131,0.301 0.17,0.566 0.037,0.263 0.056,0.64 0.056,1.131 0,0.49 -0.038,1.149 -0.112,1.98 0.074,0.678 -0.34,1.357 -1.245,2.036 -0.905,0.679 -1.905,1.168 -2.998,1.47 -1.094,0.301 -1.905,0.188 -2.432,-0.339 -0.152,-0.076 -0.265,-0.133 -0.339,-0.17 -0.076,-0.038 -0.133,-0.056 -0.17,-0.056 h -0.17 c 0,-0.076 -0.039,-0.113 -0.113,-0.113 l -1.131,-0.792 -0.679,-0.792 -0.905,-0.905 c -0.905,-0.981 -1.962,-1.999 -3.167,-3.054 -2.415,-1.962 -4.904,-3.885 -7.467,-5.77 -0.678,-0.528 -1.357,-1.018 -2.036,-1.471 -2.338,2.037 -4.997,3.375 -7.975,4.016 -2.981,0.64 -5.902,1.075 -8.768,1.302 -0.604,0 -1.207,0.037 -1.81,0.112 -7.392,0.075 -14.519,-1.283 -21.38,-4.072 -7.014,-2.715 -12.973,-7.24 -17.874,-13.575 C 9.083,98.527 7.918,96.356 7.022,94.058 L 0.113,92.084 -14.141,88.012 c -9.502,-2.641 -19.081,-4.714 -28.734,-6.222 -4.677,-0.755 -9.446,-1.17 -14.31,-1.244 -4.865,-0.076 -8.957,0.905 -12.274,2.941 -2.415,2.186 -2.715,5.543 -0.905,10.068 0.979,2.639 2.375,5.128 4.185,7.466 v -0.226 c -0.378,-1.131 -0.452,-2.301 -0.226,-3.507 0.15,-0.754 0.357,-1.283 0.622,-1.584 0.264,-0.302 0.546,-0.472 0.849,-0.509 0.3,-0.038 0.565,-0.056 0.792,-0.056 h 0.339 c 0.829,0.074 1.621,0.15 2.376,0.226 1.431,0.15 2.789,0.377 4.072,0.679 0.075,0 0.113,0.037 0.113,0.113 2.715,0.603 5.317,1.319 7.806,2.149 4.977,1.81 9.766,3.997 14.367,6.562 4.599,2.563 8.898,5.58 12.896,9.05 0.979,0.979 1.96,1.884 2.942,2.715 1.507,1.205 2.958,2.619 4.355,4.242 1.395,1.621 2.62,3.864 3.676,6.731 0.377,0.979 0.32,2.054 -0.169,3.224 -0.492,1.169 -1.151,2.187 -1.98,3.054 -0.831,0.867 -1.66,1.302 -2.489,1.302 -1.886,0.526 -3.469,0.715 -4.751,0.565 h -0.566 c -2.866,-0.378 -5.582,-0.944 -8.145,-1.697 -4.977,-1.584 -9.767,-3.546 -14.367,-5.882 -9.352,-4.602 -17.61,-10.786 -24.774,-18.553 -3.546,-3.998 -6.261,-8.636 -8.145,-13.915 -1.055,-2.488 -1.489,-5.393 -1.301,-8.71 0.189,-3.32 1.714,-6.148 4.581,-8.485 4.6,-2.564 9.068,-3.902 13.406,-4.016 4.336,-0.113 8.615,0.17 12.84,0.849 1.734,0.226 3.431,0.414 5.09,0.565 9.955,1.811 19.721,4.11 29.3,6.901 l 14.254,4.186 3.849,1.222 C 5.395,88.034 5.361,87.848 5.317,87.673 c -0.15,-0.605 -0.263,-1.264 -0.34,-1.98 -0.074,-0.718 -0.074,-1.603 0,-2.659 0,-1.583 0.623,-3.243 1.867,-4.977 1.244,-1.736 2.772,-2.828 4.582,-3.281 2.489,-0.603 4.599,-0.792 6.335,-0.565 1.734,0.226 3.317,0.565 4.751,1.018 0.603,0.15 1.244,0.3 1.923,0.452 3.394,1.132 6.636,2.45 9.729,3.96 6.109,2.865 12.029,6.032 17.761,9.502 5.957,3.694 11.765,7.541 17.421,11.539 L 66.631,96.157 C 59.767,85.145 52.754,74.211 45.59,63.35 44.609,61.919 43.628,60.485 42.648,59.052 41.894,57.921 41.102,56.789 40.273,55.658 26.848,46.986 13.688,37.936 0.792,28.508 -9.766,20.741 -19.985,12.444 -29.865,3.62 c -4.978,-4.373 -9.729,-9.087 -14.254,-14.141 -0.679,-0.905 -1.395,-1.81 -2.149,-2.715 -1.885,-2.11 -3.601,-4.449 -5.148,-7.014 -1.545,-2.562 -2.545,-5.73 -2.998,-9.502 0,-3.77 1.019,-7.541 3.055,-11.313 1.207,-2.186 3.111,-3.676 5.713,-4.468 2.602,-0.792 4.921,-0.809 6.957,-0.057 3.546,1.132 6.674,2.622 9.389,4.469 2.715,1.849 5.243,3.828 7.58,5.939 0.302,0.302 0.642,0.605 1.018,0.905 9.805,9.126 18.818,18.818 27.037,29.073 15.838,19.61 30.77,39.783 44.798,60.522 1.81,1.208 3.62,2.415 5.43,3.621 4.223,2.791 8.484,5.506 12.783,8.145 11.087,6.863 22.399,13.272 33.938,19.231 5.731,3.016 11.576,5.731 17.535,8.145 3.015,1.206 5.995,2.224 8.936,3.055 0.693,0.212 1.398,0.366 2.111,0.467 -1.571,-2.776 -2.916,-5.871 -4.034,-9.291 -0.527,-1.736 -0.809,-3.885 -0.848,-6.449 -0.037,-2.564 1.037,-5.129 3.224,-7.692 2.337,-1.81 4.581,-2.865 6.731,-3.167 2.15,-0.301 4.09,-0.377 5.826,-0.227 h 0.339 c 3.694,0.302 7.165,0.905 10.408,1.81 12.368,3.62 24.209,8.163 35.521,13.632 8.204,3.965 16.286,8.083 24.252,12.346 l -6.83,-9.575 -2.942,-4.185 -1.583,-2.036 c -0.075,-0.153 -0.188,-0.379 -0.34,-0.679 0,-0.076 -0.018,-0.152 -0.057,-0.227 -0.036,-0.075 -0.093,-0.151 -0.169,-0.226 -0.075,-0.076 -0.17,-0.246 -0.283,-0.509 -0.113,-0.265 -0.17,-0.679 -0.17,-1.244 0,-0.566 0.153,-1.414 0.453,-2.545 0.981,-1.284 1.829,-2.15 2.545,-2.602 0.718,-0.453 1.301,-0.679 1.753,-0.679 0.453,0 0.793,0.074 1.019,0.226 h 0.226 c 0.076,0 0.113,-0.039 0.113,-0.113 0.226,0.074 0.415,0.131 0.566,0.17 0.152,0.037 0.265,0.056 0.339,0.056 0.303,0.075 0.529,0.15 0.679,0.227 l 0.339,0.226 c 0.303,0.15 0.566,0.3 0.792,0.452 0.453,0.226 0.868,0.453 1.244,0.679 1.584,0.979 3.092,1.923 4.525,2.828 l 4.299,2.828 c 5.807,3.694 11.652,7.277 17.535,10.747 5.957,3.468 11.952,6.712 17.987,9.729 6.033,3.168 12.179,5.807 18.439,7.919 3.092,1.055 6.146,1.81 9.164,2.262 0.603,0.075 1.168,0.151 1.697,0.227 l -2.716,-3.394 c -1.131,-1.358 -2.225,-2.754 -3.28,-4.186 -1.131,-1.509 -2.15,-3.13 -3.055,-4.864 -0.528,-0.905 -0.981,-1.886 -1.357,-2.941 -0.378,-1.058 -0.605,-2.263 -0.679,-3.62 -0.152,-1.434 0.113,-2.905 0.792,-4.412 0.753,-1.434 1.697,-2.565 2.828,-3.394 1.132,-0.755 2.186,-1.283 3.168,-1.584 0.979,-0.378 1.923,-0.718 2.828,-1.018 1.884,-0.529 3.733,-0.905 5.543,-1.131 3.62,-0.529 7.24,-0.792 10.86,-0.792 3.544,0 7.088,0.113 10.634,0.339 7.014,0.377 13.952,1.055 20.815,2.036 6.938,0.98 13.838,2.111 20.702,3.394 13.65,2.563 27.224,5.467 40.726,8.711 6.711,1.658 13.422,3.355 20.136,5.091 6.711,1.734 13.423,3.581 20.136,5.543 0.603,0.15 1.056,0.509 1.358,1.074 0.3,0.566 0.376,1.149 0.226,1.754" style="fill:#231f20;fill-opacity:1;fill-rule:nonzero;stroke:none" id="path144"/></g><g id="g146" transform="translate(483.9749,407.1089)"><path d="m 0,0 h 8.416 c 2.424,0 4.297,0.563 5.622,1.69 1.323,1.126 1.986,2.93 1.986,5.413 v 0.916 c 0,2.521 -0.663,4.296 -1.986,5.327 -1.325,1.031 -3.198,1.547 -5.622,1.547 H 0 Z m 0,19.704 h 8.079 c 2.289,0 3.983,0.496 5.084,1.49 1.099,0.992 1.649,2.463 1.649,4.41 0,1.298 -0.281,2.349 -0.842,3.151 -0.561,0.802 -1.358,1.393 -2.39,1.775 -1.033,0.382 -2.245,0.573 -3.635,0.573 L 0,31.103 Z M -3.905,-5.384 c -0.942,0 -1.706,0.19 -2.289,0.573 -0.584,0.381 -0.875,0.839 -0.875,1.374 v 37.92 c 0,0.649 0.337,1.145 1.01,1.489 0.673,0.344 1.391,0.516 2.154,0.516 H 8.349 c 2.423,0 4.667,-0.268 6.732,-0.802 2.064,-0.536 3.725,-1.518 4.982,-2.95 1.257,-1.432 1.886,-3.485 1.886,-6.158 0,-2.406 -0.505,-4.392 -1.515,-5.957 -1.01,-1.566 -2.414,-2.674 -4.208,-3.322 1.391,-0.459 2.603,-1.06 3.635,-1.805 1.032,-0.744 1.84,-1.738 2.424,-2.978 0.583,-1.242 0.876,-2.836 0.876,-4.783 V 6.645 c 0,-2.942 -0.584,-5.29 -1.751,-7.046 -1.168,-1.757 -2.76,-3.027 -4.78,-3.809 -2.02,-0.783 -4.309,-1.174 -6.867,-1.174 z" style="fill:#231f20;fill-opacity:1;fill-rule:nonzero;stroke:none" id="path148"/></g><g id="g150" transform="translate(517.7056,401.7245)"><path d="m 0,0 c -0.899,0 -1.717,0.162 -2.457,0.487 -0.741,0.324 -1.112,0.83 -1.112,1.518 v 37.919 c 0,0.688 0.371,1.184 1.112,1.49 0.74,0.305 1.558,0.458 2.457,0.458 0.897,0 1.717,-0.153 2.457,-0.458 0.741,-0.306 1.111,-0.802 1.111,-1.49 V 2.005 C 3.568,1.317 3.198,0.811 2.457,0.487 1.717,0.162 0.897,0 0,0" style="fill:#231f20;fill-opacity:1;fill-rule:nonzero;stroke:none" id="path152"/></g><g id="g154" transform="translate(533.7286,401.7245)"><path d="m 0,0 c -0.899,0 -1.717,0.172 -2.457,0.515 -0.741,0.344 -1.112,0.84 -1.112,1.49 v 37.919 c 0,0.688 0.371,1.184 1.112,1.49 0.74,0.305 1.558,0.458 2.457,0.458 0.897,0 1.717,-0.153 2.457,-0.458 0.741,-0.306 1.111,-0.802 1.111,-1.49 V 22.511 l 16.428,18.502 c 0.493,0.573 1.167,0.859 2.02,0.859 0.582,0 1.2,-0.153 1.851,-0.458 0.65,-0.306 1.189,-0.697 1.616,-1.175 0.426,-0.477 0.64,-0.983 0.64,-1.518 0,-0.152 -0.045,-0.343 -0.135,-0.572 -0.091,-0.229 -0.225,-0.44 -0.404,-0.63 L 12.657,23.771 28.008,3.895 C 28.277,3.551 28.412,3.188 28.412,2.807 28.412,2.31 28.21,1.833 27.806,1.375 27.402,0.917 26.874,0.544 26.223,0.258 c -0.65,-0.287 -1.312,-0.43 -1.986,-0.43 -0.494,0 -0.965,0.086 -1.413,0.258 -0.449,0.172 -0.831,0.467 -1.145,0.888 L 7.944,18.674 3.568,13.976 V 2.005 C 3.568,1.355 3.198,0.859 2.457,0.515 1.717,0.172 0.897,0 0,0" style="fill:#231f20;fill-opacity:1;fill-rule:nonzero;stroke:none" id="path156"/></g><g id="g158" transform="translate(569.8148,401.7245)"><path d="m 0,0 c -0.763,0 -1.481,0.172 -2.154,0.515 -0.674,0.344 -1.01,0.84 -1.01,1.49 v 37.862 c 0,0.649 0.336,1.146 1.01,1.49 0.673,0.343 1.391,0.515 2.154,0.515 h 23.968 c 0.853,0 1.459,-0.286 1.819,-0.859 0.358,-0.573 0.538,-1.166 0.538,-1.776 0,-0.726 -0.202,-1.366 -0.606,-1.919 -0.404,-0.554 -0.988,-0.83 -1.751,-0.83 H 3.972 V 23.371 h 10.369 c 0.763,0 1.346,-0.249 1.75,-0.745 0.405,-0.497 0.606,-1.07 0.606,-1.718 0,-0.536 -0.18,-1.06 -0.538,-1.576 -0.36,-0.515 -0.966,-0.773 -1.818,-0.773 H 3.972 V 5.384 h 19.996 c 0.763,0 1.347,-0.267 1.751,-0.802 0.404,-0.535 0.606,-1.184 0.606,-1.947 0,-0.611 -0.18,-1.203 -0.538,-1.776 C 25.427,0.286 24.821,0 23.968,0 Z" style="fill:#231f20;fill-opacity:1;fill-rule:nonzero;stroke:none" id="path160"/></g><g id="g162" transform="translate(618.8283,401.7245)"><path d="m 0,0 c -0.899,0 -1.717,0.162 -2.457,0.487 -0.741,0.324 -1.112,0.83 -1.112,1.518 v 37.862 c 0,0.649 0.337,1.146 1.01,1.49 0.674,0.343 1.391,0.515 2.155,0.515 h 23.631 c 0.809,0 1.391,-0.286 1.751,-0.859 0.359,-0.573 0.538,-1.166 0.538,-1.776 0,-0.726 -0.191,-1.366 -0.572,-1.919 -0.382,-0.554 -0.954,-0.83 -1.717,-0.83 H 3.568 V 23.371 h 10.436 c 0.762,0 1.335,-0.249 1.716,-0.745 0.381,-0.497 0.573,-1.07 0.573,-1.718 0,-0.536 -0.18,-1.06 -0.538,-1.576 -0.361,-0.515 -0.943,-0.773 -1.751,-0.773 H 3.568 V 2.005 C 3.568,1.317 3.198,0.811 2.457,0.487 1.717,0.162 0.897,0 0,0" style="fill:#231f20;fill-opacity:1;fill-rule:nonzero;stroke:none" id="path164"/></g><g id="g166" transform="translate(652.7607,401.7245)"><path d="m 0,0 c -0.899,0 -1.717,0.162 -2.457,0.487 -0.741,0.324 -1.112,0.83 -1.112,1.518 v 37.919 c 0,0.688 0.371,1.184 1.112,1.49 0.74,0.305 1.558,0.458 2.457,0.458 0.897,0 1.717,-0.153 2.457,-0.458 0.741,-0.306 1.111,-0.802 1.111,-1.49 V 2.005 C 3.568,1.317 3.198,0.811 2.457,0.487 1.717,0.162 0.897,0 0,0" style="fill:#231f20;fill-opacity:1;fill-rule:nonzero;stroke:none" id="path168"/></g><g id="g170" transform="translate(677.8057,401.7245)"><path d="m 0,0 c -0.898,0 -1.717,0.172 -2.457,0.515 -0.741,0.344 -1.111,0.84 -1.111,1.49 v 34.311 h -10.436 c -0.718,0 -1.279,0.286 -1.683,0.859 -0.404,0.573 -0.606,1.222 -0.606,1.948 0,0.687 0.179,1.317 0.538,1.89 0.36,0.573 0.943,0.859 1.751,0.859 h 27.941 c 0.852,0 1.458,-0.286 1.818,-0.859 0.359,-0.573 0.538,-1.184 0.538,-1.833 0,-0.765 -0.191,-1.432 -0.572,-2.005 -0.382,-0.573 -0.976,-0.859 -1.784,-0.859 H 3.569 V 2.005 C 3.569,1.355 3.198,0.859 2.457,0.515 1.717,0.172 0.898,0 0,0" style="fill:#231f20;fill-opacity:1;fill-rule:nonzero;stroke:none" id="path172"/></g><g id="g174" transform="translate(711.8729,401.7245)"><path d="m 0,0 c -0.898,0 -1.717,0.172 -2.457,0.515 -0.741,0.344 -1.111,0.84 -1.111,1.49 v 34.311 h -10.436 c -0.718,0 -1.279,0.286 -1.683,0.859 -0.404,0.573 -0.606,1.222 -0.606,1.948 0,0.687 0.179,1.317 0.538,1.89 0.36,0.573 0.943,0.859 1.751,0.859 h 27.941 c 0.852,0 1.458,-0.286 1.818,-0.859 0.359,-0.573 0.538,-1.184 0.538,-1.833 0,-0.765 -0.191,-1.432 -0.572,-2.005 -0.382,-0.573 -0.976,-0.859 -1.784,-0.859 H 3.569 V 2.005 C 3.569,1.355 3.198,0.859 2.457,0.515 1.717,0.172 0.898,0 0,0" style="fill:#231f20;fill-opacity:1;fill-rule:nonzero;stroke:none" id="path176"/></g><g id="g178" transform="translate(736.9185,401.7245)"><path d="m 0,0 c -0.899,0 -1.717,0.162 -2.457,0.487 -0.741,0.324 -1.112,0.83 -1.112,1.518 v 37.919 c 0,0.688 0.371,1.184 1.112,1.49 0.74,0.305 1.558,0.458 2.457,0.458 0.897,0 1.717,-0.153 2.457,-0.458 0.741,-0.306 1.111,-0.802 1.111,-1.49 V 2.005 C 3.568,1.317 3.198,0.811 2.457,0.487 1.717,0.162 0.897,0 0,0" style="fill:#231f20;fill-opacity:1;fill-rule:nonzero;stroke:none" id="path180"/></g><g id="g182" transform="translate(752.9415,401.7245)"><path d="m 0,0 c -0.899,0 -1.717,0.172 -2.457,0.515 -0.741,0.344 -1.112,0.84 -1.112,1.49 v 37.862 c 0,0.725 0.371,1.241 1.112,1.547 0.74,0.305 1.558,0.458 2.457,0.458 0.852,0 1.582,-0.106 2.188,-0.315 0.606,-0.21 1.155,-0.564 1.65,-1.06 0.493,-0.496 1.009,-1.184 1.548,-2.062 L 20.333,13.633 v 26.291 c 0,0.688 0.37,1.184 1.11,1.49 0.741,0.305 1.56,0.458 2.458,0.458 0.897,0 1.717,-0.153 2.457,-0.458 0.741,-0.306 1.111,-0.802 1.111,-1.49 V 2.005 c 0,-0.65 -0.37,-1.146 -1.111,-1.49 C 25.618,0.172 24.798,0 23.901,0 23.003,0 22.195,0.191 21.477,0.573 20.759,0.954 20.153,1.508 19.659,2.234 L 3.568,28.297 V 2.005 C 3.568,1.355 3.198,0.859 2.457,0.515 1.717,0.172 0.897,0 0,0" style="fill:#231f20;fill-opacity:1;fill-rule:nonzero;stroke:none" id="path184"/></g><g id="g186" transform="translate(803.9069,401.3809)"><path d="m 0,0 c -2.873,0 -5.443,0.42 -7.709,1.26 -2.267,0.84 -4.063,2.195 -5.386,4.067 -1.325,1.871 -1.986,4.353 -1.986,7.446 v 16.669 c 0,3.093 0.661,5.575 1.986,7.446 1.323,1.871 3.119,3.227 5.386,4.067 2.266,0.84 4.768,1.261 7.507,1.261 3.051,0 5.723,-0.44 8.012,-1.318 2.289,-0.879 4.083,-2.1 5.386,-3.666 1.301,-1.566 1.952,-3.437 1.952,-5.613 0,-1.146 -0.303,-1.919 -0.908,-2.32 -0.606,-0.401 -1.493,-0.602 -2.66,-0.602 -0.943,0 -1.762,0.144 -2.457,0.43 -0.696,0.286 -1.067,0.811 -1.112,1.575 -0.134,1.107 -0.449,2.128 -0.942,3.065 -0.494,0.935 -1.302,1.68 -2.424,2.234 -1.122,0.553 -2.671,0.83 -4.645,0.83 -2.514,0 -4.477,-0.601 -5.891,-1.804 -1.414,-1.203 -2.121,-3.065 -2.121,-5.585 V 12.773 c 0,-2.52 0.707,-4.381 2.121,-5.584 C -4.477,5.986 -2.514,5.384 0,5.384 c 2.468,0 4.42,0.602 5.857,1.805 1.436,1.203 2.154,3.064 2.154,5.584 V 17.47 H 1.212 c -0.719,0 -1.28,0.248 -1.683,0.745 -0.404,0.496 -0.606,1.069 -0.606,1.718 0,0.573 0.202,1.118 0.606,1.633 0.403,0.516 0.964,0.773 1.683,0.773 h 11.58 c 0.762,0 1.346,-0.2 1.751,-0.601 0.403,-0.401 0.605,-0.888 0.605,-1.461 V 12.773 C 15.148,9.68 14.475,7.198 13.129,5.327 11.782,3.455 9.964,2.1 7.675,1.26 5.386,0.42 2.828,0 0,0" style="fill:#231f20;fill-opacity:1;fill-rule:nonzero;stroke:none" id="path188"/></g></g></g></g></svg>