<?xml version="1.0" encoding="utf-8"?>
<svg xmlns="http://www.w3.org/2000/svg" viewBox="0 0 500 500">
  <defs>
    <clipPath id="clipPath18" clipPathUnits="userSpaceOnUse">
      <path id="path16" d="M 61.568 60.438 L 1609.41 60.438 L 1609.41 1607.71 L 61.568 1607.71 L 61.568 60.438 Z"/>
    </clipPath>
  </defs>
  <path id="path22" style="fill: rgb(177, 29, 37); fill-opacity: 1; fill-rule: nonzero; stroke: none; stroke-width: 1.333;" d="M 280.147 304.1 C 282.829 296.728 279.877 290.422 271.292 285.191 C 267.671 287.07 263.98 288.881 260.225 290.623 C 252.578 294.38 244.931 298.335 237.283 302.491 C 192.877 325.694 150.753 351.645 110.907 380.342 C 100.71 387.851 92.394 395.561 85.954 403.476 L 85.954 403.677 L 85.753 403.677 C 89.777 404.614 94.607 404.815 100.241 404.28 C 123.717 401.597 146.994 395.696 170.071 386.578 C 193.012 377.862 214.545 366.798 234.668 353.386 C 256.131 339.706 271.292 323.281 280.147 304.1 M 422.02 84.228 C 423.897 85.303 425.642 86.912 427.252 89.056 C 428.861 91.203 429.732 93.481 429.868 95.896 C 430.27 100.19 429.833 103.876 428.559 106.961 C 427.283 110.047 425.773 112.794 424.032 115.208 C 423.494 116.012 423.026 116.752 422.623 117.42 C 418.598 122.786 414.303 127.75 409.743 132.306 C 400.619 141.293 391.095 149.743 381.168 157.653 C 380.093 158.458 378.954 158.794 377.747 158.659 C 376.54 158.527 375.465 157.923 374.527 156.849 C 373.723 155.912 373.385 154.805 373.522 153.53 C 373.654 152.256 374.19 151.151 375.131 150.211 C 384.655 142.164 393.575 133.714 401.896 124.863 C 406.052 120.306 409.743 115.679 412.963 110.983 C 414.573 108.57 415.882 106.154 416.888 103.742 C 417.894 101.327 418.195 99.385 417.793 97.907 C 417.658 96.298 416.215 95.06 413.467 94.186 C 410.715 93.315 407.329 92.778 403.304 92.577 C 399.28 92.376 395.386 92.546 391.633 93.08 C 379.69 94.422 367.751 96.635 355.813 99.718 C 307.783 112.19 261.901 130.163 218.167 153.63 C 195.761 164.895 176.108 178.644 159.204 194.868 C 155.179 199.027 151.96 203.317 149.545 207.744 C 147.129 212.169 146.525 215.589 147.733 218.002 C 148.942 220.955 151.89 223.771 156.588 226.451 C 161.282 229.137 166.448 231.349 172.083 233.09 C 185.23 237.248 198.98 240.936 213.336 244.154 C 223.53 246.436 233.794 248.982 244.126 251.798 C 254.722 254.615 265.256 258.707 275.72 264.069 C 278.805 262.731 281.823 261.253 284.776 259.643 C 288.801 257.632 292.891 255.689 297.051 253.81 C 301.611 251.934 306.107 250.056 310.534 248.177 C 328.374 239.325 348.498 232.823 370.905 228.664 C 372.918 228.397 374.659 228.834 376.137 229.972 C 377.612 231.112 378.552 232.688 378.954 234.699 C 379.222 236.71 378.784 238.455 377.647 239.929 C 376.505 241.406 374.995 242.344 373.118 242.746 L 370.905 243.149 C 350.913 247.708 330.185 255.419 308.723 266.282 C 307.113 267.087 305.503 267.825 303.893 268.495 C 301.611 269.57 299.331 270.707 297.051 271.914 C 295.17 272.989 293.293 273.995 291.417 274.933 C 294.098 277.617 296.377 280.766 298.259 284.387 C 300.403 288.41 301.544 292.736 301.68 297.362 C 301.812 301.989 301.208 306.182 299.869 309.935 C 286.99 336.759 269.079 356.806 246.138 370.083 C 224.269 384.431 201.262 396.098 177.114 405.085 C 153.233 414.606 128.078 420.776 101.65 423.592 C 95.075 424.397 87.695 423.859 79.513 421.984 C 79.111 421.847 78.775 421.714 78.507 421.58 C 76.361 420.907 74.081 419.736 71.666 418.06 C 69.251 416.382 67.371 413.535 66.031 409.51 C 65.362 405.62 65.529 402.335 66.535 399.653 C 67.541 396.97 68.579 394.892 69.653 393.418 C 79.042 381.751 88.903 372.365 99.235 365.254 C 140.822 335.618 184.088 309.466 229.034 286.801 C 233.325 284.523 237.687 282.375 242.113 280.364 C 245.333 278.889 248.484 277.347 251.572 275.736 C 247.144 274.262 242.784 272.854 238.492 271.512 C 228.965 268.831 219.173 266.282 209.111 263.867 C 194.754 260.517 180.199 256.425 165.442 251.598 C 165.172 251.465 164.904 251.331 164.637 251.194 C 158.733 249.183 152.765 246.367 146.727 242.746 C 143.639 241.005 140.555 238.722 137.471 235.906 C 134.383 233.09 131.901 229.403 130.025 224.842 C 128.279 219.882 127.842 215.155 128.716 210.66 C 129.587 206.169 130.962 202.311 132.842 199.093 C 136.596 192.523 140.958 186.891 145.922 182.195 C 165.644 164.091 186.975 149.475 209.915 138.342 C 255.26 115.006 302.751 97.304 352.392 85.234 C 364.733 82.285 377.477 80.341 390.627 79.4 C 397.197 78.866 403.974 79.133 410.951 80.205 C 411.354 80.341 411.756 80.475 412.159 80.608 C 415.378 81.01 418.664 82.217 422.02 84.228" clip-path="url(#clipPath18)"/>
  <path id="path74" style="fill: rgb(79, 76, 77); fill-opacity: 1; fill-rule: nonzero; stroke: none; stroke-width: 1.333;" d="M 1472.89 586.302 C 1466.29 586.302 1460.38 585.336 1455.17 583.406 C 1449.96 581.475 1445.84 578.359 1442.79 574.058 C 1439.75 569.758 1438.23 564.051 1438.23 556.942 L 1438.23 518.628 C 1438.23 511.518 1439.75 505.814 1442.79 501.512 C 1445.84 497.212 1449.96 494.096 1455.17 492.164 C 1460.38 490.235 1466.13 489.268 1472.43 489.268 C 1479.44 489.268 1485.58 490.278 1490.84 492.296 C 1496.11 494.316 1500.23 497.124 1503.22 500.722 C 1506.22 504.323 1507.71 508.622 1507.71 513.624 C 1507.71 516.258 1507.02 518.035 1505.62 518.958 C 1504.23 519.879 1502.19 520.34 1499.51 520.34 C 1497.34 520.34 1495.46 520.011 1493.86 519.352 C 1492.26 518.694 1491.41 517.488 1491.31 515.731 C 1491 513.187 1490.28 510.84 1489.14 508.688 C 1488.01 506.538 1486.15 504.827 1483.57 503.552 C 1480.99 502.282 1477.43 501.644 1472.89 501.644 C 1467.11 501.644 1462.6 503.027 1459.35 505.791 C 1456.1 508.556 1454.48 512.835 1454.48 518.628 L 1454.48 556.942 C 1454.48 562.735 1456.1 567.014 1459.35 569.778 C 1462.6 572.543 1467.11 573.926 1472.89 573.926 C 1478.57 573.926 1483.05 572.543 1486.36 569.778 C 1489.66 567.014 1491.31 562.735 1491.31 556.942 L 1491.31 546.146 L 1475.68 546.146 C 1474.03 546.146 1472.74 545.575 1471.81 544.434 C 1470.88 543.294 1470.42 541.978 1470.42 540.484 C 1470.42 539.167 1470.88 537.916 1471.81 536.732 C 1472.74 535.547 1474.03 534.954 1475.68 534.954 L 1502.3 534.954 C 1504.05 534.954 1505.39 535.415 1506.32 536.336 C 1507.25 537.258 1507.71 538.378 1507.71 539.694 L 1507.71 556.942 C 1507.71 564.051 1506.16 569.758 1503.07 574.058 C 1499.97 578.359 1495.8 581.475 1490.54 583.406 C 1485.27 585.336 1479.39 586.302 1472.89 586.302" clip-path="url(#clipPath18)"/>
  <path id="path76" style="fill: rgb(35, 31, 32); fill-opacity: 1; fill-rule: nonzero; stroke: none; stroke-width: 1.333;" d="M 2107.69 2363.87 L 774.353 2363.87 L 774.353 1030.54 L 2107.69 1030.54 L 2107.69 2363.87 Z" clip-path="url(#clipPath18)"/>
  <path id="path80" style="fill: rgb(255, 255, 255); fill-opacity: 1; fill-rule: nonzero; stroke: none; stroke-width: 1.333;" d="M 1152.88 1671.29 C 1154.89 1665.76 1152.68 1661.04 1146.24 1657.12 C 1143.53 1658.52 1140.76 1659.88 1137.95 1661.19 C 1132.21 1664 1126.48 1666.97 1120.75 1670.09 C 1087.47 1687.48 1055.89 1706.94 1026.03 1728.46 C 1018.38 1734.09 1012.15 1739.87 1007.32 1745.81 L 1007.32 1745.96 L 1007.17 1745.96 C 1010.19 1746.66 1013.81 1746.81 1018.03 1746.41 C 1035.63 1744.4 1053.08 1739.97 1070.37 1733.14 C 1087.57 1726.6 1103.71 1718.3 1118.79 1708.25 C 1134.88 1697.99 1146.24 1685.67 1152.88 1671.29 M 1259.22 1506.43 C 1260.62 1507.24 1261.93 1508.44 1263.14 1510.05 C 1264.35 1511.66 1265 1513.37 1265.1 1515.18 C 1265.4 1518.4 1265.07 1521.16 1264.12 1523.48 C 1263.16 1525.79 1262.03 1527.85 1260.72 1529.66 C 1260.32 1530.26 1259.97 1530.82 1259.67 1531.32 C 1256.65 1535.34 1253.43 1539.06 1250.02 1542.48 C 1243.18 1549.22 1236.04 1555.55 1228.6 1561.48 C 1227.79 1562.09 1226.94 1562.34 1226.03 1562.24 C 1225.13 1562.14 1224.32 1561.69 1223.62 1560.88 C 1223.02 1560.18 1222.76 1559.35 1222.87 1558.39 C 1222.96 1557.44 1223.37 1556.61 1224.07 1555.9 C 1231.21 1549.87 1237.9 1543.54 1244.13 1536.9 C 1247.25 1533.48 1250.02 1530.01 1252.43 1526.49 C 1253.64 1524.68 1254.62 1522.87 1255.37 1521.06 C 1256.13 1519.25 1256.35 1517.8 1256.05 1516.69 C 1255.95 1515.48 1254.87 1514.55 1252.81 1513.9 C 1250.74 1513.24 1248.21 1512.84 1245.19 1512.69 C 1242.17 1512.54 1239.25 1512.67 1236.44 1513.07 C 1227.49 1514.08 1218.54 1515.73 1209.59 1518.05 C 1173.59 1527.4 1139.2 1540.87 1106.42 1558.47 C 1089.63 1566.92 1074.9 1577.22 1062.23 1589.39 C 1059.21 1592.51 1056.8 1595.72 1054.99 1599.04 C 1053.18 1602.36 1052.72 1604.93 1053.63 1606.74 C 1054.53 1608.95 1056.74 1611.06 1060.27 1613.07 C 1063.79 1615.08 1067.66 1616.74 1071.88 1618.05 C 1081.73 1621.17 1092.04 1623.93 1102.8 1626.34 C 1110.44 1628.06 1118.13 1629.96 1125.88 1632.08 C 1133.82 1634.19 1141.72 1637.26 1149.56 1641.28 C 1151.87 1640.27 1154.13 1639.16 1156.35 1637.96 C 1159.37 1636.45 1162.43 1634.99 1165.55 1633.59 C 1168.97 1632.18 1172.34 1630.77 1175.65 1629.36 C 1189.03 1622.72 1204.11 1617.85 1220.9 1614.73 C 1222.41 1614.53 1223.72 1614.86 1224.83 1615.71 C 1225.93 1616.57 1226.64 1617.75 1226.94 1619.26 C 1227.14 1620.76 1226.81 1622.07 1225.96 1623.18 C 1225.1 1624.29 1223.97 1624.99 1222.56 1625.29 L 1220.9 1625.59 C 1205.92 1629.01 1190.38 1634.79 1174.3 1642.94 C 1173.09 1643.54 1171.88 1644.09 1170.68 1644.6 C 1168.97 1645.4 1167.26 1646.26 1165.55 1647.16 C 1164.14 1647.96 1162.73 1648.72 1161.33 1649.42 C 1163.34 1651.43 1165.04 1653.8 1166.45 1656.51 C 1168.06 1659.53 1168.92 1662.77 1169.02 1666.24 C 1169.12 1669.71 1168.66 1672.85 1167.66 1675.67 C 1158.01 1695.78 1144.58 1710.81 1127.39 1720.77 C 1111 1731.53 1093.75 1740.28 1075.65 1747.01 C 1057.75 1754.15 1038.9 1758.78 1019.09 1760.89 C 1014.16 1761.49 1008.63 1761.09 1002.5 1759.68 C 1002.19 1759.58 1001.94 1759.48 1001.74 1759.38 C 1000.13 1758.88 998.424 1758 996.614 1756.74 C 994.804 1755.48 993.394 1753.35 992.39 1750.33 C 991.889 1747.41 992.013 1744.95 992.768 1742.94 C 993.522 1740.93 994.3 1739.37 995.105 1738.26 C 1002.14 1729.52 1009.53 1722.48 1017.28 1717.15 C 1048.45 1694.92 1080.88 1675.32 1114.57 1658.32 C 1117.78 1656.61 1121.05 1655 1124.37 1653.49 C 1126.78 1652.39 1129.14 1651.23 1131.46 1650.03 C 1128.14 1648.92 1124.87 1647.86 1121.66 1646.86 C 1114.51 1644.85 1107.18 1642.94 1099.63 1641.13 C 1088.87 1638.62 1077.96 1635.55 1066.9 1631.92 C 1066.7 1631.83 1066.5 1631.72 1066.3 1631.62 C 1061.87 1630.12 1057.4 1628 1052.88 1625.29 C 1050.56 1623.98 1048.25 1622.27 1045.94 1620.16 C 1043.62 1618.05 1041.76 1615.28 1040.36 1611.86 C 1039.05 1608.14 1038.72 1604.6 1039.38 1601.23 C 1040.03 1597.86 1041.06 1594.97 1042.47 1592.56 C 1045.28 1587.63 1048.55 1583.41 1052.27 1579.89 C 1067.05 1566.31 1083.04 1555.35 1100.24 1547.01 C 1134.22 1529.51 1169.82 1516.24 1207.03 1507.18 C 1216.28 1504.97 1225.83 1503.52 1235.69 1502.81 C 1240.61 1502.41 1245.69 1502.61 1250.92 1503.41 C 1251.22 1503.52 1251.52 1503.62 1251.83 1503.72 C 1254.24 1504.02 1256.7 1504.92 1259.22 1506.43" clip-path="url(#clipPath18)"/>
  <path id="path84" style="fill: rgb(255, 255, 255); fill-opacity: 1; fill-rule: nonzero; stroke: none; stroke-width: 1.333;" d="M 1546.26 1639.47 L 1547.01 1639.47 C 1549.92 1639.47 1552.24 1638.11 1553.95 1635.39 C 1554.65 1634.29 1555.78 1632.86 1557.34 1631.1 C 1558.9 1629.34 1560.23 1627.9 1561.34 1626.8 C 1562.85 1625.19 1563.55 1623.33 1563.45 1621.22 C 1563.35 1619.1 1562.55 1617.29 1561.04 1615.79 C 1559.33 1614.28 1557.44 1613.55 1555.38 1613.6 C 1553.32 1613.65 1551.48 1614.48 1549.88 1616.09 C 1547.36 1618.7 1545.37 1620.89 1543.92 1622.65 C 1542.46 1624.41 1541.4 1625.79 1540.75 1626.8 C 1540.1 1627.8 1539.67 1628.61 1539.47 1629.21 C 1539.27 1629.81 1539.16 1630.37 1539.16 1630.87 C 1538.96 1633.08 1539.54 1634.99 1540.9 1636.6 C 1542.26 1638.21 1544.04 1639.17 1546.26 1639.47" clip-path="url(#clipPath18)"/>
  <path id="path88" style="fill: rgb(255, 255, 255); fill-opacity: 1; fill-rule: nonzero; stroke: none; stroke-width: 1.333;" d="M 1305.22 1830.27 C 1294.46 1843.95 1282.95 1856.62 1270.68 1868.28 C 1264.35 1874.41 1257.81 1878.74 1251.07 1881.26 C 1249.46 1881.65 1248.23 1881.76 1247.38 1881.56 C 1246.52 1881.35 1245.74 1880.7 1245.04 1879.6 C 1244.34 1878.49 1243.76 1877.01 1243.3 1875.15 C 1242.85 1873.29 1242.58 1871.5 1242.47 1869.79 C 1242.68 1866.97 1243.91 1863.83 1246.17 1860.36 C 1248.43 1856.89 1250.92 1853.6 1253.64 1850.48 C 1259.17 1844.15 1265.15 1838.07 1271.59 1832.23 C 1284.36 1820.67 1297.68 1809.71 1311.56 1799.35 C 1323.02 1790.8 1334.63 1782.51 1346.4 1774.46 C 1333.22 1793.57 1319.5 1812.17 1305.22 1830.27 M 1380.49 1690.9 C 1376.16 1693.82 1371.74 1696.63 1367.21 1699.35 C 1359.87 1703.77 1352.43 1707.75 1344.89 1711.27 C 1341.67 1712.77 1338.3 1714.06 1334.79 1715.11 C 1331.26 1716.17 1328.55 1716.75 1326.64 1716.85 L 1326.64 1716.24 C 1326.84 1715.44 1326.99 1714.68 1327.09 1713.98 C 1327.8 1710.76 1329.2 1707.75 1331.32 1704.93 C 1335.64 1699.3 1341.47 1695.08 1348.81 1692.26 C 1356.05 1689.34 1363.54 1687.99 1371.29 1688.19 C 1375.21 1688.09 1378.88 1688.64 1382.3 1689.85 C 1381.69 1690.15 1381.09 1690.5 1380.49 1690.9 M 1251.67 1668.88 C 1257.41 1666.07 1263.24 1663.8 1269.17 1662.09 C 1272.09 1661.29 1274.85 1660.79 1277.47 1660.58 C 1276.36 1661.89 1274.95 1663.35 1273.24 1664.96 C 1271.53 1666.57 1269.88 1667.97 1268.27 1669.18 C 1263.24 1672.9 1257.91 1676.07 1252.28 1678.68 C 1246.65 1681.4 1240.86 1683.61 1234.93 1685.32 C 1231.92 1686.13 1228.95 1686.78 1226.03 1687.28 L 1225.43 1687.28 C 1225.23 1687.28 1225.03 1687.33 1224.83 1687.43 C 1232.77 1679.99 1241.72 1673.81 1251.67 1668.88 M 1413.97 1667.37 C 1414.07 1667.37 1414.12 1667.4 1414.12 1667.45 C 1414.12 1667.5 1414.07 1667.52 1413.97 1667.52 L 1413.97 1667.37 Z M 1884.28 1684.27 C 1884.07 1683.36 1883.6 1682.68 1882.84 1682.23 C 1882.09 1681.78 1881.26 1681.7 1880.35 1682 C 1862.56 1686.63 1844.7 1690.95 1826.81 1694.97 C 1808.81 1699 1790.76 1702.52 1772.66 1705.53 C 1763.61 1707.04 1754.56 1708.35 1745.51 1709.45 C 1736.36 1710.66 1727.26 1711.47 1718.21 1711.87 C 1713.68 1712.07 1709.2 1712.12 1704.78 1712.02 C 1700.26 1711.92 1695.88 1711.52 1691.66 1710.81 C 1689.55 1710.51 1687.48 1710.06 1685.47 1709.45 C 1684.57 1709.15 1683.66 1708.8 1682.76 1708.4 C 1681.86 1708.1 1681.2 1707.8 1680.8 1707.49 C 1680.5 1707.09 1680.3 1706.79 1680.2 1706.59 L 1680.2 1705.68 C 1680.3 1704.58 1680.85 1703.17 1681.86 1701.46 C 1682.86 1699.75 1684.02 1698.04 1685.32 1696.33 C 1686.73 1694.72 1688.14 1693.07 1689.55 1691.35 C 1690.05 1690.75 1690.55 1690.2 1691.06 1689.69 C 1692.06 1688.49 1693.12 1687.28 1694.22 1686.08 C 1695.03 1685.17 1695.83 1684.17 1696.64 1683.06 C 1697.04 1682.56 1697.44 1681.95 1697.84 1681.25 C 1698.24 1680.64 1698.65 1679.79 1699.05 1678.68 C 1699.35 1678.08 1699.55 1677.28 1699.65 1676.27 C 1699.65 1675.67 1699.6 1675.01 1699.5 1674.31 C 1699.3 1673.51 1698.95 1672.7 1698.45 1671.9 C 1697.94 1671.09 1697.39 1670.49 1696.79 1670.09 C 1696.48 1669.89 1696.18 1669.69 1695.88 1669.48 C 1695.58 1669.38 1695.33 1669.28 1695.13 1669.18 C 1694.83 1669.08 1694.58 1668.98 1694.37 1668.88 L 1694.07 1668.88 L 1693.92 1668.73 L 1693.47 1668.58 C 1691.96 1668.28 1690.5 1668.08 1689.1 1667.97 C 1686.28 1667.77 1683.61 1667.82 1681.1 1668.13 C 1675.97 1668.83 1671.09 1669.89 1666.47 1671.29 C 1661.84 1672.8 1657.32 1674.46 1652.89 1676.27 C 1648.57 1678.08 1644.24 1679.99 1639.92 1682 C 1631.48 1686.13 1623.18 1690.45 1615.04 1694.97 C 1612.22 1696.58 1609.4 1698.24 1606.59 1699.95 L 1608.55 1697.24 C 1611.26 1693.62 1614.03 1689.95 1616.85 1686.23 C 1618.25 1684.41 1619.66 1682.66 1621.07 1680.95 C 1621.27 1680.55 1621.52 1680.19 1621.82 1679.89 C 1622.22 1679.39 1622.63 1678.84 1623.03 1678.23 C 1623.33 1677.73 1623.53 1677.17 1623.63 1676.57 C 1623.73 1675.87 1623.58 1675.06 1623.18 1674.16 L 1623.18 1673.86 C 1621.87 1670.44 1619.31 1668.38 1615.49 1667.67 C 1614.38 1667.57 1613.53 1667.67 1612.92 1667.97 C 1612.22 1668.18 1611.66 1668.48 1611.26 1668.88 C 1610.76 1669.48 1610.26 1670.14 1609.76 1670.84 C 1609.55 1671.14 1609.35 1671.44 1609.15 1671.75 C 1607.74 1673.56 1606.34 1675.42 1604.93 1677.33 C 1602.88 1680.03 1600.88 1682.73 1598.89 1685.43 C 1584.35 1692.17 1569.72 1698.57 1555 1704.63 C 1539.21 1711.57 1523.23 1717.1 1507.04 1721.22 C 1504.63 1721.82 1502.04 1722.28 1499.27 1722.58 C 1496.5 1722.88 1494.07 1722.95 1491.95 1722.8 C 1489.84 1722.65 1488.54 1722.23 1488.03 1721.52 C 1487.63 1721.52 1487.6 1720.64 1487.96 1718.88 C 1488.31 1717.12 1488.96 1715.01 1489.92 1712.55 C 1490.87 1710.08 1492.11 1707.8 1493.61 1705.68 C 1497.94 1698.74 1502.82 1692.01 1508.24 1685.47 L 1516.39 1675.82 L 1520.61 1670.99 C 1520.91 1670.39 1521.37 1669.89 1521.97 1669.48 C 1522.57 1669.08 1523.05 1668.53 1523.4 1667.82 C 1523.76 1667.12 1523.63 1666.01 1523.03 1664.51 C 1521.52 1661.09 1518.9 1658.77 1515.18 1657.57 L 1515.03 1657.57 C 1513.42 1657.17 1512.29 1657.17 1511.64 1657.57 C 1510.98 1657.97 1510.51 1658.52 1510.21 1659.23 C 1509.9 1659.83 1509.45 1660.38 1508.85 1660.89 L 1504.63 1665.86 L 1496.48 1676.27 C 1492.49 1681.44 1488.75 1686.86 1485.25 1692.52 C 1483.33 1692.4 1481.55 1692.61 1479.89 1693.16 C 1478.78 1693.47 1477.72 1693.67 1476.72 1693.77 C 1472.19 1694.88 1467.87 1696.23 1463.75 1697.84 C 1455.5 1701.16 1447.51 1704.83 1439.77 1708.85 C 1424.08 1716.69 1408.74 1725.14 1393.76 1734.19 C 1392.05 1735.3 1390.34 1736.35 1388.63 1737.36 C 1387.22 1738.36 1385.77 1739.27 1384.26 1740.07 C 1384.86 1739.17 1385.47 1738.26 1386.07 1737.36 C 1392.5 1727.91 1398.79 1718.35 1404.92 1708.7 L 1418.65 1686.38 C 1420.96 1682.66 1423.17 1678.68 1425.29 1674.46 L 1426.19 1672.65 C 1426.19 1672.45 1426.21 1672.3 1426.27 1672.2 C 1426.32 1672.1 1426.34 1672 1426.34 1671.9 C 1426.44 1671.8 1426.54 1671.67 1426.64 1671.52 C 1426.74 1671.37 1426.82 1671.12 1426.87 1670.77 C 1426.92 1670.41 1426.94 1669.91 1426.94 1669.26 C 1426.94 1668.6 1426.89 1667.72 1426.79 1666.62 C 1426.89 1665.71 1426.34 1664.81 1425.13 1663.9 C 1423.93 1663 1422.6 1662.35 1421.14 1661.94 C 1419.68 1661.54 1418.6 1661.69 1417.89 1662.39 C 1417.69 1662.49 1417.54 1662.57 1417.44 1662.62 C 1417.34 1662.67 1417.27 1662.69 1417.22 1662.69 L 1416.99 1662.69 C 1416.99 1662.8 1416.94 1662.85 1416.84 1662.85 L 1415.33 1663.9 L 1414.43 1664.96 L 1413.22 1666.16 C 1412.01 1667.47 1410.6 1668.83 1408.99 1670.24 C 1405.78 1672.85 1402.46 1675.42 1399.04 1677.93 C 1398.14 1678.63 1397.23 1679.29 1396.33 1679.89 C 1393.21 1677.17 1389.66 1675.39 1385.69 1674.54 C 1381.72 1673.68 1377.82 1673.1 1374 1672.8 C 1373.2 1672.8 1372.39 1672.75 1371.59 1672.65 C 1361.73 1672.55 1352.23 1674.36 1343.08 1678.08 C 1333.73 1681.7 1325.78 1687.73 1319.25 1696.18 C 1317.33 1698.9 1315.78 1701.8 1314.58 1704.86 L 1305.37 1707.49 L 1286.37 1712.92 C 1273.7 1716.44 1260.93 1719.21 1248.06 1721.22 C 1241.82 1722.23 1235.46 1722.78 1228.97 1722.88 C 1222.49 1722.98 1217.03 1721.67 1212.61 1718.96 C 1209.39 1716.04 1208.99 1711.57 1211.4 1705.53 C 1212.71 1702.01 1214.57 1698.69 1216.98 1695.58 L 1216.98 1695.88 C 1216.48 1697.39 1216.38 1698.95 1216.68 1700.56 C 1216.88 1701.56 1217.16 1702.27 1217.51 1702.67 C 1217.86 1703.07 1218.24 1703.3 1218.64 1703.35 C 1219.04 1703.4 1219.4 1703.42 1219.7 1703.42 L 1220.15 1703.42 C 1221.26 1703.32 1222.31 1703.22 1223.32 1703.12 C 1225.23 1702.92 1227.04 1702.62 1228.75 1702.21 C 1228.85 1702.21 1228.9 1702.16 1228.9 1702.06 C 1232.52 1701.26 1235.99 1700.31 1239.31 1699.2 C 1245.94 1696.79 1252.33 1693.87 1258.46 1690.45 C 1264.6 1687.03 1270.33 1683.01 1275.66 1678.38 C 1276.96 1677.08 1278.27 1675.87 1279.58 1674.76 C 1281.59 1673.15 1283.52 1671.27 1285.39 1669.11 C 1287.25 1666.94 1288.88 1663.95 1290.29 1660.13 C 1290.79 1658.83 1290.71 1657.39 1290.06 1655.83 C 1289.41 1654.27 1288.53 1652.92 1287.42 1651.76 C 1286.32 1650.61 1285.21 1650.03 1284.1 1650.03 C 1281.59 1649.32 1279.48 1649.07 1277.77 1649.27 L 1277.02 1649.27 C 1273.19 1649.78 1269.57 1650.53 1266.15 1651.53 C 1259.52 1653.65 1253.13 1656.26 1247 1659.38 C 1234.53 1665.51 1223.52 1673.76 1213.97 1684.11 C 1209.24 1689.44 1205.62 1695.63 1203.11 1702.67 C 1201.7 1705.98 1201.12 1709.86 1201.37 1714.28 C 1201.62 1718.71 1203.66 1722.48 1207.48 1725.59 C 1213.61 1729.01 1219.57 1730.8 1225.36 1730.95 C 1231.14 1731.1 1236.84 1730.72 1242.47 1729.82 C 1244.79 1729.52 1247.05 1729.27 1249.26 1729.06 C 1262.54 1726.65 1275.56 1723.58 1288.33 1719.86 L 1307.33 1714.28 L 1312.46 1712.65 C 1312.41 1712.89 1312.37 1713.14 1312.31 1713.38 C 1312.11 1714.18 1311.96 1715.06 1311.86 1716.02 C 1311.76 1716.97 1311.76 1718.15 1311.86 1719.56 C 1311.86 1721.67 1312.69 1723.88 1314.35 1726.2 C 1316.01 1728.51 1318.04 1729.97 1320.46 1730.57 C 1323.77 1731.38 1326.59 1731.63 1328.9 1731.33 C 1331.21 1731.02 1333.33 1730.57 1335.24 1729.97 C 1336.04 1729.77 1336.9 1729.57 1337.8 1729.37 C 1342.33 1727.86 1346.65 1726.1 1350.77 1724.09 C 1358.92 1720.27 1366.81 1716.04 1374.45 1711.41 C 1382.4 1706.49 1390.14 1701.36 1397.68 1696.03 L 1394.06 1702.06 C 1384.91 1716.75 1375.56 1731.33 1366.01 1745.81 C 1364.7 1747.71 1363.39 1749.63 1362.09 1751.54 C 1361.08 1753.05 1360.02 1754.55 1358.92 1756.06 C 1341.02 1767.63 1323.47 1779.69 1306.28 1792.26 C 1292.2 1802.62 1278.58 1813.68 1265.4 1825.45 C 1258.76 1831.28 1252.43 1837.56 1246.4 1844.3 C 1245.49 1845.51 1244.54 1846.71 1243.53 1847.92 C 1241.02 1850.73 1238.73 1853.85 1236.67 1857.27 C 1234.61 1860.69 1233.27 1864.91 1232.67 1869.94 C 1232.67 1874.97 1234.03 1880 1236.74 1885.03 C 1238.35 1887.94 1240.89 1889.93 1244.36 1890.98 C 1247.83 1892.04 1250.92 1892.06 1253.64 1891.06 C 1258.36 1889.55 1262.54 1887.56 1266.15 1885.1 C 1269.78 1882.63 1273.15 1880 1276.26 1877.18 C 1276.66 1876.78 1277.12 1876.38 1277.62 1875.97 C 1290.69 1863.81 1302.71 1850.88 1313.67 1837.21 C 1334.79 1811.07 1354.69 1784.17 1373.4 1756.52 C 1375.81 1754.9 1378.23 1753.3 1380.64 1751.69 C 1386.27 1747.97 1391.95 1744.35 1397.68 1740.83 C 1412.46 1731.68 1427.55 1723.13 1442.93 1715.19 C 1450.58 1711.16 1458.37 1707.55 1466.31 1704.33 C 1470.33 1702.72 1474.31 1701.36 1478.23 1700.25 C 1479.15 1699.97 1480.09 1699.77 1481.04 1699.63 C 1478.95 1703.33 1477.15 1707.46 1475.66 1712.02 C 1474.96 1714.33 1474.58 1717.2 1474.53 1720.62 C 1474.48 1724.04 1475.92 1727.45 1478.83 1730.87 C 1481.95 1733.29 1484.94 1734.69 1487.81 1735.1 C 1490.67 1735.5 1493.26 1735.6 1495.58 1735.4 L 1496.03 1735.4 C 1500.95 1734.99 1505.58 1734.19 1509.9 1732.98 C 1526.39 1728.16 1542.18 1722.1 1557.27 1714.81 C 1568.2 1709.52 1578.98 1704.03 1589.6 1698.35 L 1580.49 1711.11 L 1576.57 1716.69 L 1574.46 1719.41 C 1574.36 1719.61 1574.21 1719.91 1574.01 1720.31 C 1574.01 1720.41 1573.98 1720.52 1573.93 1720.62 C 1573.88 1720.72 1573.81 1720.82 1573.71 1720.92 C 1573.61 1721.02 1573.48 1721.25 1573.33 1721.6 C 1573.18 1721.95 1573.1 1722.5 1573.1 1723.26 C 1573.1 1724.01 1573.31 1725.14 1573.71 1726.65 C 1575.02 1728.36 1576.14 1729.52 1577.1 1730.12 C 1578.06 1730.72 1578.84 1731.02 1579.44 1731.02 C 1580.04 1731.02 1580.49 1730.92 1580.8 1730.72 L 1581.1 1730.72 C 1581.2 1730.72 1581.25 1730.77 1581.25 1730.87 C 1581.55 1730.77 1581.8 1730.7 1582 1730.65 C 1582.2 1730.6 1582.36 1730.57 1582.45 1730.57 C 1582.86 1730.47 1583.16 1730.37 1583.36 1730.27 L 1583.81 1729.97 C 1584.21 1729.77 1584.57 1729.57 1584.87 1729.37 C 1585.47 1729.06 1586.03 1728.76 1586.53 1728.46 C 1588.64 1727.15 1590.65 1725.89 1592.56 1724.69 L 1598.29 1720.92 C 1606.04 1715.99 1613.83 1711.21 1621.67 1706.59 C 1629.62 1701.96 1637.61 1697.64 1645.65 1693.62 C 1653.7 1689.39 1661.89 1685.87 1670.24 1683.06 C 1674.36 1681.65 1678.43 1680.64 1682.46 1680.04 C 1683.26 1679.94 1684.02 1679.84 1684.72 1679.74 L 1681.1 1684.27 C 1679.59 1686.08 1678.13 1687.94 1676.73 1689.85 C 1675.22 1691.86 1673.86 1694.02 1672.65 1696.33 C 1671.95 1697.54 1671.35 1698.85 1670.84 1700.25 C 1670.34 1701.66 1670.04 1703.27 1669.94 1705.08 C 1669.74 1706.99 1670.09 1708.95 1670.99 1710.96 C 1672 1712.87 1673.26 1714.38 1674.77 1715.49 C 1676.28 1716.49 1677.68 1717.2 1678.99 1717.6 C 1680.3 1718.1 1681.55 1718.56 1682.76 1718.96 C 1685.27 1719.66 1687.74 1720.16 1690.15 1720.46 C 1694.98 1721.17 1699.8 1721.52 1704.63 1721.52 C 1709.36 1721.52 1714.08 1721.37 1718.81 1721.07 C 1728.16 1720.57 1737.41 1719.66 1746.56 1718.35 C 1755.81 1717.05 1765.01 1715.54 1774.16 1713.83 C 1792.37 1710.41 1810.46 1706.54 1828.47 1702.21 C 1837.41 1700 1846.36 1697.74 1855.32 1695.43 C 1864.26 1693.11 1873.21 1690.65 1882.16 1688.04 C 1882.97 1687.84 1883.57 1687.36 1883.97 1686.6 C 1884.37 1685.85 1884.47 1685.07 1884.28 1684.27" clip-path="url(#clipPath18)"/>
  <path id="path92" style="fill: rgb(255, 255, 255); fill-opacity: 1; fill-rule: nonzero; stroke: none; stroke-width: 1.333;" d="M 1416.87 1821.06 L 1428.09 1821.06 C 1431.32 1821.06 1433.82 1820.31 1435.58 1818.8 C 1437.35 1817.3 1438.23 1814.9 1438.23 1811.59 L 1438.23 1810.37 C 1438.23 1807.01 1437.35 1804.64 1435.58 1803.26 C 1433.82 1801.89 1431.32 1801.2 1428.09 1801.2 L 1416.87 1801.2 L 1416.87 1821.06 Z M 1416.87 1794.79 L 1427.64 1794.79 C 1430.69 1794.79 1432.95 1794.12 1434.42 1792.8 C 1435.88 1791.48 1436.61 1789.51 1436.61 1786.92 C 1436.61 1785.19 1436.24 1783.79 1435.49 1782.72 C 1434.74 1781.65 1433.68 1780.86 1432.31 1780.35 C 1430.93 1779.84 1429.31 1779.59 1427.46 1779.59 L 1416.87 1779.59 L 1416.87 1794.79 Z M 1411.66 1828.24 C 1410.4 1828.24 1409.38 1827.98 1408.61 1827.47 C 1407.83 1826.96 1407.44 1826.35 1407.44 1825.64 L 1407.44 1775.08 C 1407.44 1774.21 1407.89 1773.55 1408.79 1773.09 C 1409.68 1772.64 1410.64 1772.41 1411.66 1772.41 L 1428 1772.41 C 1431.23 1772.41 1434.22 1772.76 1436.97 1773.48 C 1439.72 1774.19 1441.94 1775.5 1443.62 1777.41 C 1445.29 1779.32 1446.13 1782.06 1446.13 1785.62 C 1446.13 1788.83 1445.46 1791.48 1444.11 1793.56 C 1442.76 1795.65 1440.89 1797.13 1438.5 1797.99 C 1440.35 1798.6 1441.97 1799.4 1443.35 1800.4 C 1444.72 1801.39 1445.8 1802.72 1446.58 1804.37 C 1447.36 1806.03 1447.75 1808.15 1447.75 1810.75 L 1447.75 1812.2 C 1447.75 1816.12 1446.97 1819.25 1445.41 1821.59 C 1443.85 1823.93 1441.73 1825.63 1439.04 1826.67 C 1436.35 1827.71 1433.29 1828.24 1429.88 1828.24 L 1411.66 1828.24 Z" clip-path="url(#clipPath18)"/>
  <path id="path96" style="fill: rgb(255, 255, 255); fill-opacity: 1; fill-rule: nonzero; stroke: none; stroke-width: 1.333;" d="M 1461.84 1828.24 C 1460.64 1828.24 1459.55 1828.02 1458.56 1827.59 C 1457.58 1827.15 1457.08 1826.48 1457.08 1825.56 L 1457.08 1775 C 1457.08 1774.09 1457.58 1773.43 1458.56 1773.02 C 1459.55 1772.61 1460.64 1772.41 1461.84 1772.41 C 1463.04 1772.41 1464.13 1772.61 1465.12 1773.02 C 1466.1 1773.43 1466.6 1774.09 1466.6 1775 L 1466.6 1825.56 C 1466.6 1826.48 1466.1 1827.15 1465.12 1827.59 C 1464.13 1828.02 1463.04 1828.24 1461.84 1828.24" clip-path="url(#clipPath18)"/>
  <path id="path100" style="fill: rgb(255, 255, 255); fill-opacity: 1; fill-rule: nonzero; stroke: none; stroke-width: 1.333;" d="M 1483.2 1828.24 C 1482.01 1828.24 1480.91 1828.01 1479.93 1827.55 C 1478.94 1827.09 1478.44 1826.43 1478.44 1825.56 L 1478.44 1775 C 1478.44 1774.09 1478.94 1773.43 1479.93 1773.02 C 1480.91 1772.61 1482.01 1772.41 1483.2 1772.41 C 1484.4 1772.41 1485.49 1772.61 1486.48 1773.02 C 1487.47 1773.43 1487.96 1774.09 1487.96 1775 L 1487.96 1798.22 L 1509.87 1773.55 C 1510.52 1772.79 1511.42 1772.41 1512.56 1772.41 C 1513.33 1772.41 1514.16 1772.61 1515.03 1773.02 C 1515.89 1773.43 1516.61 1773.95 1517.18 1774.58 C 1517.75 1775.22 1518.03 1775.89 1518.03 1776.61 C 1518.03 1776.81 1517.97 1777.07 1517.85 1777.37 C 1517.73 1777.68 1517.55 1777.96 1517.32 1778.21 L 1500.08 1796.54 L 1520.55 1823.04 C 1520.91 1823.5 1521.09 1823.99 1521.09 1824.49 C 1521.09 1825.16 1520.82 1825.79 1520.28 1826.4 C 1519.74 1827.01 1519.04 1827.51 1518.17 1827.89 C 1517.3 1828.28 1516.42 1828.47 1515.52 1828.47 C 1514.86 1828.47 1514.23 1828.35 1513.63 1828.12 C 1513.04 1827.89 1512.53 1827.5 1512.11 1826.94 L 1493.8 1803.34 L 1487.96 1809.6 L 1487.96 1825.56 C 1487.96 1826.43 1487.47 1827.09 1486.48 1827.55 C 1485.49 1828.01 1484.4 1828.24 1483.2 1828.24" clip-path="url(#clipPath18)"/>
  <path id="path104" style="fill: rgb(255, 255, 255); fill-opacity: 1; fill-rule: nonzero; stroke: none; stroke-width: 1.333;" d="M 1531.32 1828.24 C 1530.3 1828.24 1529.34 1828.01 1528.45 1827.55 C 1527.55 1827.09 1527.1 1826.43 1527.1 1825.56 L 1527.1 1775.08 C 1527.1 1774.21 1527.55 1773.55 1528.45 1773.09 C 1529.34 1772.64 1530.3 1772.41 1531.32 1772.41 L 1563.28 1772.41 C 1564.41 1772.41 1565.22 1772.79 1565.7 1773.55 C 1566.18 1774.32 1566.42 1775.11 1566.42 1775.92 C 1566.42 1776.89 1566.15 1777.74 1565.61 1778.48 C 1565.07 1779.22 1564.29 1779.59 1563.28 1779.59 L 1536.62 1779.59 L 1536.62 1797.08 L 1550.44 1797.08 C 1551.46 1797.08 1552.23 1797.41 1552.77 1798.07 C 1553.31 1798.73 1553.58 1799.49 1553.58 1800.36 C 1553.58 1801.07 1553.34 1801.77 1552.86 1802.46 C 1552.38 1803.15 1551.58 1803.49 1550.44 1803.49 L 1536.62 1803.49 L 1536.62 1821.06 L 1563.28 1821.06 C 1564.29 1821.06 1565.07 1821.41 1565.61 1822.13 C 1566.15 1822.84 1566.42 1823.71 1566.42 1824.72 C 1566.42 1825.54 1566.18 1826.33 1565.7 1827.09 C 1565.22 1827.86 1564.41 1828.24 1563.28 1828.24 L 1531.32 1828.24 Z" clip-path="url(#clipPath18)"/>
  <path id="path108" style="fill: rgb(255, 255, 255); fill-opacity: 1; fill-rule: nonzero; stroke: none; stroke-width: 1.333;" d="M 1596.67 1828.24 C 1595.47 1828.24 1594.38 1828.02 1593.39 1827.59 C 1592.41 1827.15 1591.91 1826.48 1591.91 1825.56 L 1591.91 1775.08 C 1591.91 1774.21 1592.36 1773.55 1593.26 1773.09 C 1594.16 1772.64 1595.11 1772.41 1596.13 1772.41 L 1627.64 1772.41 C 1628.72 1772.41 1629.49 1772.79 1629.97 1773.55 C 1630.45 1774.32 1630.69 1775.11 1630.69 1775.92 C 1630.69 1776.89 1630.44 1777.74 1629.93 1778.48 C 1629.42 1779.22 1628.66 1779.59 1627.64 1779.59 L 1601.43 1779.59 L 1601.43 1797.08 L 1615.34 1797.08 C 1616.36 1797.08 1617.12 1797.41 1617.63 1798.07 C 1618.14 1798.73 1618.39 1799.49 1618.39 1800.36 C 1618.39 1801.07 1618.15 1801.77 1617.68 1802.46 C 1617.19 1803.15 1616.42 1803.49 1615.34 1803.49 L 1601.43 1803.49 L 1601.43 1825.56 C 1601.43 1826.48 1600.93 1827.15 1599.95 1827.59 C 1598.96 1828.02 1597.87 1828.24 1596.67 1828.24" clip-path="url(#clipPath18)"/>
  <path id="path112" style="fill: rgb(255, 255, 255); fill-opacity: 1; fill-rule: nonzero; stroke: none; stroke-width: 1.333;" d="M 1641.91 1828.24 C 1640.71 1828.24 1639.62 1828.02 1638.64 1827.59 C 1637.65 1827.15 1637.15 1826.48 1637.15 1825.56 L 1637.15 1775 C 1637.15 1774.09 1637.65 1773.43 1638.64 1773.02 C 1639.62 1772.61 1640.71 1772.41 1641.91 1772.41 C 1643.11 1772.41 1644.2 1772.61 1645.19 1773.02 C 1646.18 1773.43 1646.67 1774.09 1646.67 1775 L 1646.67 1825.56 C 1646.67 1826.48 1646.18 1827.15 1645.19 1827.59 C 1644.2 1828.02 1643.11 1828.24 1641.91 1828.24" clip-path="url(#clipPath18)"/>
  <path id="path116" style="fill: rgb(255, 255, 255); fill-opacity: 1; fill-rule: nonzero; stroke: none; stroke-width: 1.333;" d="M 1675.31 1828.24 C 1674.11 1828.24 1673.02 1828.01 1672.03 1827.55 C 1671.04 1827.09 1670.55 1826.43 1670.55 1825.56 L 1670.55 1779.82 L 1656.63 1779.82 C 1655.68 1779.82 1654.93 1779.43 1654.39 1778.67 C 1653.85 1777.91 1653.58 1777.04 1653.58 1776.07 C 1653.58 1775.16 1653.82 1774.32 1654.3 1773.55 C 1654.78 1772.79 1655.56 1772.41 1656.63 1772.41 L 1693.89 1772.41 C 1695.03 1772.41 1695.83 1772.79 1696.31 1773.55 C 1696.79 1774.32 1697.03 1775.13 1697.03 1776 C 1697.03 1777.02 1696.78 1777.91 1696.27 1778.67 C 1695.76 1779.43 1694.97 1779.82 1693.89 1779.82 L 1680.07 1779.82 L 1680.07 1825.56 C 1680.07 1826.43 1679.57 1827.09 1678.58 1827.55 C 1677.6 1828.01 1676.5 1828.24 1675.31 1828.24" clip-path="url(#clipPath18)"/>
  <path id="path120" style="fill: rgb(255, 255, 255); fill-opacity: 1; fill-rule: nonzero; stroke: none; stroke-width: 1.333;" d="M 1720.73 1828.24 C 1719.53 1828.24 1718.44 1828.01 1717.45 1827.55 C 1716.46 1827.09 1715.97 1826.43 1715.97 1825.56 L 1715.97 1779.82 L 1702.06 1779.82 C 1701.1 1779.82 1700.35 1779.43 1699.81 1778.67 C 1699.27 1777.91 1699.01 1777.04 1699.01 1776.07 C 1699.01 1775.16 1699.24 1774.32 1699.72 1773.55 C 1700.2 1772.79 1700.98 1772.41 1702.06 1772.41 L 1739.31 1772.41 C 1740.45 1772.41 1741.26 1772.79 1741.74 1773.55 C 1742.21 1774.32 1742.45 1775.13 1742.45 1776 C 1742.45 1777.02 1742.2 1777.91 1741.69 1778.67 C 1741.18 1779.43 1740.39 1779.82 1739.31 1779.82 L 1725.49 1779.82 L 1725.49 1825.56 C 1725.49 1826.43 1724.99 1827.09 1724.01 1827.55 C 1723.02 1828.01 1721.93 1828.24 1720.73 1828.24" clip-path="url(#clipPath18)"/>
  <path id="path124" style="fill: rgb(255, 255, 255); fill-opacity: 1; fill-rule: nonzero; stroke: none; stroke-width: 1.333;" d="M 1754.12 1828.24 C 1752.92 1828.24 1751.83 1828.02 1750.85 1827.59 C 1749.86 1827.15 1749.36 1826.48 1749.36 1825.56 L 1749.36 1775 C 1749.36 1774.09 1749.86 1773.43 1750.85 1773.02 C 1751.83 1772.61 1752.92 1772.41 1754.12 1772.41 C 1755.32 1772.41 1756.41 1772.61 1757.4 1773.02 C 1758.39 1773.43 1758.88 1774.09 1758.88 1775 L 1758.88 1825.56 C 1758.88 1826.48 1758.39 1827.15 1757.4 1827.59 C 1756.41 1828.02 1755.32 1828.24 1754.12 1828.24" clip-path="url(#clipPath18)"/>
  <path id="path128" style="fill: rgb(255, 255, 255); fill-opacity: 1; fill-rule: nonzero; stroke: none; stroke-width: 1.333;" d="M 1775.49 1828.24 C 1774.29 1828.24 1773.2 1828.01 1772.21 1827.55 C 1771.22 1827.09 1770.73 1826.43 1770.73 1825.56 L 1770.73 1775.08 C 1770.73 1774.11 1771.22 1773.43 1772.21 1773.02 C 1773.2 1772.61 1774.29 1772.41 1775.49 1772.41 C 1776.62 1772.41 1777.6 1772.55 1778.4 1772.83 C 1779.21 1773.11 1779.94 1773.58 1780.61 1774.24 C 1781.26 1774.9 1781.95 1775.82 1782.67 1776.99 L 1802.6 1810.06 L 1802.6 1775 C 1802.6 1774.09 1803.09 1773.43 1804.08 1773.02 C 1805.07 1772.61 1806.16 1772.41 1807.36 1772.41 C 1808.55 1772.41 1809.64 1772.61 1810.63 1773.02 C 1811.62 1773.43 1812.11 1774.09 1812.11 1775 L 1812.11 1825.56 C 1812.11 1826.43 1811.62 1827.09 1810.63 1827.55 C 1809.64 1828.01 1808.55 1828.24 1807.36 1828.24 C 1806.16 1828.24 1805.08 1827.98 1804.12 1827.47 C 1803.17 1826.96 1802.36 1826.23 1801.7 1825.26 L 1780.24 1790.51 L 1780.24 1825.56 C 1780.24 1826.43 1779.75 1827.09 1778.76 1827.55 C 1777.78 1828.01 1776.68 1828.24 1775.49 1828.24" clip-path="url(#clipPath18)"/>
  <path id="path132" style="fill: rgb(255, 255, 255); fill-opacity: 1; fill-rule: nonzero; stroke: none; stroke-width: 1.333;" d="M 1843.44 1828.69 C 1839.61 1828.69 1836.18 1828.13 1833.16 1827.01 C 1830.14 1825.89 1827.74 1824.09 1825.98 1821.59 C 1824.21 1819.1 1823.33 1815.79 1823.33 1811.66 L 1823.33 1789.44 C 1823.33 1785.31 1824.21 1782.01 1825.98 1779.51 C 1827.74 1777.02 1830.14 1775.21 1833.16 1774.09 C 1836.18 1772.97 1839.52 1772.41 1843.17 1772.41 C 1847.24 1772.41 1850.8 1772.99 1853.85 1774.16 C 1856.91 1775.34 1859.3 1776.96 1861.04 1779.05 C 1862.77 1781.14 1863.64 1783.63 1863.64 1786.54 C 1863.64 1788.06 1863.23 1789.09 1862.43 1789.63 C 1861.62 1790.16 1860.44 1790.43 1858.88 1790.43 C 1857.62 1790.43 1856.53 1790.24 1855.61 1789.86 C 1854.68 1789.48 1854.18 1788.78 1854.12 1787.76 C 1853.94 1786.28 1853.52 1784.92 1852.87 1783.67 C 1852.21 1782.42 1851.13 1781.43 1849.63 1780.69 C 1848.14 1779.96 1846.07 1779.59 1843.44 1779.59 C 1840.09 1779.59 1837.47 1780.39 1835.59 1781.99 C 1833.7 1783.6 1832.76 1786.08 1832.76 1789.44 L 1832.76 1811.66 C 1832.76 1815.02 1833.7 1817.51 1835.59 1819.11 C 1837.47 1820.71 1840.09 1821.52 1843.44 1821.52 C 1846.73 1821.52 1849.33 1820.71 1851.25 1819.11 C 1853.16 1817.51 1854.12 1815.02 1854.12 1811.66 L 1854.12 1805.4 L 1845.06 1805.4 C 1844.1 1805.4 1843.35 1805.07 1842.81 1804.41 C 1842.27 1803.75 1842.01 1802.98 1842.01 1802.12 C 1842.01 1801.35 1842.27 1800.63 1842.81 1799.94 C 1843.35 1799.25 1844.1 1798.91 1845.06 1798.91 L 1860.5 1798.91 C 1861.51 1798.91 1862.29 1799.18 1862.83 1799.71 C 1863.37 1800.24 1863.64 1800.89 1863.64 1801.66 L 1863.64 1811.66 C 1863.64 1815.79 1862.74 1819.1 1860.95 1821.59 C 1859.15 1824.09 1856.73 1825.89 1853.67 1827.01 C 1850.62 1828.13 1847.21 1828.69 1843.44 1828.69" clip-path="url(#clipPath18)"/>
  <path id="path136" style="fill: rgb(35, 31, 32); fill-opacity: 1; fill-rule: nonzero; stroke: none; stroke-width: 1.333;" d="M -177.67 1671.29 C -175.66 1665.76 -177.87 1661.04 -184.3 1657.12 C -187.02 1658.52 -189.78 1659.88 -192.6 1661.19 C -198.33 1664 -204.06 1666.97 -209.79 1670.09 C -243.08 1687.48 -274.65 1706.94 -304.52 1728.46 C -312.16 1734.09 -318.39 1739.87 -323.22 1745.81 L -323.22 1745.96 L -323.37 1745.96 C -320.36 1746.66 -316.74 1746.81 -312.51 1746.41 C -294.92 1744.4 -277.47 1739.97 -260.17 1733.14 C -242.98 1726.6 -226.84 1718.3 -211.75 1708.25 C -195.67 1697.99 -184.3 1685.67 -177.67 1671.29 M -71.328 1506.43 C -69.921 1507.24 -68.613 1508.44 -67.407 1510.05 C -66.2 1511.66 -65.547 1513.37 -65.445 1515.18 C -65.144 1518.4 -65.472 1521.16 -66.427 1523.48 C -67.383 1525.79 -68.515 1527.85 -69.82 1529.66 C -70.223 1530.26 -70.575 1530.82 -70.876 1531.32 C -73.892 1535.34 -77.112 1539.06 -80.529 1542.48 C -87.368 1549.22 -94.507 1555.55 -101.95 1561.48 C -102.75 1562.09 -103.61 1562.34 -104.51 1562.24 C -105.42 1562.14 -106.22 1561.69 -106.92 1560.88 C -107.53 1560.18 -107.78 1559.35 -107.68 1558.39 C -107.58 1557.44 -107.18 1556.61 -106.47 1555.9 C -99.33 1549.87 -92.648 1543.54 -86.412 1536.9 C -83.296 1533.48 -80.529 1530.01 -78.116 1526.49 C -76.909 1524.68 -75.929 1522.87 -75.175 1521.06 C -74.42 1519.25 -74.195 1517.8 -74.496 1516.69 C -74.597 1515.48 -75.679 1514.55 -77.739 1513.9 C -79.801 1513.24 -82.339 1512.84 -85.356 1512.69 C -88.372 1512.54 -91.291 1512.67 -94.104 1513.07 C -103.06 1514.08 -112 1515.73 -120.95 1518.05 C -156.95 1527.4 -191.34 1540.87 -224.12 1558.47 C -240.92 1566.92 -255.65 1577.22 -268.32 1589.39 C -271.33 1592.51 -273.75 1595.72 -275.56 1599.04 C -277.37 1602.36 -277.82 1604.93 -276.92 1606.74 C -276.01 1608.95 -273.8 1611.06 -270.28 1613.07 C -266.76 1615.08 -262.89 1616.74 -258.66 1618.05 C -248.81 1621.17 -238.5 1623.93 -227.74 1626.34 C -220.1 1628.06 -212.41 1629.96 -204.66 1632.08 C -196.72 1634.19 -188.83 1637.26 -180.99 1641.28 C -178.67 1640.27 -176.41 1639.16 -174.2 1637.96 C -171.18 1636.45 -168.12 1634.99 -165 1633.59 C -161.58 1632.18 -158.21 1630.77 -154.89 1629.36 C -141.52 1622.72 -126.44 1617.85 -109.64 1614.73 C -108.13 1614.53 -106.83 1614.86 -105.72 1615.71 C -104.61 1616.57 -103.91 1617.75 -103.61 1619.26 C -103.41 1620.76 -103.73 1622.07 -104.59 1623.18 C -105.44 1624.29 -106.58 1624.99 -107.98 1625.29 L -109.64 1625.59 C -124.62 1629.01 -140.16 1634.79 -156.25 1642.94 C -157.46 1643.54 -158.66 1644.09 -159.87 1644.6 C -161.58 1645.4 -163.29 1646.26 -165 1647.16 C -166.41 1647.96 -167.81 1648.72 -169.22 1649.42 C -167.21 1651.43 -165.5 1653.8 -164.09 1656.51 C -162.48 1659.53 -161.63 1662.77 -161.53 1666.24 C -161.43 1669.71 -161.88 1672.85 -162.88 1675.67 C -172.54 1695.78 -185.96 1710.81 -203.16 1720.77 C -219.55 1731.53 -236.79 1740.28 -254.89 1747.01 C -272.79 1754.15 -291.65 1758.78 -311.46 1760.89 C -316.38 1761.49 -321.92 1761.09 -328.05 1759.68 C -328.35 1759.58 -328.6 1759.48 -328.8 1759.38 C -330.41 1758.88 -332.12 1758 -333.93 1756.74 C -335.74 1755.48 -337.15 1753.35 -338.15 1750.33 C -338.66 1747.41 -338.53 1744.95 -337.78 1742.94 C -337.02 1740.93 -336.25 1739.37 -335.44 1738.26 C -328.4 1729.52 -321.01 1722.48 -313.27 1717.15 C -282.1 1694.92 -249.67 1675.32 -215.98 1658.32 C -212.76 1656.61 -209.49 1655 -206.18 1653.49 C -203.76 1652.39 -201.4 1651.23 -199.09 1650.03 C -202.4 1648.92 -205.67 1647.86 -208.89 1646.86 C -216.03 1644.85 -223.37 1642.94 -230.91 1641.13 C -241.67 1638.62 -252.58 1635.55 -263.64 1631.92 C -263.85 1631.83 -264.05 1631.72 -264.25 1631.62 C -268.67 1630.12 -273.14 1628 -277.67 1625.29 C -279.98 1623.98 -282.3 1622.27 -284.61 1620.16 C -286.92 1618.05 -288.78 1615.28 -290.19 1611.87 C -291.5 1608.14 -291.82 1604.6 -291.17 1601.23 C -290.52 1597.86 -289.49 1594.97 -288.08 1592.56 C -285.26 1587.63 -282 1583.41 -278.27 1579.89 C -263.49 1566.31 -247.5 1555.35 -230.31 1547.01 C -196.32 1529.51 -160.72 1516.24 -123.52 1507.18 C -114.27 1504.97 -104.72 1503.52 -94.859 1502.81 C -89.933 1502.41 -84.853 1502.61 -79.624 1503.41 C -79.323 1503.52 -79.021 1503.62 -78.719 1503.72 C -76.305 1504.02 -73.843 1504.92 -71.328 1506.43" clip-path="url(#clipPath18)"/>
  <path id="path140" style="fill: rgb(35, 31, 32); fill-opacity: 1; fill-rule: nonzero; stroke: none; stroke-width: 1.333;" d="M 215.71 1639.47 L 216.465 1639.47 C 219.381 1639.47 221.693 1638.11 223.402 1635.39 C 224.105 1634.29 225.237 1632.86 226.797 1631.1 C 228.354 1629.34 229.686 1627.9 230.794 1626.8 C 232.302 1625.19 233.005 1623.33 232.905 1621.22 C 232.803 1619.1 232.001 1617.29 230.491 1615.79 C 228.781 1614.28 226.895 1613.55 224.835 1613.6 C 222.774 1613.65 220.938 1614.48 219.33 1616.09 C 216.815 1618.7 214.829 1620.89 213.373 1622.65 C 211.914 1624.41 210.857 1625.79 210.205 1626.8 C 209.55 1627.8 209.123 1628.61 208.922 1629.21 C 208.721 1629.81 208.621 1630.37 208.621 1630.87 C 208.418 1633.08 208.998 1634.99 210.355 1636.6 C 211.713 1638.21 213.498 1639.17 215.71 1639.47" clip-path="url(#clipPath18)"/>
  <path id="path144" style="fill: rgb(35, 31, 32); fill-opacity: 1; fill-rule: nonzero; stroke: none; stroke-width: 1.333;" d="M -25.324 1830.27 C -36.082 1843.95 -47.596 1856.62 -59.865 1868.28 C -66.2 1874.41 -72.736 1878.74 -79.473 1881.26 C -81.081 1881.65 -82.313 1881.76 -83.169 1881.56 C -84.022 1881.35 -84.802 1880.7 -85.506 1879.6 C -86.209 1878.49 -86.789 1877.01 -87.241 1875.15 C -87.693 1873.29 -87.969 1871.5 -88.07 1869.79 C -87.869 1866.97 -86.638 1863.83 -84.376 1860.36 C -82.113 1856.89 -79.624 1853.6 -76.909 1850.48 C -71.377 1844.15 -65.394 1838.07 -58.96 1832.23 C -46.188 1820.67 -32.865 1809.71 -18.989 1799.35 C -7.525 1790.8 4.088 1782.51 15.854 1774.46 C 2.68 1793.57 -11.044 1812.17 -25.324 1830.27 M 49.943 1690.9 C 45.618 1693.82 41.195 1696.63 36.67 1699.35 C 29.328 1703.77 21.887 1707.75 14.346 1711.27 C 11.127 1712.77 7.759 1714.06 4.24 1715.11 C 0.719 1716.17 -1.996 1716.75 -3.905 1716.85 L -3.905 1716.24 C -3.705 1715.44 -3.554 1714.68 -3.453 1713.98 C -2.75 1710.76 -1.341 1707.75 0.771 1704.93 C 5.092 1699.3 10.926 1695.08 18.267 1692.26 C 25.508 1689.34 32.998 1687.99 40.742 1688.19 C 44.663 1688.09 48.334 1688.64 51.752 1689.85 C 51.15 1690.15 50.546 1690.5 49.943 1690.9 M -78.87 1668.88 C -73.138 1666.07 -67.308 1663.8 -61.373 1662.09 C -58.458 1661.29 -55.693 1660.79 -53.077 1660.58 C -54.185 1661.89 -55.592 1663.35 -57.301 1664.96 C -59.012 1666.57 -60.67 1667.97 -62.278 1669.18 C -67.308 1672.9 -72.636 1676.07 -78.266 1678.68 C -83.9 1681.4 -89.681 1683.61 -95.613 1685.32 C -98.629 1686.13 -101.6 1686.78 -104.51 1687.28 L -105.12 1687.28 C -105.32 1687.28 -105.52 1687.33 -105.72 1687.43 C -97.776 1679.99 -88.825 1673.81 -78.87 1668.88 M 83.428 1667.37 C 83.527 1667.37 83.579 1667.4 83.579 1667.45 C 83.579 1667.5 83.527 1667.52 83.428 1667.52 L 83.428 1667.37 Z M 553.73 1684.27 C 553.527 1683.36 553.051 1682.68 552.298 1682.23 C 551.543 1681.78 550.714 1681.7 549.808 1682 C 532.01 1686.63 514.159 1690.95 496.262 1694.97 C 478.26 1699 460.212 1702.52 442.112 1705.53 C 433.062 1707.04 424.012 1708.35 414.962 1709.45 C 405.811 1710.66 396.711 1711.47 387.662 1711.87 C 383.136 1712.07 378.66 1712.12 374.236 1712.02 C 369.711 1711.92 365.338 1711.52 361.114 1710.81 C 359.003 1710.51 356.94 1710.06 354.93 1709.45 C 354.024 1709.15 353.12 1708.8 352.215 1708.4 C 351.31 1708.1 350.655 1707.8 350.254 1707.49 C 349.952 1707.09 349.75 1706.79 349.651 1706.59 L 349.651 1705.68 C 349.75 1704.58 350.303 1703.17 351.31 1701.46 C 352.314 1699.75 353.471 1698.04 354.779 1696.33 C 356.186 1694.72 357.594 1693.07 359.003 1691.35 C 359.504 1690.75 360.006 1690.2 360.511 1689.69 C 361.515 1688.49 362.571 1687.28 363.678 1686.08 C 364.482 1685.17 365.286 1684.17 366.092 1683.06 C 366.492 1682.56 366.895 1681.95 367.299 1681.25 C 367.699 1680.64 368.102 1679.79 368.504 1678.68 C 368.807 1678.08 369.007 1677.28 369.108 1676.27 C 369.108 1675.67 369.056 1675.01 368.958 1674.31 C 368.755 1673.51 368.404 1672.7 367.902 1671.9 C 367.398 1671.09 366.846 1670.49 366.243 1670.09 C 365.94 1669.89 365.639 1669.69 365.338 1669.48 C 365.035 1669.38 364.783 1669.28 364.583 1669.18 C 364.282 1669.08 364.03 1668.98 363.828 1668.88 L 363.527 1668.88 L 363.376 1668.73 L 362.924 1668.58 C 361.416 1668.28 359.958 1668.08 358.55 1667.97 C 355.734 1667.77 353.068 1667.82 350.555 1668.13 C 345.427 1668.83 340.548 1669.89 335.924 1671.29 C 331.299 1672.8 326.774 1674.46 322.35 1676.27 C 318.026 1678.08 313.7 1679.99 309.378 1682 C 300.931 1686.13 292.635 1690.45 284.491 1694.97 C 281.674 1696.58 278.858 1698.24 276.044 1699.95 L 278.004 1697.24 C 280.719 1693.62 283.484 1689.95 286.3 1686.23 C 287.707 1684.41 289.115 1682.66 290.523 1680.95 C 290.724 1680.55 290.976 1680.19 291.278 1679.89 C 291.679 1679.39 292.082 1678.84 292.484 1678.23 C 292.786 1677.73 292.986 1677.17 293.088 1676.57 C 293.187 1675.87 293.036 1675.06 292.635 1674.16 L 292.635 1673.86 C 291.327 1670.44 288.763 1668.38 284.943 1667.67 C 283.835 1667.57 282.982 1667.67 282.379 1667.97 C 281.674 1668.18 281.12 1668.48 280.719 1668.88 C 280.215 1669.48 279.714 1670.14 279.211 1670.84 C 279.008 1671.14 278.808 1671.44 278.608 1671.75 C 277.198 1673.56 275.791 1675.42 274.384 1677.33 C 272.34 1680.03 270.334 1682.73 268.343 1685.43 C 253.8 1692.17 239.172 1698.57 224.459 1704.63 C 208.67 1711.57 192.682 1717.1 176.492 1721.22 C 174.08 1721.82 171.49 1722.28 168.724 1722.58 C 165.959 1722.88 163.522 1722.95 161.41 1722.8 C 159.298 1722.65 157.99 1722.23 157.487 1721.52 C 157.084 1721.52 157.059 1720.64 157.412 1718.88 C 157.764 1717.12 158.416 1715.01 159.374 1712.55 C 160.328 1710.08 161.56 1707.8 163.068 1705.68 C 167.391 1698.74 172.27 1692.01 177.699 1685.47 L 185.846 1675.82 L 190.068 1670.99 C 190.37 1670.39 190.822 1669.89 191.426 1669.48 C 192.028 1669.08 192.504 1668.53 192.859 1667.82 C 193.21 1667.12 193.086 1666.01 192.482 1664.51 C 190.974 1661.09 188.358 1658.77 184.638 1657.57 L 184.487 1657.57 C 182.878 1657.17 181.746 1657.17 181.094 1657.57 C 180.439 1657.97 179.963 1658.52 179.66 1659.23 C 179.359 1659.83 178.906 1660.38 178.303 1660.89 L 174.08 1665.86 L 165.934 1676.27 C 161.944 1681.44 158.202 1686.86 154.7 1692.52 C 152.788 1692.4 151.002 1692.61 149.343 1693.16 C 148.235 1693.47 147.179 1693.67 146.175 1693.77 C 141.65 1694.88 137.326 1696.23 133.203 1697.84 C 124.958 1701.16 116.963 1704.83 109.22 1708.85 C 93.534 1716.69 78.198 1725.14 63.216 1734.19 C 61.506 1735.3 59.796 1736.35 58.088 1737.36 C 56.678 1738.36 55.222 1739.27 53.714 1740.07 C 54.316 1739.17 54.92 1738.26 55.524 1737.36 C 61.958 1727.91 68.243 1718.35 74.378 1708.7 L 88.104 1686.38 C 90.416 1682.66 92.628 1678.68 94.74 1674.46 L 95.646 1672.65 C 95.646 1672.45 95.67 1672.3 95.722 1672.2 C 95.77 1672.1 95.796 1672 95.796 1671.9 C 95.895 1671.8 95.996 1671.67 96.098 1671.52 C 96.198 1671.37 96.272 1671.12 96.324 1670.77 C 96.374 1670.41 96.399 1669.91 96.399 1669.26 C 96.399 1668.6 96.348 1667.72 96.25 1666.62 C 96.348 1665.71 95.796 1664.81 94.59 1663.9 C 93.383 1663 92.05 1662.35 90.592 1661.94 C 89.134 1661.54 88.052 1661.69 87.35 1662.39 C 87.147 1662.49 86.996 1662.57 86.898 1662.62 C 86.796 1662.67 86.72 1662.69 86.671 1662.69 L 86.444 1662.69 C 86.444 1662.8 86.392 1662.85 86.294 1662.85 L 84.786 1663.9 L 83.88 1664.96 L 82.674 1666.16 C 81.467 1667.47 80.058 1668.83 78.451 1670.24 C 75.231 1672.85 71.912 1675.42 68.495 1677.93 C 67.591 1678.63 66.686 1679.29 65.78 1679.89 C 62.663 1677.17 59.118 1675.39 55.147 1674.54 C 51.172 1673.68 47.278 1673.1 43.456 1672.8 C 42.651 1672.8 41.847 1672.75 41.043 1672.65 C 31.187 1672.55 21.684 1674.36 12.536 1678.08 C 3.184 1681.7 -4.761 1687.73 -11.296 1696.18 C -13.213 1698.9 -14.766 1701.8 -15.961 1704.86 L -25.173 1707.49 L -44.178 1712.92 C -56.848 1716.44 -69.62 1719.21 -82.49 1721.22 C -88.726 1722.23 -95.085 1722.78 -101.57 1722.88 C -108.06 1722.98 -113.51 1721.67 -117.94 1718.96 C -121.16 1716.04 -121.56 1711.57 -119.14 1705.53 C -117.84 1702.01 -115.98 1698.69 -113.56 1695.58 L -113.56 1695.88 C -114.07 1697.39 -114.17 1698.95 -113.86 1700.56 C -113.66 1701.56 -113.39 1702.27 -113.03 1702.67 C -112.68 1703.07 -112.31 1703.3 -111.9 1703.35 C -111.5 1703.4 -111.15 1703.42 -110.85 1703.42 L -110.39 1703.42 C -109.29 1703.32 -108.23 1703.22 -107.23 1703.12 C -105.32 1702.92 -103.51 1702.62 -101.8 1702.21 C -101.7 1702.21 -101.65 1702.16 -101.65 1702.06 C -98.026 1701.26 -94.557 1700.31 -91.238 1699.2 C -84.602 1696.79 -78.217 1693.87 -72.082 1690.45 C -65.95 1687.03 -60.218 1683.01 -54.888 1678.38 C -53.582 1677.08 -52.274 1675.87 -50.965 1674.76 C -48.956 1673.15 -47.021 1671.27 -45.158 1669.11 C -43.298 1666.94 -41.665 1663.95 -40.257 1660.13 C -39.754 1658.83 -39.83 1657.39 -40.482 1655.83 C -41.138 1654.27 -42.017 1652.92 -43.122 1651.76 C -44.23 1650.61 -45.336 1650.03 -46.441 1650.03 C -48.956 1649.32 -51.066 1649.07 -52.776 1649.27 L -53.53 1649.27 C -57.352 1649.78 -60.973 1650.53 -64.39 1651.53 C -71.026 1653.65 -77.413 1656.26 -83.546 1659.38 C -96.016 1665.51 -107.03 1673.76 -116.58 1684.11 C -121.31 1689.44 -124.93 1695.63 -127.44 1702.67 C -128.84 1705.98 -129.42 1709.86 -129.17 1714.28 C -128.92 1718.71 -126.89 1722.48 -123.06 1725.59 C -116.93 1729.01 -110.97 1730.8 -105.19 1730.95 C -99.41 1731.1 -93.704 1730.72 -88.07 1729.82 C -85.758 1729.52 -83.496 1729.27 -81.284 1729.06 C -68.01 1726.65 -54.989 1723.58 -42.217 1719.86 L -23.212 1714.28 L -18.08 1712.65 C -18.13 1712.89 -18.176 1713.14 -18.234 1713.38 C -18.434 1714.18 -18.585 1715.06 -18.688 1716.02 C -18.786 1716.97 -18.786 1718.15 -18.688 1719.56 C -18.688 1721.67 -17.857 1723.88 -16.198 1726.2 C -14.54 1728.51 -12.502 1729.97 -10.089 1730.57 C -6.77 1731.38 -3.957 1731.63 -1.642 1731.33 C 0.67 1731.02 2.78 1730.57 4.692 1729.97 C 5.496 1729.77 6.351 1729.57 7.256 1729.37 C 11.782 1727.86 16.104 1726.1 20.228 1724.09 C 28.374 1720.27 36.267 1716.04 43.91 1711.41 C 51.852 1706.49 59.596 1701.36 67.138 1696.03 L 63.518 1702.06 C 54.366 1716.75 45.015 1731.33 35.463 1745.81 C 34.155 1747.71 32.847 1749.63 31.54 1751.54 C 30.535 1753.05 29.479 1754.55 28.374 1756.06 C 10.474 1767.63 -7.073 1779.69 -24.268 1792.26 C -38.345 1802.62 -51.97 1813.68 -65.144 1825.45 C -71.781 1831.28 -78.116 1837.56 -84.149 1844.3 C -85.054 1845.51 -86.009 1846.71 -87.014 1847.92 C -89.528 1850.73 -91.816 1853.85 -93.878 1857.27 C -95.938 1860.69 -97.272 1864.91 -97.876 1869.94 C -97.876 1874.97 -96.517 1880 -93.802 1885.03 C -92.193 1887.94 -89.654 1889.93 -86.185 1890.98 C -82.716 1892.04 -79.624 1892.06 -76.909 1891.06 C -72.181 1889.55 -68.01 1887.56 -64.39 1885.1 C -60.77 1882.63 -57.4 1880 -54.284 1877.18 C -53.881 1876.78 -53.428 1876.38 -52.926 1875.97 C -39.853 1863.81 -27.836 1850.88 -16.877 1837.21 C 4.24 1811.07 24.15 1784.17 42.854 1756.52 C 45.267 1754.9 47.68 1753.3 50.094 1751.69 C 55.724 1747.97 61.406 1744.35 67.138 1740.83 C 81.92 1731.68 97.003 1723.13 112.388 1715.19 C 120.03 1711.16 127.823 1707.55 135.768 1704.33 C 139.788 1702.72 143.762 1701.36 147.683 1700.25 C 148.607 1699.97 149.547 1699.77 150.498 1699.63 C 148.403 1703.33 146.61 1707.46 145.119 1712.02 C 144.416 1714.33 144.04 1717.2 143.988 1720.62 C 143.939 1724.04 145.371 1727.45 148.287 1730.87 C 151.403 1733.29 154.395 1734.69 157.262 1735.1 C 160.128 1735.5 162.715 1735.6 165.03 1735.4 L 165.482 1735.4 C 170.407 1734.99 175.035 1734.19 179.359 1732.98 C 195.85 1728.16 211.638 1722.1 226.72 1714.81 C 237.659 1709.52 248.435 1704.03 259.056 1698.35 L 249.95 1711.11 L 246.027 1716.69 L 243.916 1719.41 C 243.816 1719.61 243.666 1719.91 243.463 1720.31 C 243.463 1720.41 243.439 1720.52 243.387 1720.62 C 243.339 1720.72 243.263 1720.82 243.162 1720.92 C 243.062 1721.02 242.935 1721.25 242.784 1721.6 C 242.634 1721.95 242.558 1722.5 242.558 1723.26 C 242.558 1724.01 242.762 1725.14 243.162 1726.65 C 244.47 1728.36 245.6 1729.52 246.555 1730.12 C 247.512 1730.72 248.29 1731.02 248.892 1731.02 C 249.496 1731.02 249.95 1730.92 250.251 1730.72 L 250.552 1730.72 C 250.654 1730.72 250.703 1730.77 250.703 1730.87 C 251.004 1730.77 251.256 1730.7 251.458 1730.65 C 251.66 1730.6 251.811 1730.57 251.91 1730.57 C 252.314 1730.47 252.615 1730.37 252.815 1730.27 L 253.267 1729.97 C 253.671 1729.77 254.022 1729.57 254.323 1729.37 C 254.927 1729.06 255.48 1728.76 255.982 1728.46 C 258.094 1727.15 260.104 1725.89 262.015 1724.69 L 267.747 1720.92 C 275.49 1715.99 283.283 1711.21 291.127 1706.59 C 299.07 1701.96 307.063 1697.64 315.11 1693.62 C 323.154 1689.39 331.348 1685.87 339.695 1683.06 C 343.818 1681.65 347.89 1680.64 351.914 1680.04 C 352.718 1679.94 353.471 1679.84 354.176 1679.74 L 350.555 1684.27 C 349.047 1686.08 347.588 1687.94 346.182 1689.85 C 344.674 1691.86 343.315 1694.02 342.108 1696.33 C 341.404 1697.54 340.8 1698.85 340.299 1700.25 C 339.795 1701.66 339.492 1703.27 339.394 1705.08 C 339.191 1706.99 339.544 1708.95 340.45 1710.96 C 341.454 1712.87 342.712 1714.38 344.22 1715.49 C 345.73 1716.49 347.135 1717.2 348.444 1717.6 C 349.75 1718.1 351.008 1718.56 352.215 1718.96 C 354.727 1719.66 357.192 1720.16 359.606 1720.46 C 364.432 1721.17 369.259 1721.52 374.086 1721.52 C 378.811 1721.52 383.536 1721.37 388.264 1721.07 C 397.616 1720.57 406.867 1719.66 416.018 1718.35 C 425.268 1717.05 434.468 1715.54 443.62 1713.83 C 461.82 1710.41 479.919 1706.54 497.922 1702.21 C 506.87 1700 515.818 1697.74 524.77 1695.43 C 533.718 1693.11 542.667 1690.65 551.618 1688.04 C 552.422 1687.84 553.026 1687.36 553.428 1686.6 C 553.828 1685.85 553.93 1685.07 553.73 1684.27" clip-path="url(#clipPath18)"/>
  <path id="path148" style="fill: rgb(35, 31, 32); fill-opacity: 1; fill-rule: nonzero; stroke: none; stroke-width: 1.333;" d="M 86.32 1821.06 L 97.542 1821.06 C 100.774 1821.06 103.271 1820.31 105.038 1818.8 C 106.802 1817.3 107.686 1814.9 107.686 1811.59 L 107.686 1810.37 C 107.686 1807 106.802 1804.64 105.038 1803.26 C 103.271 1801.89 100.774 1801.2 97.542 1801.2 L 86.32 1801.2 L 86.32 1821.06 Z M 86.32 1794.79 L 97.092 1794.79 C 100.144 1794.79 102.403 1794.12 103.871 1792.8 C 105.336 1791.48 106.07 1789.51 106.07 1786.92 C 106.07 1785.19 105.695 1783.79 104.947 1782.72 C 104.199 1781.65 103.136 1780.86 101.76 1780.35 C 100.383 1779.84 98.767 1779.59 96.914 1779.59 L 86.32 1779.59 L 86.32 1794.79 Z M 81.114 1828.24 C 79.858 1828.24 78.839 1827.98 78.062 1827.47 C 77.283 1826.96 76.895 1826.35 76.895 1825.64 L 76.895 1775.08 C 76.895 1774.21 77.344 1773.55 78.242 1773.09 C 79.139 1772.64 80.096 1772.41 81.114 1772.41 L 97.452 1772.41 C 100.683 1772.41 103.675 1772.76 106.428 1773.48 C 109.18 1774.19 111.395 1775.5 113.071 1777.41 C 114.747 1779.32 115.586 1782.06 115.586 1785.62 C 115.586 1788.83 114.912 1791.48 113.566 1793.56 C 112.219 1795.65 110.347 1797.13 107.955 1797.99 C 109.81 1798.6 111.426 1799.4 112.802 1800.4 C 114.178 1801.39 115.255 1802.72 116.034 1804.37 C 116.811 1806.03 117.202 1808.15 117.202 1810.75 L 117.202 1812.2 C 117.202 1816.12 116.423 1819.25 114.867 1821.59 C 113.31 1823.93 111.187 1825.63 108.494 1826.67 C 105.8 1827.71 102.748 1828.24 99.338 1828.24 L 81.114 1828.24 Z" clip-path="url(#clipPath18)"/>
  <path id="path152" style="fill: rgb(35, 31, 32); fill-opacity: 1; fill-rule: nonzero; stroke: none; stroke-width: 1.333;" d="M 131.294 1828.24 C 130.096 1828.24 129.005 1828.02 128.018 1827.59 C 127.03 1827.15 126.536 1826.48 126.536 1825.56 L 126.536 1775 C 126.536 1774.09 127.03 1773.43 128.018 1773.02 C 129.005 1772.61 130.096 1772.41 131.294 1772.41 C 132.49 1772.41 133.584 1772.61 134.57 1773.02 C 135.558 1773.43 136.052 1774.09 136.052 1775 L 136.052 1825.56 C 136.052 1826.48 135.558 1827.15 134.57 1827.59 C 133.584 1828.02 132.49 1828.24 131.294 1828.24" clip-path="url(#clipPath18)"/>
  <path id="path156" style="fill: rgb(35, 31, 32); fill-opacity: 1; fill-rule: nonzero; stroke: none; stroke-width: 1.333;" d="M 152.658 1828.24 C 151.46 1828.24 150.369 1828.01 149.382 1827.55 C 148.394 1827.09 147.9 1826.43 147.9 1825.56 L 147.9 1775 C 147.9 1774.09 148.394 1773.43 149.382 1773.02 C 150.369 1772.61 151.46 1772.41 152.658 1772.41 C 153.854 1772.41 154.948 1772.61 155.934 1773.02 C 156.922 1773.43 157.416 1774.09 157.416 1775 L 157.416 1798.22 L 179.32 1773.55 C 179.977 1772.79 180.876 1772.41 182.013 1772.41 C 182.789 1772.41 183.613 1772.61 184.481 1773.02 C 185.348 1773.43 186.066 1773.95 186.636 1774.58 C 187.204 1775.22 187.489 1775.89 187.489 1776.61 C 187.489 1776.81 187.429 1777.07 187.309 1777.37 C 187.188 1777.68 187.009 1777.96 186.77 1778.21 L 169.534 1796.54 L 190.002 1823.04 C 190.361 1823.5 190.541 1823.99 190.541 1824.49 C 190.541 1825.16 190.272 1825.79 189.733 1826.4 C 189.194 1827.01 188.49 1827.51 187.622 1827.89 C 186.756 1828.28 185.873 1828.47 184.974 1828.47 C 184.316 1828.47 183.688 1828.35 183.09 1828.12 C 182.492 1827.89 181.982 1827.5 181.564 1826.94 L 163.25 1803.34 L 157.416 1809.6 L 157.416 1825.56 C 157.416 1826.43 156.922 1827.09 155.934 1827.55 C 154.948 1828.01 153.854 1828.24 152.658 1828.24" clip-path="url(#clipPath18)"/>
  <path id="path160" style="fill: rgb(35, 31, 32); fill-opacity: 1; fill-rule: nonzero; stroke: none; stroke-width: 1.333;" d="M 200.773 1828.24 C 199.756 1828.24 198.799 1828.01 197.901 1827.55 C 197.003 1827.09 196.555 1826.43 196.555 1825.56 L 196.555 1775.08 C 196.555 1774.21 197.003 1773.55 197.901 1773.09 C 198.799 1772.64 199.756 1772.41 200.773 1772.41 L 232.731 1772.41 C 233.868 1772.41 234.676 1772.79 235.156 1773.55 C 235.633 1774.32 235.873 1775.11 235.873 1775.92 C 235.873 1776.89 235.604 1777.74 235.065 1778.48 C 234.527 1779.22 233.748 1779.59 232.731 1779.59 L 206.069 1779.59 L 206.069 1797.08 L 219.895 1797.08 C 220.912 1797.08 221.689 1797.41 222.228 1798.07 C 222.768 1798.73 223.036 1799.49 223.036 1800.36 C 223.036 1801.07 222.796 1801.77 222.319 1802.46 C 221.839 1803.15 221.031 1803.49 219.895 1803.49 L 206.069 1803.49 L 206.069 1821.06 L 232.731 1821.06 C 233.748 1821.06 234.527 1821.41 235.065 1822.13 C 235.604 1822.84 235.873 1823.71 235.873 1824.72 C 235.873 1825.54 235.633 1826.33 235.156 1827.09 C 234.676 1827.86 233.868 1828.24 232.731 1828.24 L 200.773 1828.24 Z" clip-path="url(#clipPath18)"/>
  <path id="path164" style="fill: rgb(35, 31, 32); fill-opacity: 1; fill-rule: nonzero; stroke: none; stroke-width: 1.333;" d="M 266.125 1828.24 C 264.926 1828.24 263.835 1828.02 262.849 1827.59 C 261.861 1827.15 261.366 1826.48 261.366 1825.56 L 261.366 1775.08 C 261.366 1774.21 261.815 1773.55 262.713 1773.09 C 263.611 1772.64 264.567 1772.41 265.586 1772.41 L 297.094 1772.41 C 298.173 1772.41 298.949 1772.79 299.429 1773.55 C 299.907 1774.32 300.146 1775.11 300.146 1775.92 C 300.146 1776.89 299.891 1777.74 299.383 1778.48 C 298.874 1779.22 298.111 1779.59 297.094 1779.59 L 270.882 1779.59 L 270.882 1797.08 L 284.797 1797.08 C 285.813 1797.08 286.577 1797.41 287.085 1798.07 C 287.593 1798.73 287.849 1799.49 287.849 1800.36 C 287.849 1801.07 287.609 1801.77 287.131 1802.46 C 286.65 1803.15 285.874 1803.49 284.797 1803.49 L 270.882 1803.49 L 270.882 1825.56 C 270.882 1826.48 270.389 1827.15 269.401 1827.59 C 268.414 1828.02 267.321 1828.24 266.125 1828.24" clip-path="url(#clipPath18)"/>
  <path id="path168" style="fill: rgb(35, 31, 32); fill-opacity: 1; fill-rule: nonzero; stroke: none; stroke-width: 1.333;" d="M 311.368 1828.24 C 310.169 1828.24 309.078 1828.02 308.092 1827.59 C 307.104 1827.15 306.609 1826.48 306.609 1825.56 L 306.609 1775 C 306.609 1774.09 307.104 1773.43 308.092 1773.02 C 309.078 1772.61 310.169 1772.41 311.368 1772.41 C 312.564 1772.41 313.657 1772.61 314.644 1773.02 C 315.632 1773.43 316.125 1774.09 316.125 1775 L 316.125 1825.56 C 316.125 1826.48 315.632 1827.15 314.644 1827.59 C 313.657 1828.02 312.564 1828.24 311.368 1828.24" clip-path="url(#clipPath18)"/>
  <path id="path172" style="fill: rgb(35, 31, 32); fill-opacity: 1; fill-rule: nonzero; stroke: none; stroke-width: 1.333;" d="M 344.761 1828.24 C 343.564 1828.24 342.472 1828.01 341.485 1827.55 C 340.497 1827.09 340.004 1826.43 340.004 1825.56 L 340.004 1779.82 L 326.089 1779.82 C 325.132 1779.82 324.384 1779.43 323.845 1778.67 C 323.307 1777.91 323.037 1777.04 323.037 1776.07 C 323.037 1775.16 323.276 1774.32 323.755 1773.55 C 324.235 1772.79 325.012 1772.41 326.089 1772.41 L 363.344 1772.41 C 364.48 1772.41 365.288 1772.79 365.768 1773.55 C 366.247 1774.32 366.485 1775.13 366.485 1776 C 366.485 1777.02 366.231 1777.91 365.723 1778.67 C 365.213 1779.43 364.421 1779.82 363.344 1779.82 L 349.52 1779.82 L 349.52 1825.56 C 349.52 1826.43 349.025 1827.09 348.037 1827.55 C 347.051 1828.01 345.959 1828.24 344.761 1828.24" clip-path="url(#clipPath18)"/>
  <path id="path176" style="fill: rgb(35, 31, 32); fill-opacity: 1; fill-rule: nonzero; stroke: none; stroke-width: 1.333;" d="M 390.184 1828.24 C 388.987 1828.24 387.895 1828.01 386.908 1827.55 C 385.92 1827.09 385.427 1826.43 385.427 1825.56 L 385.427 1779.82 L 371.512 1779.82 C 370.555 1779.82 369.807 1779.43 369.268 1778.67 C 368.729 1777.91 368.46 1777.04 368.46 1776.07 C 368.46 1775.16 368.699 1774.32 369.177 1773.55 C 369.657 1772.79 370.435 1772.41 371.512 1772.41 L 408.767 1772.41 C 409.903 1772.41 410.711 1772.79 411.191 1773.55 C 411.669 1774.32 411.908 1775.13 411.908 1776 C 411.908 1777.02 411.653 1777.91 411.145 1778.67 C 410.636 1779.43 409.844 1779.82 408.767 1779.82 L 394.943 1779.82 L 394.943 1825.56 C 394.943 1826.43 394.448 1827.09 393.46 1827.55 C 392.473 1828.01 391.381 1828.24 390.184 1828.24" clip-path="url(#clipPath18)"/>
  <path id="path180" style="fill: rgb(35, 31, 32); fill-opacity: 1; fill-rule: nonzero; stroke: none; stroke-width: 1.333;" d="M 423.578 1828.24 C 422.38 1828.24 421.289 1828.02 420.302 1827.59 C 419.314 1827.15 418.82 1826.48 418.82 1825.56 L 418.82 1775 C 418.82 1774.09 419.314 1773.43 420.302 1773.02 C 421.289 1772.61 422.38 1772.41 423.578 1772.41 C 424.774 1772.41 425.868 1772.61 426.854 1773.02 C 427.842 1773.43 428.336 1774.09 428.336 1775 L 428.336 1825.56 C 428.336 1826.48 427.842 1827.15 426.854 1827.59 C 425.868 1828.02 424.774 1828.24 423.578 1828.24" clip-path="url(#clipPath18)"/>
  <path id="path184" style="fill: rgb(35, 31, 32); fill-opacity: 1; fill-rule: nonzero; stroke: none; stroke-width: 1.333;" d="M 444.942 1828.24 C 443.744 1828.24 442.653 1828.01 441.666 1827.55 C 440.678 1827.09 440.184 1826.43 440.184 1825.56 L 440.184 1775.08 C 440.184 1774.11 440.678 1773.43 441.666 1773.02 C 442.653 1772.61 443.744 1772.41 444.942 1772.41 C 446.078 1772.41 447.052 1772.55 447.86 1772.83 C 448.668 1773.11 449.4 1773.58 450.06 1774.24 C 450.717 1774.9 451.405 1775.82 452.124 1776.99 L 472.053 1810.06 L 472.053 1775 C 472.053 1774.09 472.546 1773.43 473.533 1773.02 C 474.521 1772.61 475.613 1772.41 476.81 1772.41 C 478.006 1772.41 479.1 1772.61 480.086 1773.02 C 481.074 1773.43 481.568 1774.09 481.568 1775 L 481.568 1825.56 C 481.568 1826.43 481.074 1827.09 480.086 1827.55 C 479.1 1828.01 478.006 1828.24 476.81 1828.24 C 475.613 1828.24 474.536 1827.98 473.578 1827.47 C 472.621 1826.96 471.813 1826.23 471.154 1825.26 L 449.7 1790.51 L 449.7 1825.56 C 449.7 1826.43 449.206 1827.09 448.218 1827.55 C 447.232 1828.01 446.138 1828.24 444.942 1828.24" clip-path="url(#clipPath18)"/>
  <path id="path188" style="fill: rgb(35, 31, 32); fill-opacity: 1; fill-rule: nonzero; stroke: none; stroke-width: 1.333;" d="M 512.896 1828.69 C 509.065 1828.69 505.639 1828.13 502.617 1827.01 C 499.595 1825.89 497.2 1824.09 495.436 1821.59 C 493.669 1819.1 492.788 1815.79 492.788 1811.66 L 492.788 1789.44 C 492.788 1785.31 493.669 1782.01 495.436 1779.51 C 497.2 1777.02 499.595 1775.21 502.617 1774.09 C 505.639 1772.97 508.975 1772.41 512.627 1772.41 C 516.695 1772.41 520.257 1772.99 523.309 1774.16 C 526.361 1775.34 528.753 1776.96 530.491 1779.05 C 532.225 1781.14 533.093 1783.63 533.093 1786.54 C 533.093 1788.06 532.689 1789.09 531.883 1789.63 C 531.075 1790.16 529.892 1790.43 528.336 1790.43 C 527.079 1790.43 525.987 1790.24 525.06 1789.86 C 524.132 1789.48 523.637 1788.78 523.577 1787.76 C 523.399 1786.28 522.979 1784.92 522.321 1783.67 C 521.663 1782.42 520.585 1781.43 519.089 1780.69 C 517.593 1779.96 515.528 1779.59 512.896 1779.59 C 509.544 1779.59 506.927 1780.39 505.041 1781.99 C 503.156 1783.6 502.213 1786.08 502.213 1789.44 L 502.213 1811.66 C 502.213 1815.02 503.156 1817.51 505.041 1819.11 C 506.927 1820.71 509.544 1821.52 512.896 1821.52 C 516.187 1821.52 518.789 1820.71 520.705 1819.11 C 522.62 1817.51 523.577 1815.02 523.577 1811.66 L 523.577 1805.4 L 514.512 1805.4 C 513.553 1805.4 512.805 1805.07 512.268 1804.41 C 511.729 1803.75 511.46 1802.98 511.46 1802.12 C 511.46 1801.35 511.729 1800.63 512.268 1799.94 C 512.805 1799.25 513.553 1798.91 514.512 1798.91 L 529.952 1798.91 C 530.968 1798.91 531.747 1799.18 532.287 1799.71 C 532.824 1800.24 533.093 1800.89 533.093 1801.66 L 533.093 1811.66 C 533.093 1815.79 532.196 1819.1 530.401 1821.59 C 528.605 1824.09 526.181 1825.89 523.129 1827.01 C 520.077 1828.13 516.667 1828.69 512.896 1828.69" clip-path="url(#clipPath18)"/>
</svg>